<svg width="15" height="15" viewBox="0 0 15 15" fill="none" xmlns="http://www.w3.org/2000/svg">
<g clip-path="url(#clip0_167_3891)">
<path fill-rule="evenodd" clip-rule="evenodd" d="M1 2C1 0.895431 1.89543 0 3 0H12C13.1046 0 14 0.895431 14 2V3H1V2ZM14 13C14 14.1046 13.1046 15 12 15L3 15C1.89543 15 1 14.1046 1 13L1 11L14 11V13ZM0 8.9999H5.19753e-05L0 9H13L13.0001 8.9999H13.9286L15 5H14.5H13.9286H12.8571H11.7857H10.7143H9.64286H8.57143H7.5H6.42857H5.35714H4.28571H3.21429H2.14286H1.5H1.07143L0 8.9999ZM2.41069 8H1.33926L1.87499 6H2.94642L2.41069 8ZM3.48212 8L4.01785 6H5.08928L4.55355 8H3.48212ZM5.62498 8L6.16071 6H7.23214L6.69641 8H5.62498ZM7.76784 8L8.30356 6H9.37499L8.83926 8H7.76784ZM9.91069 8L10.4464 6H11.5178L10.9821 8H9.91069ZM12.0536 8L12.5893 6H13.6607L13.125 8H12.0536Z" fill="#305FE6"/>
</g>
<defs>
<clipPath id="clip0_167_3891">
<rect width="15" height="15" fill="white"/>
</clipPath>
</defs>
</svg>
