<svg width="16" height="15" viewBox="0 0 16 15" fill="none" xmlns="http://www.w3.org/2000/svg">
<path d="M6.03857 7.5C6.03857 6.67157 6.71015 6 7.53857 6C8.367 6 9.03857 6.67157 9.03857 7.5C9.03857 8.32843 8.367 9 7.53857 9C6.71015 9 6.03857 8.32843 6.03857 7.5Z" fill="#305FE6"/>
<path fill-rule="evenodd" clip-rule="evenodd" d="M14.5386 7.49998C15.0028 7.3143 15.0027 7.31409 15.0026 7.31385L15.0018 7.31182L15 7.30752L14.9943 7.29356C14.9894 7.28192 14.9825 7.26564 14.9736 7.24504C14.9558 7.20385 14.9297 7.14533 14.8951 7.07195C14.8259 6.92526 14.7226 6.71871 14.5829 6.47224C14.3041 5.98029 13.8776 5.32375 13.2852 4.66552C12.0996 3.34827 10.2245 2 7.5385 2C4.85251 2 2.97738 3.34827 1.79186 4.66552C1.19945 5.32375 0.772897 5.98029 0.494127 6.47224C0.35446 6.71872 0.251108 6.92526 0.181955 7.07195C0.14736 7.14533 0.121268 7.20386 0.103419 7.24505C0.0944932 7.26564 0.0876237 7.28192 0.0827788 7.29356L0.0770235 7.30752L0.0752758 7.31182L0.074683 7.31329C0.0745894 7.31353 0.0742771 7.31431 0.538516 7.5L0.0742771 7.31431L0 7.5L0.0742771 7.68569L0.538516 7.5C0.0742771 7.68569 0.0741834 7.68546 0.0742771 7.68569L0.074683 7.68671L0.0752758 7.68818L0.0770235 7.69248L0.0827788 7.70644C0.0876237 7.71808 0.0944932 7.73436 0.103419 7.75495C0.121268 7.79614 0.14736 7.85467 0.181955 7.92805C0.251108 8.07474 0.35446 8.28128 0.494127 8.52776C0.772897 9.01971 1.19945 9.67625 1.79186 10.3345C2.97738 11.6517 4.85251 13 7.5385 13C10.2245 13 12.0996 11.6517 13.2852 10.3345C13.8776 9.67625 14.3041 9.01971 14.5829 8.52776C14.7226 8.28129 14.8259 8.07474 14.8951 7.92805C14.9297 7.85467 14.9558 7.79615 14.9736 7.75496C14.9825 7.73436 14.9894 7.71808 14.9943 7.70644L15 7.69248L15.0018 7.68818L15.0023 7.68671C15.0024 7.68647 15.0028 7.68566 14.5386 7.49998L15.0028 7.6857L15.077 7.5L15.0026 7.31385L14.5386 7.49998ZM7.53857 5C6.15786 5 5.03857 6.11929 5.03857 7.5C5.03857 8.88071 6.15786 10 7.53857 10C8.91929 10 10.0386 8.88071 10.0386 7.5C10.0386 6.11929 8.91929 5 7.53857 5Z" fill="#305FE6"/>
</svg>
