<svg width="15" height="15" viewBox="0 0 15 15" fill="none" xmlns="http://www.w3.org/2000/svg">
<path fill-rule="evenodd" clip-rule="evenodd" d="M2.49683 6.66561C3.56131 7.84836 5.18617 9.00009 7.50018 9.00009C9.81419 9.00009 11.4391 7.84836 12.5035 6.66561C13.0361 6.07384 13.4221 5.48038 13.6746 5.03483C13.8005 4.81256 13.8925 4.62847 13.9522 4.50172C13.9821 4.43839 14.0038 4.38949 14.0177 4.35744C14.0247 4.34142 14.0296 4.32962 14.0327 4.32234L14.0358 4.31486L14.0361 4.31406C14.036 4.31422 14.036 4.3144 14.5002 4.50009C14.9644 4.68579 14.9643 4.686 14.9643 4.68624L14.964 4.6868L14.9634 4.68827L14.9617 4.69258L14.9559 4.70653C14.9511 4.71818 14.9442 4.73445 14.9353 4.75505C14.9174 4.79624 14.8913 4.85476 14.8568 4.92815C14.7876 5.07483 14.6842 5.28138 14.5446 5.52785C14.2658 6.0198 13.8392 6.67634 13.2468 7.33457C13.064 7.53777 12.8647 7.74171 12.6485 7.94132L14.3537 9.64654L13.6466 10.3536L11.8718 8.57881C10.864 9.30906 9.58272 9.88317 8.00018 9.98426L8.00019 12.0001L7.00019 12.0001L7.00018 9.98426C5.41765 9.88317 4.1364 9.30907 3.12858 8.57882L1.35375 10.3536L0.646641 9.64654L2.35185 7.94133C2.13571 7.74171 1.93642 7.53777 1.75354 7.33457C1.16113 6.67634 0.734576 6.0198 0.455806 5.52785C0.316139 5.28138 0.212786 5.07483 0.143634 4.92814C0.109039 4.85476 0.0829463 4.79624 0.0650978 4.75505C0.0561719 4.73445 0.0493025 4.71817 0.0444575 4.70653L0.0387023 4.69257L0.0369546 4.68827L0.0363618 4.6868L0.0361355 4.68623C0.0360418 4.686 0.0359558 4.68579 0.500195 4.50009C0.964433 4.3144 0.964363 4.31422 0.9643 4.31406L0.964211 4.31384L0.964624 4.31486L0.967712 4.32234C0.97074 4.32962 0.975711 4.34142 0.982654 4.35744C0.996544 4.38949 1.0183 4.43839 1.04816 4.50173C1.10791 4.62848 1.19987 4.81256 1.32583 5.03484C1.57831 5.48039 1.96425 6.07385 2.49683 6.66561ZM0.964168 4.31374C0.964152 4.3137 0.964167 4.31373 0.964211 4.31384L0.964168 4.31374Z" fill="#305FE6"/>
</svg>
