<svg width="80" height="80" viewBox="0 0 80 80" fill="none" xmlns="http://www.w3.org/2000/svg">
<mask id="mask0_260_1704" style="mask-type:alpha" maskUnits="userSpaceOnUse" x="7" y="10" width="67" height="62">
<path d="M66.4191 10.4329H14.5809C10.3939 10.4329 7 14.0417 7 18.4939V51.6769C7 56.1291 10.3939 59.7386 14.5809 59.7386H22.6865C24.6964 59.7386 26.6252 60.5878 28.0465 62.0991L35.1386 69.6385C38.0996 72.7872 42.899 72.7872 45.86 69.6385L52.9528 62.0962C54.3741 60.5849 56.3021 59.7357 58.3127 59.7357H66.4191C70.6061 59.7357 74 56.1262 74 51.674V18.491C74 14.0417 70.6061 10.4329 66.4191 10.4329Z" fill="#F2F2F2"/>
</mask>
<g mask="url(#mask0_260_1704)">
<path d="M80.021 -6.2417L0.70105 0.0985761V74.1525H80.021V-6.2417Z" fill="#16D3DC"/>
<path d="M40.4685 51.858L89.9982 48.0347V4.54688L40.4685 8.3698V51.858Z" fill="#18BECB"/>
<path d="M40.5078 80.5505C40.1747 80.5592 39.8409 80.5752 39.5078 80.5752C26.6713 80.5752 13.8345 80.5752 0.997437 80.5752V47.9515C2.34758 47.4515 3.64804 46.8242 4.88157 46.0779C8.86619 43.6268 13.0949 43.1783 17.531 44.5883C17.6746 44.6346 17.8296 44.6549 17.9789 44.6875C19.4196 45.3084 20.7153 46.209 22.1129 46.9045C25.1442 48.413 28.2143 48.4536 31.2694 46.9306C31.7188 46.685 32.1853 46.4684 32.6139 46.1894C34.9598 44.6392 37.7016 43.8108 40.5056 43.805C40.5063 49.9714 40.507 74.3805 40.5078 80.5505Z" fill="#FDDA41"/>
<path d="M40.4502 80.5508C40.7833 80.5595 41.1171 80.5754 41.4501 80.5754C54.2872 80.5754 67.124 80.5754 79.9605 80.5754V47.9517C78.6104 47.4517 77.3099 46.8244 76.0764 46.0781C72.091 43.6271 67.8631 43.18 63.4269 44.5849C63.2834 44.6312 63.1283 44.6515 62.979 44.6841C61.5383 45.3051 60.2427 46.2056 58.8444 46.9012C55.8137 48.4096 52.7429 48.4502 49.6886 46.9273C49.2392 46.6816 48.7726 46.465 48.3441 46.1861C45.9976 44.6354 43.2549 43.807 40.4502 43.8017C40.4502 49.9717 40.4502 74.3808 40.4502 80.5508Z" fill="#FBBE29"/>
<path d="M40.4836 13.4057L39.6681 13.184L37.1895 12.5051C35.3767 12.0219 33.4793 11.9575 31.6384 12.3168C29.7976 12.676 28.0607 13.4497 26.557 14.5802C25.0534 15.7106 23.8217 17.1688 22.9535 18.8462C22.0854 20.5235 21.6032 22.3769 21.5428 24.2684C21.4825 26.1598 21.8455 28.0407 22.6049 29.771C23.3643 31.5012 24.5005 33.0364 25.929 34.2622C27.3574 35.488 29.0414 36.3728 30.8555 36.8509C32.6696 37.329 34.5672 37.388 36.4071 37.0236L36.6698 36.9714C36.6853 36.9685 36.7 36.9651 36.7147 36.9618C36.7437 36.9552 36.7726 36.9487 36.8069 36.9453L36.9584 36.9272L37.1113 36.9084C37.1299 36.9066 37.1479 36.9039 37.1659 36.9013C37.1987 36.8965 37.2317 36.8917 37.2692 36.8917L37.6073 36.8714C37.7073 36.8625 37.8152 36.862 37.923 36.8615C37.9374 36.8614 37.9518 36.8613 37.9662 36.8613C38.02 36.8609 38.0736 36.8601 38.1275 36.8592C38.196 36.8581 38.2649 36.8569 38.3352 36.8569L38.7228 36.8685L38.918 36.8736L39.1205 36.8866C40.2854 36.9622 41.4451 37.1044 42.594 37.3126C43.8114 37.5264 45.0698 37.7995 46.3403 38.1219C47.6108 38.4443 48.9029 38.8095 50.195 39.2087C52.7835 40.0086 55.3935 40.9374 57.9877 41.9713C60.5819 43.0052 63.1675 44.134 65.7236 45.3526C68.2798 46.5713 70.8094 47.8805 73.2923 49.2774C73.5255 49.4086 73.7584 49.5406 73.9908 49.6735V36.922C73.5407 36.4601 73.0872 36.0008 72.6305 35.5441C70.4455 33.3589 68.1822 31.2419 65.8299 29.1806C63.4776 27.1194 61.0377 25.1284 58.4701 23.207C57.1851 22.247 55.8679 21.3065 54.5012 20.3893C53.1345 19.4721 51.7225 18.5751 50.2316 17.7158C48.7407 16.8565 47.1751 16.0277 45.4646 15.2525L45.1444 15.1076L44.8142 14.9663L44.1502 14.6837C43.966 14.6087 43.778 14.5352 43.5896 14.4616C43.5468 14.4448 43.5039 14.4281 43.4611 14.4113C43.4303 14.3992 43.3995 14.3871 43.3688 14.375C43.169 14.2965 42.9696 14.2181 42.7562 14.1447L42.0298 13.8867C41.9461 13.8562 41.856 13.8275 41.766 13.7987C41.7279 13.7866 41.6898 13.7744 41.6522 13.7621L41.2696 13.6404L40.8849 13.5201C40.8023 13.4928 40.714 13.4689 40.6257 13.4449C40.578 13.432 40.5304 13.4191 40.4836 13.4057Z" fill="url(#paint0_linear_260_1704)"/>
</g>
<path fill-rule="evenodd" clip-rule="evenodd" d="M47.178 16.2455C42.9529 8.28956 33.7275 5.69433 25.713 10.211C25.713 10.211 25.713 10.2111 25.713 10.2111C18.1423 14.7713 15.648 23.6494 19.7439 31.2256C23.1463 37.5246 32.0366 42.0253 40.13 37.5906C40.13 37.5905 40.13 37.5905 40.13 37.5905C48.3754 33.4824 51.4253 24.2449 47.178 16.2455Z" fill="#9AEF4F"/>
<path d="M25.7133 10.2109C23.6704 21.1802 28.0347 30.425 37.7497 35.7343C38.6355 36.2183 39.6785 36.5262 40.13 37.5906C32.0366 42.0253 23.1463 37.5246 19.7439 31.2256C15.648 23.6493 18.1424 14.7711 25.7133 10.2109Z" fill="#87D93F"/>
<defs>
<linearGradient id="paint0_linear_260_1704" x1="21.531" y1="38.8798" x2="92.9506" y2="38.8798" gradientUnits="userSpaceOnUse">
<stop offset="0.2" stop-color="white"/>
<stop offset="1" stop-color="white" stop-opacity="0"/>
</linearGradient>
</defs>
</svg>
