<?xml version="1.0" encoding="UTF-8" standalone="no"?>
<!-- Created with Inkscape (http://www.inkscape.org/) -->

<svg
   version="1.1"
   id="svg2"
   width="3733.3333"
   height="2666.6667"
   viewBox="0 0 3733.3333 2666.6667"
   sodipodi:docname="OFFICE~1.eps"
   xmlns:inkscape="http://www.inkscape.org/namespaces/inkscape"
   xmlns:sodipodi="http://sodipodi.sourceforge.net/DTD/sodipodi-0.dtd"
   xmlns="http://www.w3.org/2000/svg"
   xmlns:svg="http://www.w3.org/2000/svg">
  <defs
     id="defs6" />
  <sodipodi:namedview
     id="namedview4"
     pagecolor="#ffffff"
     bordercolor="#000000"
     borderopacity="0.25"
     inkscape:showpageshadow="2"
     inkscape:pageopacity="0.0"
     inkscape:pagecheckerboard="0"
     inkscape:deskcolor="#d1d1d1" />
  <g
     id="g8"
     inkscape:groupmode="layer"
     inkscape:label="ink_ext_XXXXXX"
     transform="matrix(1.3333333,0,0,-1.3333333,0,2666.6667)">
    <g
       id="g10"
       transform="scale(0.1)">
      <path
         d="M 28000,0 H 0 V 20000 H 28000 V 0"
         style="fill:#ffffff;fill-opacity:1;fill-rule:nonzero;stroke:none"
         id="path12" />
      <path
         d="m 13287.4,18734.9 c 19.9,0 39.5,-1.7 58.6,-4.8 -1.9,14.6 -2.9,29.5 -2.9,44.6 0,197.9 160.4,358.3 358.3,358.3 124.8,0 234.6,-63.8 298.7,-160.5 26.3,172.1 174.9,303.9 354.2,303.9 197.9,0 358.3,-160.5 358.3,-358.4 0,-36.1 -5.4,-71 -15.3,-103.9 5.1,0.3 10.2,0.4 15.3,0.4 197.9,0 358.4,-160.4 358.4,-358.3 0,-197.9 -160.5,-358.3 -358.4,-358.3 -77.2,0 -148.7,24.5 -207.2,66.1 -79.5,-166.2 -249.1,-281.1 -445.7,-281.1 -210.2,0 -389.7,131.5 -460.8,316.7 -61.7,-108.3 -178,-181.3 -311.5,-181.3 -197.9,0 -358.4,160.4 -358.4,358.3 0,197.9 160.5,358.3 358.4,358.3"
         style="fill:#a2c3f2;fill-opacity:1;fill-rule:nonzero;stroke:none"
         id="path14" />
      <path
         d="m 22896.7,17786.8 c 30.8,-6 60.6,-14.5 89.1,-25.1 1.6,23.2 4.5,46.5 9,69.9 59.4,306 355.6,506 661.6,446.6 192.9,-37.5 343.6,-169 413.8,-337.8 92.2,258.1 361.5,417.3 638.8,363.5 306,-59.4 506,-355.6 446.6,-661.6 -10.9,-55.9 -29.7,-108.2 -54.9,-156.1 7.9,-1.2 15.9,-2.4 23.8,-4 306,-59.4 506,-355.6 446.6,-661.6 -59.4,-306 -355.6,-505.9 -661.6,-446.5 -119.5,23.2 -222.7,82.6 -300.7,164.4 -172.7,-233.2 -469.6,-359.9 -773.5,-300.9 -325.1,63.1 -563.1,320.2 -617.6,628 -127.8,-149 -329.7,-227 -536.1,-186.9 -306,59.3 -505.9,355.5 -446.5,661.5 59.4,306 355.6,506 661.6,446.6"
         style="fill:#a2c3f2;fill-opacity:1;fill-rule:nonzero;stroke:none"
         id="path16" />
      <path
         d="m 2710.77,17689.6 c 35.1,5.5 69.97,7.9 104.38,7.7 -7.27,25.3 -13.24,51.1 -17.44,77.7 -54.93,347.9 182.58,674.5 530.49,729.4 219.33,34.7 430.1,-47 569.75,-199.2 -1.6,309.7 223.04,582.7 538.38,632.5 347.91,54.9 674.47,-182.6 729.4,-530.5 10.03,-63.6 10.21,-126.4 1.84,-187 8.91,1.8 17.84,3.6 26.89,5 347.92,54.9 674.48,-182.6 729.41,-530.5 54.93,-347.9 -182.58,-674.5 -530.49,-729.4 -135.84,-21.5 -268.33,1.8 -382.76,58.7 -93.51,-314.3 -359.94,-563.4 -705.48,-617.9 -369.64,-58.4 -721.61,123 -898.14,428.8 -78.33,-207.4 -262.62,-368.2 -497.32,-405.2 -347.91,-54.9 -674.48,182.6 -729.4,530.5 -54.93,347.9 182.58,674.5 530.49,729.4"
         style="fill:#a2c3f2;fill-opacity:1;fill-rule:nonzero;stroke:none"
         id="path18" />
      <path
         d="M 26891.3,2994.7 C 26891.3,1740.4 21119.6,723.602 14000,723.602 6880.35,723.602 1108.73,1740.4 1108.73,2994.7 c 0,1254.3 5771.62,2271.1 12891.27,2271.1 7119.6,0 12891.3,-1016.8 12891.3,-2271.1"
         style="fill:#a2c3f2;fill-opacity:1;fill-rule:nonzero;stroke:none"
         id="path20" />
      <path
         d="m 2658.7,3772.9 c 0,0 -1547.8,2294.5 -1039.15,2682.2 508.65,387.8 2122.16,-1690.7 2122.16,-1690.7 0,0 -949.78,2098.2 -750.88,3293.6 198.91,1195.4 1736.2,-1606.3 2106.49,-2980.9 0,0 -93.42,1936.6 790.83,2724.7 884.26,788.2 559.9,-3167 559.9,-3167 0,0 555.28,2276.8 1158.56,2386.2 603.29,109.4 -180.88,-3230.2 -180.88,-3230.2 L 2658.7,3772.9"
         style="fill:#60bf60;fill-opacity:1;fill-rule:nonzero;stroke:none"
         id="path22" />
      <path
         d="m 3494.32,3761.2 c -2.93,0 -5.81,1.4 -7.62,4 L 1947.11,5978.1 c -2.92,4.2 -1.89,9.9 2.31,12.9 4.2,2.9 9.99,1.9 12.91,-2.4 l 1539.6,-2212.8 c 2.92,-4.2 1.89,-10 -2.32,-12.9 -1.61,-1.1 -3.46,-1.7 -5.29,-1.7"
         style="fill:#22a822;fill-opacity:1;fill-rule:nonzero;stroke:none"
         id="path24" />
      <path
         d="m 3495.64,3771.4 h 0.1 z m -1.32,-21.1 c -6.61,0 -12.8,3.3 -16.56,8.7 L 1938.17,5971.8 c -6.34,9.2 -4.09,21.7 5.03,28.1 4.4,3.1 9.75,4.2 15.04,3.3 5.32,-0.9 9.94,-3.9 13.03,-8.3 L 3510.86,3782 c 3.08,-4.4 4.25,-9.8 3.29,-15.1 -0.94,-5.3 -3.9,-9.9 -8.33,-13 -3.36,-2.3 -7.35,-3.6 -11.5,-3.6"
         style="fill:#22a822;fill-opacity:1;fill-rule:nonzero;stroke:none"
         id="path26" />
      <path
         d="m 4792.97,3771.7 c -3.79,0 -7.34,2.3 -8.71,6.1 L 3302.47,7847.3 c -1.76,4.8 0.72,10.1 5.54,11.9 4.8,1.7 10.13,-0.7 11.88,-5.5 L 4801.68,3784.1 c 1.75,-4.8 -0.73,-10.1 -5.54,-11.9 -1.05,-0.4 -2.12,-0.5 -3.17,-0.5"
         style="fill:#22a822;fill-opacity:1;fill-rule:nonzero;stroke:none"
         id="path28" />
      <path
         d="m 4794.49,3781.5 h 0.09 z m -1.52,-20.7 c -8.46,0 -16.07,5.3 -18.95,13.3 L 3292.24,7843.6 c -3.81,10.4 1.59,22 12.03,25.8 10.48,3.8 22.07,-1.6 25.85,-12 L 4811.91,3787.8 c 1.84,-5 1.6,-10.5 -0.67,-15.4 -2.28,-4.9 -6.32,-8.6 -11.38,-10.4 -2.23,-0.8 -4.55,-1.2 -6.89,-1.2"
         style="fill:#22a822;fill-opacity:1;fill-rule:nonzero;stroke:none"
         id="path30" />
      <path
         d="m 5520.74,3774.4 c -0.22,0 -0.44,0 -0.66,0 -5.11,0.4 -8.96,4.8 -8.6,9.9 104.25,1478.9 530.59,3521.3 534.88,3541.8 1.06,5 5.99,8.2 10.98,7.2 5.01,-1.1 8.22,-6 7.17,-11 -4.29,-20.5 -430.37,-2061.7 -534.53,-3539.3 -0.34,-4.9 -4.41,-8.6 -9.24,-8.6"
         style="fill:#5aa85a;fill-opacity:1;fill-rule:nonzero;stroke:none"
         id="path32" />
      <path
         d="m 6742.22,3774.4 c -0.63,0 -1.27,0.1 -1.92,0.2 -5.01,1 -8.22,6 -7.16,11 139.6,662.8 746.58,2785.6 752.7,2806.9 1.41,5 6.52,7.8 11.46,6.4 4.93,-1.4 7.78,-6.6 6.37,-11.5 -6.12,-21.3 -612.92,-2143.4 -752.38,-2805.6 -0.92,-4.4 -4.78,-7.4 -9.07,-7.4"
         style="fill:#5aa85a;fill-opacity:1;fill-rule:nonzero;stroke:none"
         id="path34" />
      <path
         d="m 25487,3772.9 c 0,0 1547.8,2294.5 1039.2,2682.2 -508.7,387.8 -2122.2,-1690.7 -2122.2,-1690.7 0,0 949.8,2098.2 750.9,3293.6 -198.9,1195.4 -1736.2,-1606.3 -2106.5,-2980.9 0,0 93.4,1936.6 -790.8,2724.7 -884.3,788.2 -559.9,-3167 -559.9,-3167 0,0 -555.3,2276.8 -1158.6,2386.2 -603.3,109.4 180.9,-3230.2 180.9,-3230.2 l 4767,-17.9"
         style="fill:#60bf60;fill-opacity:1;fill-rule:nonzero;stroke:none"
         id="path36" />
      <path
         d="m 24651.4,3761.2 c -1.8,0 -3.7,0.6 -5.3,1.7 -4.2,2.9 -5.2,8.7 -2.3,12.9 l 1539.6,2212.8 c 2.9,4.3 8.7,5.3 12.9,2.4 4.2,-3 5.2,-8.7 2.3,-12.9 L 24659,3765.2 c -1.8,-2.6 -4.7,-4 -7.6,-4"
         style="fill:#22a822;fill-opacity:1;fill-rule:nonzero;stroke:none"
         id="path38" />
      <path
         d="m 24651.4,3750.3 c -4.2,0 -8.2,1.3 -11.6,3.7 -4.3,3 -7.3,7.6 -8.2,12.9 -1,5.3 0.2,10.7 3.3,15.1 l 1539.5,2212.9 c 3.1,4.4 7.7,7.4 13.1,8.3 5.3,0.9 10.6,-0.2 15,-3.3 4.4,-3.1 7.4,-7.7 8.3,-13 1,-5.3 -0.2,-10.7 -3.3,-15.1 L 24667.9,3759 c -3.7,-5.4 -9.9,-8.7 -16.5,-8.7"
         style="fill:#22a822;fill-opacity:1;fill-rule:nonzero;stroke:none"
         id="path40" />
      <path
         d="m 23352.7,3771.7 c -1,0 -2.1,0.1 -3.1,0.5 -4.8,1.8 -7.3,7.1 -5.6,11.9 l 1481.8,4069.6 c 1.8,4.8 7.1,7.3 11.9,5.5 4.8,-1.8 7.3,-7.1 5.5,-11.9 L 23361.5,3777.8 c -1.4,-3.8 -5,-6.1 -8.8,-6.1"
         style="fill:#22a822;fill-opacity:1;fill-rule:nonzero;stroke:none"
         id="path42" />
      <path
         d="m 23352.7,3760.8 c -2.3,0 -4.6,0.4 -6.8,1.2 -10.5,3.8 -15.9,15.4 -12.1,25.8 l 1481.8,4069.6 c 1.8,5 5.5,9.1 10.4,11.4 4.9,2.2 10.4,2.5 15.4,0.6 10.5,-3.8 15.9,-15.4 12.1,-25.8 L 23371.7,3774.1 c -2.9,-8 -10.5,-13.3 -19,-13.3"
         style="fill:#22a822;fill-opacity:1;fill-rule:nonzero;stroke:none"
         id="path44" />
      <path
         d="m 22625,3774.4 c -4.9,0 -8.9,3.7 -9.3,8.6 -104.1,1477.6 -530.2,3518.8 -534.5,3539.3 -1.1,5 2.2,9.9 7.2,11 5,1 9.9,-2.2 11,-7.2 4.2,-20.5 430.6,-2062.9 534.8,-3541.8 0.4,-5.1 -3.5,-9.5 -8.6,-9.9 -0.2,0 -0.4,0 -0.6,0"
         style="fill:#5aa85a;fill-opacity:1;fill-rule:nonzero;stroke:none"
         id="path46" />
      <path
         d="m 21403.5,3774.4 c -4.3,0 -8.2,3 -9.1,7.4 -139.4,662.2 -746.2,2784.3 -752.4,2805.6 -1.4,4.9 1.5,10.1 6.4,11.5 4.9,1.4 10.1,-1.4 11.5,-6.4 6.1,-21.3 613.1,-2144.1 752.7,-2806.9 1,-5 -2.2,-10 -7.2,-11 -0.6,-0.1 -1.3,-0.2 -1.9,-0.2"
         style="fill:#5aa85a;fill-opacity:1;fill-rule:nonzero;stroke:none"
         id="path48" />
      <path
         d="m 23517.8,3761.2 h -1050.9 v 10434.9 h 1050.9 V 3761.2"
         style="fill:#606a97;fill-opacity:1;fill-rule:nonzero;stroke:none"
         id="path50" />
      <path
         d="M 22543.5,3761.2 H 4647.88 V 14196.1 H 22543.5 V 3761.2"
         style="fill:#99a7d8;fill-opacity:1;fill-rule:nonzero;stroke:none"
         id="path52" />
      <path
         d="M 7353.25,11616.8 H 5421.03 V 13549 h 1932.22 v -1932.2"
         style="fill:#ffffff;fill-opacity:1;fill-rule:nonzero;stroke:none"
         id="path54" />
      <path
         d="M 9756.11,11616.8 H 7823.89 V 13549 h 1932.22 v -1932.2"
         style="fill:#ffffff;fill-opacity:1;fill-rule:nonzero;stroke:none"
         id="path56" />
      <path
         d="M 12159,11616.8 H 10226.7 V 13549 H 12159 v -1932.2"
         style="fill:#ffffff;fill-opacity:1;fill-rule:nonzero;stroke:none"
         id="path58" />
      <path
         d="M 14561.8,11616.8 H 12629.6 V 13549 h 1932.2 v -1932.2"
         style="fill:#ffffff;fill-opacity:1;fill-rule:nonzero;stroke:none"
         id="path60" />
      <path
         d="M 16964.7,11616.8 H 15032.5 V 13549 h 1932.2 v -1932.2"
         style="fill:#ffffff;fill-opacity:1;fill-rule:nonzero;stroke:none"
         id="path62" />
      <path
         d="M 19367.5,11616.8 H 17435.3 V 13549 h 1932.2 v -1932.2"
         style="fill:#ffffff;fill-opacity:1;fill-rule:nonzero;stroke:none"
         id="path64" />
      <path
         d="M 21770.4,11616.8 H 19838.2 V 13549 h 1932.2 v -1932.2"
         style="fill:#ffffff;fill-opacity:1;fill-rule:nonzero;stroke:none"
         id="path66" />
      <path
         d="M 7353.25,9214 H 5421.03 v 1932.2 H 7353.25 V 9214"
         style="fill:#ffffff;fill-opacity:1;fill-rule:nonzero;stroke:none"
         id="path68" />
      <path
         d="M 9756.11,9214 H 7823.89 v 1932.2 H 9756.11 V 9214"
         style="fill:#ffffff;fill-opacity:1;fill-rule:nonzero;stroke:none"
         id="path70" />
      <path
         d="m 12159,9214 h -1932.3 v 1932.2 H 12159 V 9214"
         style="fill:#ffffff;fill-opacity:1;fill-rule:nonzero;stroke:none"
         id="path72" />
      <path
         d="m 14561.8,9214 h -1932.2 v 1932.2 h 1932.2 V 9214"
         style="fill:#ffffff;fill-opacity:1;fill-rule:nonzero;stroke:none"
         id="path74" />
      <path
         d="m 16964.7,9214 h -1932.2 v 1932.2 h 1932.2 V 9214"
         style="fill:#ffffff;fill-opacity:1;fill-rule:nonzero;stroke:none"
         id="path76" />
      <path
         d="m 19367.5,9214 h -1932.2 v 1932.2 h 1932.2 V 9214"
         style="fill:#ffffff;fill-opacity:1;fill-rule:nonzero;stroke:none"
         id="path78" />
      <path
         d="m 21770.4,9214 h -1932.2 v 1932.2 h 1932.2 V 9214"
         style="fill:#ffffff;fill-opacity:1;fill-rule:nonzero;stroke:none"
         id="path80" />
      <path
         d="M 7353.25,6811.1 H 5421.03 V 8743.3 H 7353.25 V 6811.1"
         style="fill:#ffffff;fill-opacity:1;fill-rule:nonzero;stroke:none"
         id="path82" />
      <path
         d="M 9756.11,6811.1 H 7823.89 V 8743.3 H 9756.11 V 6811.1"
         style="fill:#ffffff;fill-opacity:1;fill-rule:nonzero;stroke:none"
         id="path84" />
      <path
         d="M 12159,6811.1 H 10226.7 V 8743.3 H 12159 V 6811.1"
         style="fill:#ffffff;fill-opacity:1;fill-rule:nonzero;stroke:none"
         id="path86" />
      <path
         d="m 14561.8,6811.1 h -1932.2 v 1932.2 h 1932.2 V 6811.1"
         style="fill:#ffffff;fill-opacity:1;fill-rule:nonzero;stroke:none"
         id="path88" />
      <path
         d="m 16964.7,6811.1 h -1932.2 v 1932.2 h 1932.2 V 6811.1"
         style="fill:#ffffff;fill-opacity:1;fill-rule:nonzero;stroke:none"
         id="path90" />
      <path
         d="m 19367.5,6811.1 h -1932.2 v 1932.2 h 1932.2 V 6811.1"
         style="fill:#ffffff;fill-opacity:1;fill-rule:nonzero;stroke:none"
         id="path92" />
      <path
         d="m 21770.4,6811.1 h -1932.2 v 1932.2 h 1932.2 V 6811.1"
         style="fill:#ffffff;fill-opacity:1;fill-rule:nonzero;stroke:none"
         id="path94" />
      <path
         d="m 23517.8,14196.1 h -1050.9 v 1552.1 h 1050.9 v -1552.1"
         style="fill:#ea331b;fill-opacity:1;fill-rule:nonzero;stroke:none"
         id="path96" />
      <path
         d="M 7353.25,4408.2 H 5421.03 V 6340.5 H 7353.25 V 4408.2"
         style="fill:#ffffff;fill-opacity:1;fill-rule:nonzero;stroke:none"
         id="path98" />
      <path
         d="M 9756.11,4408.2 H 7823.89 V 6340.5 H 9756.11 V 4408.2"
         style="fill:#ffffff;fill-opacity:1;fill-rule:nonzero;stroke:none"
         id="path100" />
      <path
         d="M 12159,4408.2 H 10226.7 V 6340.5 H 12159 V 4408.2"
         style="fill:#ffffff;fill-opacity:1;fill-rule:nonzero;stroke:none"
         id="path102" />
      <path
         d="m 14561.8,4408.2 h -1932.2 v 1932.3 h 1932.2 V 4408.2"
         style="fill:#ffffff;fill-opacity:1;fill-rule:nonzero;stroke:none"
         id="path104" />
      <path
         d="m 16964.7,4408.2 h -1932.2 v 1932.3 h 1932.2 V 4408.2"
         style="fill:#ffffff;fill-opacity:1;fill-rule:nonzero;stroke:none"
         id="path106" />
      <path
         d="m 19367.5,4408.2 h -1932.2 v 1932.3 h 1932.2 V 4408.2"
         style="fill:#ffffff;fill-opacity:1;fill-rule:nonzero;stroke:none"
         id="path108" />
      <path
         d="m 21770.4,4408.2 h -1932.2 v 1932.3 h 1932.2 V 4408.2"
         style="fill:#ffffff;fill-opacity:1;fill-rule:nonzero;stroke:none"
         id="path110" />
      <path
         d="m 16800.9,10736.3 c -50.6,50.7 -133,50.7 -183.7,0 l -828.9,-828.9 -404.6,404.5 c -24.5,24.6 -57.2,38.1 -91.9,38.1 -34.7,0 -67.3,-13.5 -91.9,-38.1 -24.5,-24.5 -38,-57.2 -38,-91.9 0,-34.7 13.5,-67.3 38,-91.8 l 496.5,-496.5 c 24.5,-24.5 57.1,-38 91.9,-38 34.7,0 67.3,13.5 91.8,38 l 920.8,920.8 c 24.6,24.6 38.1,57.2 38.1,91.9 0,34.8 -13.5,67.4 -38.1,91.9"
         style="fill:#ff593a;fill-opacity:1;fill-rule:nonzero;stroke:none"
         id="path112" />
      <path
         d="m 14436.2,8329.5 c -50.6,50.7 -133.1,50.7 -183.7,0 l -829,-828.9 -404.5,404.5 c -50.7,50.7 -133.1,50.7 -183.8,0 -24.5,-24.5 -38,-57.2 -38,-91.9 0,-34.7 13.5,-67.3 38,-91.9 l 496.5,-496.4 c 24.5,-24.5 57.1,-38 91.8,-38 34.7,0 67.4,13.5 91.9,38 l 920.8,920.8 c 24.6,24.6 38.1,57.2 38.1,91.9 0,34.7 -13.5,67.4 -38.1,91.9"
         style="fill:#60bf60;fill-opacity:1;fill-rule:nonzero;stroke:none"
         id="path114" />
      <path
         d="M 22543.5,14196.1 H 4647.88 v 1552.1 H 22543.5 v -1552.1"
         style="fill:#ff593a;fill-opacity:1;fill-rule:nonzero;stroke:none"
         id="path116" />
      <path
         d="m 6148.24,14723.6 c -478.25,111.5 -832.25,550.1 -812.25,1066.2 21.16,545.9 463.63,988.4 1009.6,1009.5 598.9,23.2 1093.52,-457.3 1093.52,-1051.1 h -389.69 c 0,375.6 -314.4,679.3 -693.9,661.5 -338.96,-15.8 -614.04,-290.9 -629.91,-629.8 -15.36,-328 209.25,-607.3 512.96,-677.2 87.5,-20.1 148.57,-99.5 148.57,-189.3 v 0 c 0,-125.3 -116.78,-218.3 -238.9,-189.8"
         style="fill:#ffb12a;fill-opacity:1;fill-rule:nonzero;stroke:none"
         id="path118" />
      <path
         d="m 8551.1,14723.6 c -478.26,111.5 -832.26,550.1 -812.25,1066.2 21.16,545.9 463.63,988.4 1009.59,1009.5 598.91,23.2 1093.52,-457.3 1093.52,-1051.1 h -389.68 c 0,375.6 -314.41,679.3 -693.9,661.5 -338.96,-15.8 -614.04,-290.9 -629.91,-629.8 -15.36,-328 209.24,-607.3 512.95,-677.2 87.5,-20.1 148.58,-99.5 148.58,-189.3 v 0 c 0,-125.3 -116.78,-218.3 -238.9,-189.8"
         style="fill:#ffb12a;fill-opacity:1;fill-rule:nonzero;stroke:none"
         id="path120" />
      <path
         d="m 10954,14723.6 c -478.3,111.5 -832.3,550.1 -812.3,1066.2 21.2,545.9 463.6,988.4 1009.6,1009.5 598.9,23.2 1093.5,-457.3 1093.5,-1051.1 h -389.7 c 0,375.6 -314.4,679.3 -693.9,661.5 -338.9,-15.8 -614,-290.9 -629.9,-629.8 -15.3,-328 209.3,-607.3 513,-677.2 87.5,-20.1 148.6,-99.5 148.6,-189.3 v 0 c 0,-125.3 -116.8,-218.3 -238.9,-189.8"
         style="fill:#ffb12a;fill-opacity:1;fill-rule:nonzero;stroke:none"
         id="path122" />
      <path
         d="m 13356.8,14723.6 c -478.2,111.5 -832.2,550.1 -812.2,1066.2 21.1,545.9 463.6,988.4 1009.6,1009.5 598.9,23.2 1093.5,-457.3 1093.5,-1051.1 H 14258 c 0,375.7 -314.4,679.3 -693.9,661.5 -339,-15.8 -614,-290.9 -629.9,-629.9 -15.4,-327.9 209.2,-607.2 512.9,-677.1 87.5,-20.1 148.6,-99.5 148.6,-189.3 v 0 c 0,-125.3 -116.8,-218.3 -238.9,-189.8"
         style="fill:#ffb12a;fill-opacity:1;fill-rule:nonzero;stroke:none"
         id="path124" />
      <path
         d="m 15759.7,14723.6 c -478.3,111.5 -832.3,550.1 -812.3,1066.2 21.2,545.9 463.7,988.4 1009.6,1009.5 598.9,23.2 1093.5,-457.3 1093.5,-1051.1 h -389.7 c 0,375.7 -314.4,679.3 -693.9,661.5 -338.9,-15.8 -614,-290.9 -629.9,-629.9 -15.3,-327.9 209.3,-607.2 513,-677.1 87.5,-20.1 148.6,-99.5 148.6,-189.3 v 0 c 0,-125.3 -116.8,-218.3 -238.9,-189.8"
         style="fill:#ffb12a;fill-opacity:1;fill-rule:nonzero;stroke:none"
         id="path126" />
      <path
         d="m 18162.5,14723.6 c -478.2,111.5 -832.2,550.1 -812.2,1066.2 21.1,545.9 463.6,988.4 1009.6,1009.5 598.9,23.2 1093.5,-457.3 1093.5,-1051.1 h -389.7 c 0,375.6 -314.4,679.2 -693.9,661.5 -338.9,-15.8 -614,-290.9 -629.9,-629.8 -15.4,-328 209.2,-607.3 513,-677.2 87.5,-20.1 148.5,-99.5 148.5,-189.3 v 0 c 0,-125.3 -116.8,-218.3 -238.9,-189.8"
         style="fill:#ffb12a;fill-opacity:1;fill-rule:nonzero;stroke:none"
         id="path128" />
      <path
         d="m 20565.4,14723.6 c -478.3,111.5 -832.3,550.1 -812.3,1066.2 21.2,545.9 463.7,988.4 1009.6,1009.5 598.9,23.2 1093.6,-457.3 1093.6,-1051.1 h -389.7 c 0,375.7 -314.4,679.3 -693.9,661.5 -339,-15.8 -614.1,-290.9 -629.9,-629.9 -15.4,-327.9 209.2,-607.2 512.9,-677.1 87.5,-20.1 148.6,-99.5 148.6,-189.3 v 0 c 0,-125.3 -116.8,-218.3 -238.9,-189.8"
         style="fill:#ffb12a;fill-opacity:1;fill-rule:nonzero;stroke:none"
         id="path130" />
      <path
         d="m 14071.7,11857.3 -473.9,247.1 -472.2,-250.2 88.6,527.1 -383.9,371.8 528.6,78.5 235,480 238.1,-478.4 529.1,-75.2 -381.5,-374.3 92.1,-526.4"
         style="fill:#ffb12a;fill-opacity:1;fill-rule:nonzero;stroke:none"
         id="path132" />
      <path
         d="m 11376.6,7737.1 440,440 c 24.6,24.6 38.1,57.2 38.1,91.9 0,34.7 -13.5,67.4 -38.1,91.9 -50.6,50.7 -133.1,50.7 -183.7,0 l -440,-440 -440.1,440 c -50.6,50.7 -133.1,50.7 -183.7,0 -24.6,-24.5 -38.1,-57.2 -38.1,-91.9 0,-34.7 13.5,-67.3 38.1,-91.9 l 440,-440 -440,-440 c -24.6,-24.5 -38.1,-57.2 -38.1,-91.9 0,-34.7 13.5,-67.3 38.1,-91.9 24.5,-24.5 57.2,-38 91.9,-38 34.7,0 67.3,13.5 91.8,38 l 440.1,440 440,-440 c 24.5,-24.5 57.2,-38 91.9,-38 34.7,0 67.3,13.5 91.8,38 24.6,24.6 38.1,57.2 38.1,91.9 0,34.7 -13.5,67.4 -38.1,91.9 l -440,440"
         style="fill:#ff593a;fill-opacity:1;fill-rule:nonzero;stroke:none"
         id="path134" />
      <path
         d="m 20988.1,12582.9 440,440 c 24.5,24.6 38,57.2 38,91.9 0,34.8 -13.5,67.4 -38,91.9 -50.7,50.7 -133.1,50.7 -183.8,0 l -440,-440 -440,440 c -24.6,24.6 -57.2,38.1 -91.9,38.1 -34.7,0 -67.4,-13.5 -91.9,-38.1 -24.5,-24.5 -38.1,-57.1 -38.1,-91.9 0,-34.7 13.6,-67.3 38.1,-91.9 l 440,-440 -440,-440 c -24.5,-24.5 -38.1,-57.1 -38.1,-91.9 0,-34.7 13.6,-67.3 38.1,-91.8 24.5,-24.6 57.2,-38.1 91.9,-38.1 34.7,0 67.3,13.5 91.9,38.1 l 440,440 440,-440 c 24.6,-24.6 57.2,-38.1 91.9,-38.1 34.7,0 67.3,13.5 91.9,38 24.5,24.6 38,57.2 38,91.9 0,34.8 -13.5,67.4 -38,91.9 l -440,440"
         style="fill:#60bf60;fill-opacity:1;fill-rule:nonzero;stroke:none"
         id="path136" />
      <path
         d="m 15998.6,5000.4 c -206.6,0 -374,167.4 -374,374 0,206.5 167.4,373.9 374,373.9 206.5,0 373.9,-167.4 373.9,-373.9 0,-206.6 -167.4,-374 -373.9,-374 z m 705.8,482.5 h -143 c -5.2,27 -12.3,53.3 -21.1,78.8 l 123.8,71.5 c 29.6,17.1 39.7,54.9 22.6,84.4 l -46.8,81.1 c -17,29.5 -54.8,39.7 -84.3,22.6 l -124,-71.6 c -17.9,20.6 -37.1,39.8 -57.7,57.6 l 71.6,124 c 17.1,29.6 7,67.3 -22.6,84.4 l -81.1,46.8 c -29.5,17.1 -67.3,7 -84.3,-22.6 l -71.6,-123.9 c -25.5,8.9 -51.8,16 -78.7,21.1 v 143.1 c 0,34.1 -27.7,61.7 -61.8,61.7 h -93.7 c -34.1,0 -61.7,-27.6 -61.7,-61.7 v -143.1 c -27,-5.1 -53.3,-12.2 -78.8,-21.1 l -71.5,123.9 c -17.1,29.6 -54.8,39.7 -84.4,22.6 l -81.1,-46.8 c -29.5,-17.1 -39.6,-54.8 -22.6,-84.4 l 71.6,-124 c -20.5,-17.8 -39.8,-37 -57.6,-57.6 l -124,71.6 c -29.5,17.1 -67.3,6.9 -84.4,-22.6 l -46.8,-81.1 c -17,-29.5 -6.9,-67.3 22.6,-84.4 l 123.9,-71.5 c -8.8,-25.5 -15.9,-51.8 -21.1,-78.8 h -143.1 c -34.1,0 -61.7,-27.6 -61.7,-61.7 v -93.7 c 0,-34.1 27.6,-61.7 61.7,-61.7 h 143.1 c 5.2,-27 12.3,-53.3 21.1,-78.8 l -123.9,-71.5 c -29.5,-17.1 -39.6,-54.8 -22.6,-84.4 l 46.8,-81.1 c 17.1,-29.5 54.9,-39.7 84.4,-22.6 l 124,71.6 c 17.8,-20.6 37.1,-39.8 57.6,-57.6 l -71.6,-124 c -17,-29.6 -6.9,-67.3 22.6,-84.4 l 81.1,-46.8 c 29.6,-17.1 67.3,-6.9 84.4,22.6 l 71.5,123.9 c 25.5,-8.9 51.8,-15.9 78.8,-21.1 v -143.1 c 0,-34.1 27.6,-61.7 61.7,-61.7 h 93.7 c 34.1,0 61.8,27.6 61.8,61.7 v 143.1 c 26.9,5.2 53.2,12.2 78.7,21.1 l 71.6,-123.9 c 17,-29.5 54.8,-39.7 84.3,-22.6 l 81.1,46.8 c 29.6,17.1 39.7,54.8 22.6,84.4 l -71.6,124 c 20.6,17.8 39.8,37 57.7,57.6 l 124,-71.6 c 29.5,-17.1 67.3,-6.9 84.3,22.6 l 46.8,81.1 c 17.1,29.6 7,67.3 -22.6,84.4 l -123.8,71.5 c 8.8,25.5 15.9,51.8 21.1,78.8 h 143 c 34.1,0 61.8,27.6 61.8,61.7 v 93.7 c 0,34.1 -27.7,61.7 -61.8,61.7"
         style="fill:#3e8edd;fill-opacity:1;fill-rule:nonzero;stroke:none"
         id="path138" />
      <path
         d="M 6963.56,13046.9 H 5810.72 c -62.09,0 -112.42,50.4 -112.42,112.5 0,62 50.33,112.4 112.42,112.4 h 1152.84 c 62.09,0 112.42,-50.4 112.42,-112.4 0,-62.1 -50.33,-112.5 -112.42,-112.5"
         style="fill:#3e8edd;fill-opacity:1;fill-rule:nonzero;stroke:none"
         id="path140" />
      <path
         d="M 6963.56,12657.3 H 5810.72 c -62.09,0 -112.42,50.3 -112.42,112.4 0,62.1 50.33,112.4 112.42,112.4 h 1152.84 c 62.09,0 112.42,-50.3 112.42,-112.4 0,-62.1 -50.33,-112.4 -112.42,-112.4"
         style="fill:#3e8edd;fill-opacity:1;fill-rule:nonzero;stroke:none"
         id="path142" />
      <path
         d="M 6963.56,12267.6 H 5810.72 c -62.09,0 -112.42,50.3 -112.42,112.4 0,62.1 50.33,112.4 112.42,112.4 h 1152.84 c 62.09,0 112.42,-50.3 112.42,-112.4 0,-62.1 -50.33,-112.4 -112.42,-112.4"
         style="fill:#3e8edd;fill-opacity:1;fill-rule:nonzero;stroke:none"
         id="path144" />
      <path
         d="M 6963.56,11877.9 H 5810.72 c -62.09,0 -112.42,50.3 -112.42,112.4 0,62.1 50.33,112.4 112.42,112.4 h 1152.84 c 62.09,0 112.42,-50.3 112.42,-112.4 0,-62.1 -50.33,-112.4 -112.42,-112.4"
         style="fill:#3e8edd;fill-opacity:1;fill-rule:nonzero;stroke:none"
         id="path146" />
      <path
         d="m 22863.4,3712.5 c -26.9,0 -48.8,21.8 -48.8,48.7 v 10434.9 c 0,26.9 21.9,48.7 48.8,48.7 26.9,0 48.7,-21.8 48.7,-48.7 V 3761.2 c 0,-26.9 -21.8,-48.7 -48.7,-48.7"
         style="fill:#394572;fill-opacity:1;fill-rule:nonzero;stroke:none"
         id="path148" />
      <path
         d="m 23190.6,3712.5 c -26.9,0 -48.8,21.8 -48.8,48.7 v 10434.9 c 0,26.9 21.9,48.7 48.8,48.7 26.9,0 48.7,-21.8 48.7,-48.7 V 3761.2 c 0,-26.9 -21.8,-48.7 -48.7,-48.7"
         style="fill:#394572;fill-opacity:1;fill-rule:nonzero;stroke:none"
         id="path150" />
      <path
         d="m 23337,10738.7 h -522.4 v 1940.1 h 522.4 v -1940.1"
         style="fill:#ff593a;fill-opacity:1;fill-rule:nonzero;stroke:none"
         id="path152" />
      <path
         d="m 24014.9,8243.9 h -873.1 V 10184 h 873.1 V 8243.9"
         style="fill:#3e8edd;fill-opacity:1;fill-rule:nonzero;stroke:none"
         id="path154" />
      <path
         d="M 23903.1,6395.7 H 23030 v 1014.9 h 873.1 V 6395.7"
         style="fill:#ffb12a;fill-opacity:1;fill-rule:nonzero;stroke:none"
         id="path156" />
      <path
         d="m 8042.7,10076.3 c 0,0 285.94,-2.3 464.04,-225.8 0,0 -283.34,-70.9 -464.04,225.8"
         style="fill:#305777;fill-opacity:1;fill-rule:nonzero;stroke:none"
         id="path158" />
      <path
         d="m 5596.56,10400 c 0,0 -154.14,-147.7 -222.96,-470.1 -49.83,-233.3 -210.48,-632.2 -267.57,-858.2 -230.67,-913.2 165.64,-1306.5 1295.98,-1086.6 533.97,103.9 509.4,608.3 440.45,888.5 -90.19,366.5 -310.82,679.8 -286.76,1092.8 0,0 -145.31,340.2 -365.64,372.1 -220.33,31.9 -593.5,61.5 -593.5,61.5"
         style="fill:#b74f2a;fill-opacity:1;fill-rule:nonzero;stroke:none"
         id="path160" />
      <path
         d="m 5861.3,9640.4 23.77,-647 412.76,15.1 -23.78,647.1 -412.75,-15.2"
         style="fill:#f69d85;fill-opacity:1;fill-rule:nonzero;stroke:none"
         id="path162" />
      <path
         d="m 5990.86,9293.1 c 0,0 130.88,-98.2 298.87,-64.3 l -8.27,225.3 -290.6,-161"
         style="fill:#d1836b;fill-opacity:1;fill-rule:nonzero;stroke:none"
         id="path164" />
      <path
         d="m 6189.62,9282.1 h 0.01 c 234.48,50.5 383.62,281.6 333.12,516 l -47.47,220.4 c -50.5,234.5 -281.53,383.7 -516.01,333.1 v 0 c -234.48,-50.4 -383.63,-281.5 -333.12,-516 l 47.46,-220.4 c 50.51,-234.4 281.53,-383.6 516.01,-333.1"
         style="fill:#f69d85;fill-opacity:1;fill-rule:nonzero;stroke:none"
         id="path166" />
      <path
         d="m 6104.46,6651.7 c 381.24,14.1 944.16,139.1 776.56,657 -86.07,265.9 -194.66,625.8 -134.93,1110 46.71,378.6 -260.47,757.7 -648.44,755.6 l -25.05,-0.9 c -371.83,-19.6 -540.88,-397.3 -487.68,-775.1 68.56,-486.9 -32.68,-831 -125.35,-1079.9 -254.04,-682.4 644.89,-666.7 644.89,-666.7"
         style="fill:#f69d85;fill-opacity:1;fill-rule:nonzero;stroke:none"
         id="path168" />
      <path
         d="m 6213.9,8793 c -18.58,139.6 79.54,267.9 219.17,286.5 l 1142.42,152 627.55,967.8 c 43.78,67.7 131.8,94.6 207.02,59.7 82.37,-38.2 118.2,-135.9 80.04,-218.2 l -542.08,-1170 c -31.26,-66.1 -95,-116.9 -172.91,-127.3 L 6500.37,8573.8 c -139.62,-18.5 -267.88,79.6 -286.47,219.2"
         style="fill:#f69d85;fill-opacity:1;fill-rule:nonzero;stroke:none"
         id="path170" />
      <path
         d="m 6002.78,9840.6 c 6.81,-31.7 -0.76,-60.2 -16.91,-63.6 -16.14,-3.5 -34.75,19.4 -41.56,51 -6.8,31.7 0.77,60.2 16.92,63.7 16.14,3.4 34.75,-19.4 41.55,-51.1"
         style="fill:#30313c;fill-opacity:1;fill-rule:nonzero;stroke:none"
         id="path172" />
      <path
         d="m 6292.86,9144.2 c 0,0 453.98,96.7 1230.5,129.1 0,0 319.21,528.9 519.34,803 0,0 175.89,-211 464.04,-225.8 0,0 -341.17,-1026.8 -627.18,-1144.6 -286,-117.9 -1109.28,-234.6 -1109.28,-234.6 l -477.42,672.9"
         style="fill:#3e8edd;fill-opacity:1;fill-rule:nonzero;stroke:none"
         id="path174" />
      <path
         d="m 6259.15,9895.7 c 6.8,-31.7 -0.77,-60.2 -16.92,-63.6 -16.14,-3.5 -34.75,19.4 -41.55,51 -6.81,31.7 0.76,60.2 16.91,63.7 16.14,3.4 34.75,-19.4 41.56,-51.1"
         style="fill:#30313c;fill-opacity:1;fill-rule:nonzero;stroke:none"
         id="path176" />
      <path
         d="m 5843.98,9688 c 1.22,-23.1 22.78,-40.8 48.15,-39.5 25.37,1.4 44.95,21.2 43.72,44.4 -1.22,23.1 -22.78,40.8 -48.15,39.5 -25.37,-1.4 -44.95,-21.2 -43.72,-44.4"
         style="fill:#e58a76;fill-opacity:1;fill-rule:nonzero;stroke:none"
         id="path178" />
      <path
         d="m 6325.53,9772.2 c 1.22,-23.1 22.78,-40.8 48.15,-39.5 25.37,1.4 44.95,21.2 43.73,44.4 -1.23,23.1 -22.79,40.8 -48.16,39.5 -25.37,-1.4 -44.94,-21.2 -43.72,-44.4"
         style="fill:#e58a76;fill-opacity:1;fill-rule:nonzero;stroke:none"
         id="path180" />
      <path
         d="m 6292.86,9144.2 c 0,0 207.68,-38.3 420.39,-337.5 58.31,-82 192.63,-301.8 197.45,-433.1 5.25,-142.7 -137.37,-229.1 -127.87,-487.5 9.41,-256.3 202.92,-413.7 98.19,-577.4 -61.61,-96.3 -1017.33,-259.5 -1429.32,-15 -229.21,136 146.58,444 32.93,1146.7 -86.54,535.1 207.34,631.7 395.19,688.7 0,0 161,-403.2 302.75,-390.8 145.52,12.8 110.29,405.9 110.29,405.9"
         style="fill:#3e8edd;fill-opacity:1;fill-rule:nonzero;stroke:none"
         id="path182" />
      <path
         d="m 5519.09,9675.5 c 13.41,-62.3 74.78,-101.9 137.07,-88.5 62.29,13.4 101.9,74.8 88.49,137.1 -13.42,62.2 -74.78,101.9 -137.07,88.4 -62.29,-13.4 -101.91,-74.7 -88.49,-137"
         style="fill:#f69d85;fill-opacity:1;fill-rule:nonzero;stroke:none"
         id="path184" />
      <path
         d="m 6109.87,10468.5 c 0,0 185.76,99.3 353.01,-62.5 146.29,-141.6 126.4,-326.7 79.96,-503.7 0,0 -332.7,314.7 -432.97,566.2"
         style="fill:#b74f2a;fill-opacity:1;fill-rule:nonzero;stroke:none"
         id="path186" />
      <path
         d="m 6394.75,9844.5 c 13.42,-62.3 74.79,-101.9 137.07,-88.5 62.29,13.4 101.91,74.8 88.5,137.1 -13.42,62.3 -74.79,101.9 -137.08,88.5 -62.28,-13.4 -101.9,-74.8 -88.49,-137.1"
         style="fill:#f69d85;fill-opacity:1;fill-rule:nonzero;stroke:none"
         id="path188" />
      <path
         d="m 6099.11,9571.4 c 5.31,-31.1 38.73,-51.3 74.68,-45.1 35.87,6.1 60.68,36.3 55.37,67.3 -1.2,7.1 -3.89,13.6 -7.69,19.3 -12.96,19.6 -39.2,30.6 -66.99,25.9 -24.26,-4.2 -43.45,-19.4 -51.71,-38.4 -3.97,-9.1 -5.35,-19 -3.66,-29"
         style="fill:#d1836b;fill-opacity:1;fill-rule:nonzero;stroke:none"
         id="path190" />
      <path
         d="m 6102.77,9600.4 c 82.02,-21.2 118.69,12.4 118.69,12.4 l 0.01,0.1 c -12.96,19.6 -39.2,30.6 -66.99,25.9 -24.26,-4.2 -43.45,-19.4 -51.71,-38.4"
         style="fill:#ffffff;fill-opacity:1;fill-rule:nonzero;stroke:none"
         id="path192" />
      <path
         d="m 6524.04,9803.3 c 3.11,1.2 4.96,4.5 4.21,7.8 -7.52,33.2 10.77,43.1 28.46,52.7 10.56,5.7 20.53,11.1 23.51,21.3 1.85,6.3 0.59,13.3 -3.84,21.3 -24.8,44.8 -81.49,35.1 -83.9,34.7 -3.66,-0.7 -6.1,-4.2 -5.44,-7.9 0.66,-3.6 4.17,-6.1 7.84,-5.4 2.02,0.3 49.6,8.3 69.69,-28 2.55,-4.6 3.45,-8.3 2.68,-10.9 -1.4,-4.8 -8.97,-8.9 -16.99,-13.2 -17.91,-9.7 -44.97,-24.4 -35.2,-67.6 0.83,-3.6 4.45,-5.9 8.09,-5.1 0.31,0.1 0.6,0.2 0.89,0.3"
         style="fill:#af5945;fill-opacity:1;fill-rule:nonzero;stroke:none"
         id="path194" />
      <path
         d="m 5646.79,9635 c 2.73,1 4.58,3.7 4.37,6.8 -3.09,44.1 -33.24,50.4 -53.18,54.5 -8.94,1.8 -17.37,3.6 -20.09,7.7 -1.5,2.4 -1.7,6.1 -0.59,11.3 8.82,40.7 58.16,46.8 58.66,46.8 3.7,0.5 6.37,3.8 5.95,7.5 -0.42,3.7 -3.77,6.4 -7.48,6 -2.42,-0.3 -59.5,-7.4 -70.33,-57.4 -1.93,-9 -1.12,-16 2.47,-21.5 5.78,-8.9 16.9,-11.2 28.66,-13.7 19.7,-4 40.07,-8.2 42.44,-42.2 0.27,-3.7 3.49,-6.5 7.22,-6.2 0.67,0 1.31,0.2 1.9,0.4"
         style="fill:#af5945;fill-opacity:1;fill-rule:nonzero;stroke:none"
         id="path196" />
      <path
         d="m 6284.17,10367.8 c 0,0 -50.46,-248.1 -283.47,-292.1 -273.63,-51.6 -329.37,-419.6 -329.37,-419.6 0,0 -201.9,237.4 -187.09,433.7 33.88,448.9 462.42,628.8 799.93,278"
         style="fill:#b74f2a;fill-opacity:1;fill-rule:nonzero;stroke:none"
         id="path198" />
      <path
         d="m 6272.93,10017.6 c 1.39,0.5 2.69,1.3 3.83,2.4 4.52,4.4 4.71,11.5 0.4,16 -1.32,1.4 -32.97,34.2 -74.65,32.9 -24.69,-0.9 -47.19,-13.2 -66.88,-36.9 -4,-4.8 -3.36,-12 1.46,-16 4.81,-4 11.96,-3.3 15.97,1.5 15.32,18.4 32.17,28 50.05,28.7 31.43,1.1 57.37,-25.5 57.63,-25.8 3.24,-3.4 8.07,-4.3 12.19,-2.8"
         style="fill:#af5945;fill-opacity:1;fill-rule:nonzero;stroke:none"
         id="path200" />
      <path
         d="m 6013.89,9983.9 c 1.88,0.7 3.6,1.9 4.93,3.6 3.84,4.9 3.01,12 -1.9,15.9 -1.22,1 -30.45,23.6 -66.84,16.7 -25.83,-5 -48.05,-23.1 -66.04,-54.1 -3.15,-5.4 -1.31,-12.4 4.11,-15.5 5.41,-3.1 12.34,-1.3 15.5,4.1 14.49,24.9 31.49,39.5 50.46,43.1 26.14,5.1 48.59,-12 48.81,-12.2 3.23,-2.5 7.4,-2.9 10.97,-1.6"
         style="fill:#af5945;fill-opacity:1;fill-rule:nonzero;stroke:none"
         id="path202" />
      <path
         d="m 6148.08,9682.5 c 0.32,0.2 0.64,0.3 0.95,0.5 5.53,3.1 53.67,31.3 42.94,58.2 -9.07,22.8 -76.47,116.7 -79.34,120.7 -2.18,3 -6.39,3.7 -9.43,1.5 -3.02,-2.2 -3.71,-6.4 -1.54,-9.4 19.25,-26.8 70.73,-100.1 77.75,-117.8 5.05,-12.6 -22.76,-33.4 -37.02,-41.5 -3.25,-1.8 -4.4,-5.9 -2.56,-9.2 1.66,-2.9 5.18,-4.1 8.25,-3"
         style="fill:#af5945;fill-opacity:1;fill-rule:nonzero;stroke:none"
         id="path204" />
      <path
         d="m 6670.25,8065.6 c 104.26,20.8 165.57,76.3 168.85,79.4 2.74,2.5 2.91,6.8 0.38,9.5 -2.54,2.7 -6.83,2.9 -9.55,0.4 -0.99,-0.9 -101.72,-91.9 -261.67,-83 -3.67,0.2 -6.91,-2.6 -7.12,-6.4 -0.2,-3.7 2.65,-6.9 6.37,-7.1 37.7,-2.1 72.09,1 102.74,7.2"
         style="fill:#dbbfb2;fill-opacity:1;fill-rule:nonzero;stroke:none"
         id="path206" />
      <path
         d="m 6108.78,8038.3 c 11.4,2.3 17.59,4 17.91,4.1 3.59,1 5.68,4.7 4.66,8.3 -1.01,3.6 -4.75,5.7 -8.33,4.7 -1.69,-0.5 -174.09,-47.5 -409.69,21.4 -3.6,1 -7.33,-1 -8.38,-4.6 -1.05,-3.6 1,-7.3 4.58,-8.4 195.55,-57.1 348.64,-35.6 399.25,-25.5"
         style="fill:#305777;fill-opacity:1;fill-rule:nonzero;stroke:none"
         id="path208" />
      <path
         d="m 6886.1,8481.9 c 0.54,0.1 1.08,0.2 1.6,0.5 3.37,1.6 4.79,5.6 3.18,9 -0.7,1.5 -71.28,147.6 -195.15,283.8 -2.51,2.8 -6.8,3 -9.55,0.5 -2.76,-2.5 -2.96,-6.8 -0.45,-9.6 122.55,-134.7 192.27,-279.1 192.96,-280.5 1.36,-2.9 4.45,-4.3 7.41,-3.7"
         style="fill:#305777;fill-opacity:1;fill-rule:nonzero;stroke:none"
         id="path210" />
      <path
         d="m 8465.13,9721.9 c 2.95,0.6 5.24,3.1 5.42,6.3 0.21,3.7 -2.65,6.9 -6.37,7.1 -3.22,0.2 -323.07,20.4 -489.16,241.6 -2.24,3 -6.46,3.6 -9.46,1.4 -2.98,-2.3 -3.58,-6.5 -1.34,-9.5 169.91,-226.3 495.93,-246.8 499.21,-247 0.58,0 1.15,0 1.7,0.1"
         style="fill:#305777;fill-opacity:1;fill-rule:nonzero;stroke:none"
         id="path212" />
      <path
         d="m 6287.05,6662 -403.81,-1951.5 -9.16,-44.3 c -1.71,-8.3 -4.39,-17 -7.32,-24.6 L 5155.24,2831.2 c -51.42,-130.8 -199.14,-195.1 -329.96,-143.7 -130.81,51.4 -195.21,199 -143.79,329.8 L 5392.38,4828 5349.7,6751.8 c -3.44,261.5 202.64,379.5 464.19,383 261.55,3.4 479.51,-109 482.95,-370.6 0.45,-34.1 -3.34,-70 -9.79,-102.2"
         style="fill:#f69d85;fill-opacity:1;fill-rule:nonzero;stroke:none"
         id="path214" />
      <path
         d="m 6877.16,6711.4 77.19,-1991.4 1.75,-45.2 c 0.33,-8.4 -0.17,-17.5 -1.19,-25.6 L 6699.47,2720.8 c -18.46,-139.3 -146.38,-237.3 -285.72,-218.8 -139.33,18.4 -237.34,146.3 -218.88,285.6 L 6449.64,4716 5945.72,6573.1 c -66.21,253.1 85.25,511.9 338.3,578.1 253.05,66.2 511.86,-85.2 578.07,-338.3 8.65,-33 13.59,-68.7 15.07,-101.5"
         style="fill:#f69d85;fill-opacity:1;fill-rule:nonzero;stroke:none"
         id="path216" />
      <path
         d="m 6734.19,7241.1 c 0,0 393.37,-815.6 537.47,-2200.6 64.45,-619.5 -226.7,-2000.7 -226.7,-2000.7 0,0 -578.56,-154.5 -1074.34,41 l 229.13,1597.7 c 0,0 -81.58,897.3 -245.45,1344.1 -163.87,446.7 -120.65,1172.6 -120.65,1172.6 425.01,-35.6 900.54,45.9 900.54,45.9"
         style="fill:#30313c;fill-opacity:1;fill-rule:nonzero;stroke:none"
         id="path218" />
      <path
         d="m 7163.55,2105.1 -613.7,7.5 -128.7,275.7 -55.63,-273.3 -177.24,2.1 c -161.58,339 11.86,762.1 11.86,762.1 0,0 256.56,-52.3 564.88,-9.5 l -7.23,-275 457.68,-333.5 c 68.01,-49.5 32.22,-157.2 -51.92,-156.1"
         style="fill:#404d7f;fill-opacity:1;fill-rule:nonzero;stroke:none"
         id="path220" />
      <path
         d="m 6277.48,2580.8 c -5.09,0 -10.19,-0.9 -15.03,-2.9 -9.58,-4 -17.04,-11.4 -21.02,-21 -3.98,-9.5 -4.01,-20 -0.07,-29.6 3.94,-9.6 11.37,-17.1 20.93,-21 9.55,-4 20.09,-4 29.66,-0.1 19.76,8.1 29.22,30.8 21.08,50.6 -3.94,9.6 -11.37,17 -20.92,21 -4.72,2 -9.67,3 -14.63,3 z m -0.65,-91 c -6.69,0 -13.37,1.4 -19.72,4 -12.89,5.4 -22.9,15.4 -28.21,28.4 -5.32,12.9 -5.29,27.1 0.08,39.9 5.37,12.9 15.43,22.9 28.34,28.2 12.89,5.4 27.1,5.3 39.97,0 12.88,-5.4 22.9,-15.5 28.21,-28.4 v 0 c 10.97,-26.6 -1.78,-57.2 -28.41,-68.2 -6.54,-2.7 -13.41,-4 -20.26,-3.9"
         style="fill:#606a97;fill-opacity:1;fill-rule:nonzero;stroke:none"
         id="path222" />
      <path
         d="m 6417.64,7202.5 c 0,0 43.75,-878.1 -149.33,-2257.1 -86.36,-616.9 -701.05,-1887.6 -701.05,-1887.6 0,0 -598.72,-10.9 -1032.96,298 l 606.49,1495.8 c 0,0 -37.76,884 -34.22,1376.6 5.32,739.7 380.32,1062.3 380.32,1062.3 403.98,-136.8 930.75,-88 930.75,-88"
         style="fill:#30313c;fill-opacity:1;fill-rule:nonzero;stroke:none"
         id="path224" />
      <path
         d="m 5457.67,2122 -593.88,154.8 -58.65,298.6 -119.71,-252 -171.53,44.7 c -75.34,367.9 194.73,736.9 194.73,736.9 0,0 236.46,-112.4 546.01,-145 l -73.12,-265.2 364.09,-433.7 c 54.11,-64.5 -6.51,-160.4 -87.94,-139.1"
         style="fill:#404d7f;fill-opacity:1;fill-rule:nonzero;stroke:none"
         id="path226" />
      <path
         d="m 4711.96,2796.8 c -4.93,1.2 -10.11,1.5 -15.3,0.7 -10.24,-1.5 -19.27,-6.9 -25.43,-15.2 -6.16,-8.3 -8.72,-18.6 -7.2,-28.8 1.53,-10.2 6.95,-19.3 15.27,-25.4 8.31,-6.2 18.53,-8.8 28.77,-7.2 21.14,3.1 35.77,22.9 32.63,44 -1.53,10.2 -6.95,19.3 -15.26,25.4 -4.11,3.1 -8.68,5.2 -13.48,6.5 z m -22.52,-88.2 c -6.48,1.6 -12.64,4.5 -18.17,8.6 -11.21,8.3 -18.52,20.5 -20.57,34.3 -2.06,13.8 1.39,27.6 9.69,38.8 8.31,11.2 20.49,18.5 34.29,20.6 13.8,2 27.57,-1.4 38.78,-9.7 11.21,-8.3 18.52,-20.5 20.57,-34.3 v 0 c 4.24,-28.5 -15.49,-55.1 -43.97,-59.4 -6.99,-1 -13.97,-0.6 -20.62,1.1"
         style="fill:#606a97;fill-opacity:1;fill-rule:nonzero;stroke:none"
         id="path228" />
      <path
         d="m 6164.23,8299.1 495.49,-4.8 v 0 c 0.37,38.8 -30.77,70.6 -69.56,70.9 l -355.01,3.5 c -38.79,0.4 -70.55,-30.8 -70.92,-69.6 v 0"
         style="fill:#3e8edd;fill-opacity:1;fill-rule:nonzero;stroke:none"
         id="path230" />
      <path
         d="m 5983.85,6941 806.65,-7.9 c 70.19,-0.7 127.64,55.7 128.32,125.9 l 10.8,1108.4 c 0.69,70.2 -55.65,127.7 -125.84,128.3 l -806.65,7.9 c -70.18,0.7 -127.63,-55.7 -128.32,-125.8 l -10.8,-1108.5 c -0.69,-70.2 55.66,-127.6 125.84,-128.3"
         style="fill:#606a97;fill-opacity:1;fill-rule:nonzero;stroke:none"
         id="path232" />
      <path
         d="M 4875.5,7622.9 5254.23,8642 c 49.06,132.1 195.88,199.3 327.92,150.3 132.04,-49.1 199.3,-195.9 150.23,-327.9 l -266.26,-716.6 990.7,-173.4 c 79.68,-13.8 138.91,-84.7 135.91,-167.8 -3.28,-90.7 -79.47,-161.6 -170.18,-158.3 l -1328.69,48.1 c -24.86,1 -51.05,5.8 -75.64,15 -125.43,46.6 -189.33,186.1 -142.72,311.5"
         style="fill:#f69d85;fill-opacity:1;fill-rule:nonzero;stroke:none"
         id="path234" />
      <path
         d="m 6246.31,7517.9 c 0,0 167.84,77.2 315.27,38 147.43,-39.2 196.51,-88 222.34,-147.4 25.84,-59.4 -238.47,-139.9 -338.04,-120.2 -99.57,19.8 -205.76,82.9 -199.57,229.6"
         style="fill:#f69d85;fill-opacity:1;fill-rule:nonzero;stroke:none"
         id="path236" />
      <path
         d="m 6341.48,7440 c 76.83,55.3 165.6,95.6 257.81,117.1 12.03,2.2 31.28,6.3 43.4,7.5 28.55,0 64.38,12.2 59.53,47.3 -7.77,51.6 -78.29,32.7 -115,34.8 -114.4,-8.9 -227.7,-41.1 -328.69,-95.8 -88.11,-52.8 7.19,-180.6 82.95,-110.9"
         style="fill:#f69d85;fill-opacity:1;fill-rule:nonzero;stroke:none"
         id="path238" />
      <path
         d="m 6551.03,7419.7 c 130.73,1.9 261.84,28.1 381.7,80.6 40.31,16.2 19.1,79.9 -22.62,69 -32.58,-7.8 -65.42,-14 -98.71,-17.9 -82.22,-8.6 -166.27,-8.2 -247.82,5.3 -106.58,27.1 -122.58,-142.6 -12.55,-137"
         style="fill:#f69d85;fill-opacity:1;fill-rule:nonzero;stroke:none"
         id="path240" />
      <path
         d="m 6581.37,7338.4 c 131.71,-3.4 264.8,16.6 388.27,62.8 41.16,14.1 23.34,78.9 -18.94,70.2 -36.92,-6.8 -74.22,-11.9 -111.76,-13.5 -80,-3.9 -161.17,0.9 -239.58,17 -104.32,29.8 -126.69,-136.9 -17.99,-136.5"
         style="fill:#f69d85;fill-opacity:1;fill-rule:nonzero;stroke:none"
         id="path242" />
      <path
         d="m 6544.93,7297.8 c 133.88,-31.1 276.81,-34.5 409.71,3 43.95,10.8 28.93,79.3 -15.26,71.3 -7.99,-0.7 -25.99,-2.3 -33.56,-2.9 -107.56,-4.5 -216.61,17.3 -315.76,58.7 -97,52 -153.41,-109 -45.13,-130.1"
         style="fill:#f69d85;fill-opacity:1;fill-rule:nonzero;stroke:none"
         id="path244" />
      <path
         d="m 6412.81,7265.8 c 113,-52.8 239.1,-80.6 363.82,-76.3 39.38,1.1 84.16,8.1 122.44,17.1 43.25,8.2 33.75,75.8 -9.86,71.9 -0.62,-0.1 -28.67,-1.9 -30.21,-2 -106.96,-5.9 -214.21,23.7 -309.89,70.1 -22.69,11.5 -45.77,23.6 -66.6,37.9 -84.02,66.5 -168.47,-76.4 -69.7,-118.7"
         style="fill:#f69d85;fill-opacity:1;fill-rule:nonzero;stroke:none"
         id="path246" />
      <path
         d="m 6809.66,7267.5 c 3.49,0.7 5.88,4.1 5.36,7.6 -0.54,3.7 -3.96,6.3 -7.65,5.8 -0.91,-0.2 -92.23,-13 -181.04,4.5 -3.65,0.7 -7.2,-1.7 -7.93,-5.3 -0.72,-3.7 1.66,-7.3 5.33,-8 91.13,-17.9 184.64,-4.8 185.57,-4.6 0.12,0 0.24,0 0.36,0"
         style="fill:#af5945;fill-opacity:1;fill-rule:nonzero;stroke:none"
         id="path248" />
      <path
         d="m 6862.88,7367.4 c 0.17,0 0.27,0 0.3,0 3.66,0.8 6.01,4.4 5.26,8 -0.76,3.7 -4.3,6 -7.95,5.3 -0.03,0 -0.07,0 -0.31,-0.1 -5.46,-1.1 -90.3,-17.6 -196.06,-15.9 -3.71,0.1 -6.8,-2.9 -6.87,-6.6 -0.06,-3.7 2.92,-6.8 6.65,-6.9 107.1,-1.8 193.16,15 198.98,16.2"
         style="fill:#af5945;fill-opacity:1;fill-rule:nonzero;stroke:none"
         id="path250" />
      <path
         d="m 6778.58,7449.3 c 14.7,2.9 24.26,5.1 25.43,5.4 3.63,0.9 5.89,4.5 5.03,8.1 -0.85,3.7 -4.68,5.9 -8.13,5.1 -0.92,-0.2 -91.63,-21.4 -159.09,-21.4 -3.71,0 -6.76,-3 -6.76,-6.7 -0.01,-3.8 3.02,-6.8 6.75,-6.8 47.46,0 104.5,9.8 136.77,16.3"
         style="fill:#af5945;fill-opacity:1;fill-rule:nonzero;stroke:none"
         id="path252" />
      <path
         d="m 5879.82,9129.1 c 0,0 -513.16,9.3 -772.16,-540.2 -259,-549.5 -361.45,-1009.6 -268.44,-1222.6 117.53,-269.2 1318.3,-245.9 1318.3,-245.9 0,0 137.05,203.1 64.55,551.2 0,0 -392.49,84.7 -657.68,105.6 0,0 367.56,937.2 315.43,1351.9"
         style="fill:#3e8edd;fill-opacity:1;fill-rule:nonzero;stroke:none"
         id="path254" />
      <path
         d="m 5865.86,7732 c 2.75,0.5 4.98,2.8 5.37,5.7 0.5,3.7 -2.11,7.1 -5.8,7.6 -95.54,12.7 -252.58,32.6 -291.35,37.5 90.03,216 218.01,726.5 219.31,731.7 0.9,3.6 -1.3,7.3 -4.92,8.2 -3.62,0.9 -7.29,-1.3 -8.19,-4.9 -1.32,-5.3 -132.35,-528 -222.1,-737.9 -0.84,-2 -0.71,-4.2 0.35,-6 1.05,-1.9 2.91,-3.1 5.01,-3.4 1.9,-0.2 191.08,-24.1 300.11,-38.6 0.75,-0.1 1.5,-0.1 2.21,0.1"
         style="fill:#305777;fill-opacity:1;fill-rule:nonzero;stroke:none"
         id="path256" />
      <path
         d="m 6019.63,7113.6 c 1.93,0.4 3.67,1.6 4.66,3.5 125,237.1 66.48,580.2 65.87,583.6 -0.64,3.7 -4.14,6.2 -7.82,5.5 -3.61,-0.7 -6.13,-4.1 -5.48,-7.8 0.59,-3.4 58.3,-342 -64.53,-575 -1.74,-3.3 -0.47,-7.4 2.83,-9.1 1.43,-0.8 3,-1 4.47,-0.7"
         style="fill:#305777;fill-opacity:1;fill-rule:nonzero;stroke:none"
         id="path258" />
      <path
         d="m 6205.96,8661 c 37.04,7.4 68.19,27.6 92.71,60 99.69,132 60.33,422.9 58.6,435.3 -0.52,3.7 -3.93,6.2 -7.62,5.7 -3.63,-0.5 -6.27,-3.9 -5.76,-7.6 0.41,-3 40.31,-297.7 -56.01,-425.2 -24.32,-32.2 -55.68,-51.2 -93.16,-56.4 -211.04,-29.2 -367.59,449.5 -369.14,454.3 -1.14,3.6 -4.89,5.5 -8.5,4.4 -3.56,-1.2 -5.51,-5 -4.37,-8.5 6.5,-20.2 161.64,-494.4 383.86,-463.6 3.17,0.5 6.3,1 9.39,1.6"
         style="fill:#305777;fill-opacity:1;fill-rule:nonzero;stroke:none"
         id="path260" />
      <path
         d="m 6108.96,9597.7 c -3.56,-8.1 -4.63,-16.6 -3.19,-25.2 2.24,-13.1 10.29,-24.4 22.69,-31.9 12.71,-7.6 28.41,-10.4 44.19,-7.7 32.13,5.5 54.52,32.3 49.84,59.6 -1.01,6 -3.25,11.6 -6.66,16.7 -11.8,17.8 -36,27.1 -60.21,22.9 -4.34,-0.7 -8.55,-1.9 -12.56,-3.4 -15.5,-5.8 -28.03,-17 -34.1,-31 z m 65.97,-78.1 c -18.98,-3.2 -37.97,0.1 -53.47,9.5 -15.8,9.5 -26.11,24.1 -29.01,41.1 v 0 c -1.87,11.1 -0.44,22.5 4.12,32.9 9.43,21.7 31.18,38 56.77,42.3 29.86,5.1 58.82,-6.1 73.75,-28.7 4.46,-6.7 7.39,-14.1 8.73,-21.9 5.14,-30.1 -14.72,-59.4 -45.84,-71.1 -4.77,-1.8 -9.8,-3.2 -15.05,-4.1"
         style="fill:#af5945;fill-opacity:1;fill-rule:nonzero;stroke:none"
         id="path262" />
      <path
         d="m 6179.01,4559.2 c 3.04,0 5.89,1.9 6.97,5 2.22,6.3 222.4,641.7 225.82,1774 0.01,4.1 -3.29,7.4 -7.37,7.4 -0.01,0 -0.02,0 -0.02,0 -4.07,0 -7.38,-3.3 -7.4,-7.4 -3.4,-1129.5 -222.76,-1762.8 -224.97,-1769.1 -1.36,-3.8 0.65,-8.1 4.5,-9.4 0.82,-0.3 1.65,-0.5 2.47,-0.5"
         style="fill:#64656e;fill-opacity:1;fill-rule:nonzero;stroke:none"
         id="path264" />
      <path
         d="m 6607.13,3168.8 c 277.66,0 472.79,46 475.97,46.8 3.97,1 6.41,5 5.45,8.9 -0.96,4 -4.96,6.5 -8.93,5.5 -5.21,-1.3 -527.67,-124.4 -1081.46,35.6 -3.92,1.1 -8.01,-1.1 -9.15,-5 -1.14,-4 1.13,-8.1 5.05,-9.2 219.1,-63.3 433.38,-82.6 613.07,-82.6"
         style="fill:#64656e;fill-opacity:1;fill-rule:nonzero;stroke:none"
         id="path266" />
      <path
         d="m 5642.88,3244 c 9.61,0 14.91,0.2 15.44,0.2 4.08,0.1 7.27,3.5 7.13,7.6 -0.14,4.1 -3.58,7.1 -7.64,7.2 -5.6,-0.2 -567.76,-15.2 -1039.37,300.4 -3.38,2.3 -7.98,1.3 -10.26,-2.1 -2.27,-3.3 -1.36,-7.9 2.04,-10.2 431.7,-288.9 938.41,-303.1 1032.66,-303.1"
         style="fill:#64656e;fill-opacity:1;fill-rule:nonzero;stroke:none"
         id="path268" />
      <path
         d="m 6645.09,3328.5 c 257.78,0 461.19,32.5 464.78,33.1 4.03,0.7 6.76,4.5 6.1,8.5 -0.66,4 -4.5,6.8 -8.49,6.1 -6.32,-1 -637.27,-101.8 -1085.28,54.3 -3.85,1.3 -8.07,-0.7 -9.42,-4.6 -1.34,-3.8 0.7,-8.1 4.56,-9.4 196.85,-68.6 428.55,-88 627.75,-88"
         style="fill:#64656e;fill-opacity:1;fill-rule:nonzero;stroke:none"
         id="path270" />
      <path
         d="m 5726.36,3394.9 c 3.94,0 7.22,3.1 7.38,7.1 0.17,4.1 -3,7.5 -7.08,7.7 -7.04,0.3 -707.74,32.4 -1038.59,319 -3.1,2.7 -7.76,2.4 -10.43,-0.7 -2.67,-3.1 -2.34,-7.8 0.75,-10.4 334.77,-290.1 1040.57,-322.4 1047.66,-322.7 0.1,0 0.21,0 0.31,0"
         style="fill:#64656e;fill-opacity:1;fill-rule:nonzero;stroke:none"
         id="path272" />
      <path
         d="M 10362.9,10004.6 8654.46,9590.1 8240,11298.5 9948.39,11713 10362.9,10004.6"
         style="fill:#ff593a;fill-opacity:1;fill-rule:nonzero;stroke:none"
         id="path274" />
      <path
         d="m 9331.64,10424.4 c -46.11,0 -87.96,31.4 -99.32,78.2 l -155.14,639.5 c -13.32,54.9 20.38,110.2 75.28,123.5 54.87,13.3 110.19,-20.4 123.51,-75.3 l 155.14,-639.5 c 13.32,-54.9 -20.38,-110.2 -75.28,-123.5 -8.1,-2 -16.21,-2.9 -24.19,-2.9"
         style="fill:#f1f3f2;fill-opacity:1;fill-rule:nonzero;stroke:none"
         id="path276" />
      <path
         d="m 9501.24,10259.9 c 13.26,-54.7 -20.3,-109.7 -74.96,-123 -54.66,-13.2 -109.73,20.3 -122.99,75 -13.26,54.6 20.3,109.7 74.97,123 54.66,13.2 109.72,-20.3 122.98,-75"
         style="fill:#f1f3f2;fill-opacity:1;fill-rule:nonzero;stroke:none"
         id="path278" />
      <path
         d="m 8191.91,10181.3 c 61.8,116 151.45,219.7 261.61,292 62.14,54.4 140.68,12.7 69.53,-50.2 -13.54,-12 -57.26,-55.3 -57.26,-55.3 l 77.89,-321 c -186.34,-146.2 -393.31,54 -351.77,134.5"
         style="fill:#f69d85;fill-opacity:1;fill-rule:nonzero;stroke:none"
         id="path280" />
      <path
         d="m 17677.8,9476 c 0,0 -237.1,-55.3 -435.5,-338.6 0,0 354.3,-27.8 435.5,338.6"
         style="fill:#305777;fill-opacity:1;fill-rule:nonzero;stroke:none"
         id="path282" />
      <path
         d="m 17283.2,9543.3 c 76.1,65.1 190.5,56.2 255.6,-19.8 l 756.3,-883.9 954.4,788.8 c 5.8,4.8 12.2,9.7 18.6,14 116.4,79.5 275.2,49.7 354.7,-66.7 79.5,-116.4 49.7,-275.2 -66.7,-354.7 l -1169.6,-799.3 -9.1,-6.2 c -79.3,-53.9 -188.2,-39.7 -250.8,35.5 l -928.1,1114.6 c 0,0 9.3,113.2 84.7,177.7"
         style="fill:#f69d85;fill-opacity:1;fill-rule:nonzero;stroke:none"
         id="path284" />
      <path
         d="m 19543.7,9545.3 c 0,0 -423.3,127.5 -1195.2,-730.6 l -670.7,661.3 c 0,0 -97.1,-245.8 -435.5,-338.6 0,0 552.2,-1095.6 991,-1152.4 527.1,-68.2 1168.4,460.1 1168.4,460.1 l 142,1100.2"
         style="fill:#3e8edd;fill-opacity:1;fill-rule:nonzero;stroke:none"
         id="path286" />
      <path
         d="m 20777.9,4611.2 c 172.7,-765.6 282.3,-1355.7 494.8,-2110.8 142.4,-302.7 755.8,-320.6 667.4,-4.9 -164.5,741.7 -405.7,1497.8 -594.5,2233.6 0,0 -574.1,-92.3 -567.7,-117.9"
         style="fill:#f69d85;fill-opacity:1;fill-rule:nonzero;stroke:none"
         id="path288" />
      <path
         d="M 19255.7,4609.9 19468.5,2503 c 142.5,-302.8 755.9,-320.6 667.5,-4.9 l -267.5,2229.6 -612.8,-117.8"
         style="fill:#f69d85;fill-opacity:1;fill-rule:nonzero;stroke:none"
         id="path290" />
      <path
         d="m 20172,2190.4 c -3.6,-13.6 -9.7,-26.2 -17.7,-37.3 -19.8,-27.5 -51.5,-45.5 -87.5,-45.5 l -822.5,0.8 c -40.9,0 -72,23.7 -87.5,55.2 -4.8,9.6 -8.1,20 -9.7,30.7 -5.1,32.1 4.3,66.9 32.5,92.5 l 288.9,216.2 c 380.5,-58.6 663.7,35.6 663.7,35.6 l 8.6,-40.7 c 18.9,-89.6 30.6,-180.7 34.9,-272.2 v 0 c 0.6,-12.3 -0.7,-24.1 -3.7,-35.3"
         style="fill:#606a97;fill-opacity:1;fill-rule:nonzero;stroke:none"
         id="path292" />
      <path
         d="m 20172,2190.4 c -12.6,-47.5 -54.7,-82.7 -105.2,-82.8 l -822.5,0.8 c -53.4,0 -90,40.2 -97.2,85.9 l 1024.9,-3.9"
         style="fill:#404d7f;fill-opacity:1;fill-rule:nonzero;stroke:none"
         id="path294" />
      <path
         d="m 20135,6658.2 41.6,-3930.5 c 0,0 -373.5,-157.3 -884.6,-74.8 l -457.5,4007.1 1300.5,-1.8"
         style="fill:#30313c;fill-opacity:1;fill-rule:nonzero;stroke:none"
         id="path296" />
      <path
         d="m 21976.1,2187.9 c -3.6,-13.7 -9.7,-26.3 -17.6,-37.3 -19.8,-27.5 -51.6,-45.5 -87.6,-45.5 l -822.4,0.7 c -41,0 -72,23.7 -87.6,55.3 -4.8,9.6 -8.1,20 -9.7,30.7 -5.1,32.1 4.3,66.9 32.5,92.4 l 289,216.2 c 380.4,-58.5 663.6,35.7 663.6,35.7 l 8.6,-40.7 c 18.9,-89.7 30.6,-180.7 34.9,-272.3 v 0 c 0.6,-12.2 -0.7,-24 -3.7,-35.2"
         style="fill:#606a97;fill-opacity:1;fill-rule:nonzero;stroke:none"
         id="path298" />
      <path
         d="m 21976.1,2187.9 c -12.5,-47.6 -54.7,-82.8 -105.2,-82.8 l -822.4,0.7 c -53.4,0.1 -90.1,40.3 -97.3,86 l 1024.9,-3.9"
         style="fill:#404d7f;fill-opacity:1;fill-rule:nonzero;stroke:none"
         id="path300" />
      <path
         d="m 20972.5,6657 c 0,0 835.9,-3055.5 1008.2,-3931.8 0,0 -373.5,-157.4 -884.6,-74.9 l -1369,4008.5 1245.4,-1.8"
         style="fill:#30313c;fill-opacity:1;fill-rule:nonzero;stroke:none"
         id="path302" />
      <path
         d="m 19959.6,10049.3 -1,-650.8 -415.1,0.6 0.9,650.8 415.2,-0.6"
         style="fill:#f69d85;fill-opacity:1;fill-rule:nonzero;stroke:none"
         id="path304" />
      <path
         d="m 19888.1,9729.2 c -174.9,-88.3 -344.3,-75.1 -344.3,-75.1 l 0.2,126.1 344.1,-51"
         style="fill:#d1836b;fill-opacity:1;fill-rule:nonzero;stroke:none"
         id="path306" />
      <path
         d="m 19317.3,10371.6 c 0,0 -62.6,111.4 -30.4,231.1 l 132.4,-24.6 c 0,0 -74.1,-93.9 -102,-206.5"
         style="fill:#2a3047;fill-opacity:1;fill-rule:nonzero;stroke:none"
         id="path308" />
      <path
         d="m 19682.9,9702.5 v 0 c -239.6,26.4 -412.5,242 -386.2,481.6 l 24.7,225.3 c 26.4,239.6 242,412.6 481.7,386.2 v 0 c 239.6,-26.3 412.5,-241.9 386.2,-481.6 l -24.8,-225.2 c -26.3,-239.7 -241.9,-412.6 -481.6,-386.3"
         style="fill:#f69d85;fill-opacity:1;fill-rule:nonzero;stroke:none"
         id="path310" />
      <path
         d="m 20324,10159.2 c -7,-63.7 -64.3,-109.6 -128,-102.6 -63.6,7 -109.6,64.2 -102.6,127.9 7,63.7 64.3,109.6 128,102.6 63.6,-7 109.6,-64.3 102.6,-127.9"
         style="fill:#f69d85;fill-opacity:1;fill-rule:nonzero;stroke:none"
         id="path312" />
      <path
         d="m 19419.9,10243.7 c -7,-63.7 -64.3,-109.6 -127.9,-102.6 -63.7,7 -109.6,64.3 -102.6,127.9 6.9,63.7 64.2,109.6 127.9,102.6 63.6,-7 109.6,-64.2 102.6,-127.9"
         style="fill:#f69d85;fill-opacity:1;fill-rule:nonzero;stroke:none"
         id="path314" />
      <path
         d="m 19760.4,7121 h -25.2 c -383.4,0.6 -693.9,311.9 -693.3,695.3 l 1.5,1063.1 c 0.5,383.5 359.9,678.8 695.3,693.4 l 25.2,-0.1 c 320.2,-0.4 693.9,-311.8 693.3,-695.3 l -1.5,-1063.1 c -0.5,-383.4 -311.8,-693.9 -695.3,-693.3"
         style="fill:#f69d85;fill-opacity:1;fill-rule:nonzero;stroke:none"
         id="path316" />
      <path
         d="m 19812.2,10280.2 c -3.5,-32.4 7,-60.1 23.5,-61.9 16.5,-1.8 32.7,23 36.3,55.4 3.5,32.3 -7,60 -23.5,61.8 -16.5,1.8 -32.8,-22.9 -36.3,-55.3"
         style="fill:#30313c;fill-opacity:1;fill-rule:nonzero;stroke:none"
         id="path318" />
      <path
         d="m 19550.2,10308.9 c -3.5,-32.4 7,-60.1 23.5,-61.9 16.5,-1.8 32.7,22.9 36.3,55.3 3.5,32.4 -7,60.1 -23.5,61.9 -16.5,1.8 -32.8,-23 -36.3,-55.3"
         style="fill:#30313c;fill-opacity:1;fill-rule:nonzero;stroke:none"
         id="path320" />
      <path
         d="m 19105.1,10716.9 c 89.7,150.3 247,93.9 352.7,192.3 77.7,72.4 319.5,177 479.5,107.9 126.6,-54.7 173.3,-159.2 189.5,-243.7 63.8,-30.5 132,-89.1 151.4,-201.9 22.8,-133 -92,-285.9 -92,-285.9 0,0 -130.4,54.2 -183.2,195.8 -28,75 -39.1,134.2 -41,180.5 -67.1,4.6 -141.4,6.5 -197.9,-0.7 -200.5,-25.6 -209.1,-158 -412.1,-195.9 -235,-43.9 -309.1,147.4 -246.9,251.6"
         style="fill:#2a3047;fill-opacity:1;fill-rule:nonzero;stroke:none"
         id="path322" />
      <path
         d="m 19986.7,10144 c 1.2,-23.3 -18.6,-43.2 -44.1,-44.5 -25.5,-1.2 -47.1,16.6 -48.3,39.9 -1.1,23.2 18.6,43.1 44.1,44.4 25.5,1.3 47.1,-16.5 48.3,-39.8"
         style="fill:#d1836b;fill-opacity:1;fill-rule:nonzero;stroke:none"
         id="path324" />
      <path
         d="m 19496.6,10178.5 c 1.1,-23.2 -18.6,-43.1 -44.1,-44.4 -25.5,-1.3 -47.1,16.6 -48.3,39.8 -1.2,23.3 18.6,43.2 44.1,44.5 25.5,1.3 47.1,-16.6 48.3,-39.9"
         style="fill:#d1836b;fill-opacity:1;fill-rule:nonzero;stroke:none"
         id="path326" />
      <path
         d="m 19300.3,10188 c 3.3,0.2 6.1,2.7 6.5,6.1 4.5,44.2 -24.3,55.6 -43.3,63.1 -8.6,3.4 -16.6,6.6 -18.6,11.2 -1.1,2.5 -0.6,6.3 1.4,11.2 15.6,38.6 64.1,36.4 66.1,36.3 3.9,-0.2 7,2.7 7.2,6.4 0.2,3.7 -2.6,7 -6.4,7.2 -2.4,0.1 -60.2,2.9 -79.5,-44.8 -3.5,-8.5 -3.9,-15.6 -1.3,-21.7 4.2,-9.8 14.8,-14 26.1,-18.4 18.8,-7.4 38.2,-15.1 34.7,-49.1 -0.3,-3.7 2.4,-7.1 6.1,-7.5 0.4,0 0.7,0 1,0"
         style="fill:#af5945;fill-opacity:1;fill-rule:nonzero;stroke:none"
         id="path328" />
      <path
         d="m 20210.1,10095.7 c 0.2,0 0.4,0 0.6,0 3.7,0.5 6.3,3.9 5.8,7.6 -4.3,33.9 15,42.1 33.6,50 11.1,4.7 21.6,9.1 25.5,19.1 2.5,6.1 1.9,13.2 -1.7,21.6 -20.6,47.2 -78.2,42.9 -80.7,42.8 -3.7,-0.3 -6.5,-3.6 -6.2,-7.4 0.3,-3.7 3.7,-6.4 7.4,-6.2 2,0.2 50.4,3.6 67,-34.6 2.1,-4.9 2.7,-8.6 1.6,-11.2 -1.8,-4.7 -9.8,-8 -18.2,-11.6 -18.9,-8 -47.4,-20.1 -41.7,-64.2 0.4,-3.5 3.5,-6.1 7,-5.9"
         style="fill:#af5945;fill-opacity:1;fill-rule:nonzero;stroke:none"
         id="path330" />
      <path
         d="m 19543.7,9545.3 c 0,0 -462.4,-110 -619.4,-666.1 -176.1,-624 -230.9,-1628 -89.9,-2304.7 21.9,-105 461.5,-159.5 805.1,-160 444,-0.6 1173.2,113.9 1333,242.5 202.8,163.2 -217.1,1027.3 -279.4,1489.4 -85.1,630.8 -54.3,1176.4 -734.3,1398.3 0,0 -326.8,-228.6 -415.1,0.6"
         style="fill:#3e8edd;fill-opacity:1;fill-rule:nonzero;stroke:none"
         id="path332" />
      <path
         d="m 19712.2,10026.3 c 24.4,1.2 51.1,6.1 78.9,17.1 3.5,1.4 5.2,5.3 3.8,8.8 -1.4,3.5 -5.3,5.2 -8.8,3.8 -101.3,-39.9 -189.5,6.4 -190.4,6.8 -3.3,1.8 -7.4,0.6 -9.2,-2.7 -1.8,-3.3 -0.5,-7.5 2.8,-9.2 2.8,-1.5 53.4,-28 122.9,-24.6"
         style="fill:#af5945;fill-opacity:1;fill-rule:nonzero;stroke:none"
         id="path334" />
      <path
         d="m 19688.1,10104.9 c 2.6,0.2 5,1.8 6,4.4 1.3,3.6 -0.4,7.5 -4,8.8 -15.4,5.8 -46.2,22.2 -43.1,35.5 4.2,18.6 44.1,99.4 59.1,128.9 1.7,3.4 0.3,7.5 -3,9.2 -3.4,1.7 -7.4,0.3 -9.1,-3 -2.3,-4.4 -54.8,-108 -60.3,-132.1 -6.5,-28.4 45.7,-49 51.7,-51.2 0.9,-0.4 1.8,-0.5 2.7,-0.5"
         style="fill:#af5945;fill-opacity:1;fill-rule:nonzero;stroke:none"
         id="path336" />
      <path
         d="m 19513.2,10396.3 c 1.5,0.1 3.1,0.5 4.6,1.3 61.8,31.6 138,6.9 138.8,6.7 5.9,-2 12.4,1.2 14.4,7.2 2,5.9 -1.2,12.4 -7.2,14.4 -3.5,1.1 -86,28 -156.4,-8 -5.6,-2.9 -7.8,-9.8 -4.9,-15.4 2.1,-4.1 6.3,-6.4 10.7,-6.2"
         style="fill:#af5945;fill-opacity:1;fill-rule:nonzero;stroke:none"
         id="path338" />
      <path
         d="m 19929.9,10355.2 c 3.3,0.1 6.5,1.7 8.6,4.6 3.7,5.1 2.6,12.2 -2.4,15.9 -2.9,2.2 -71.3,51.8 -158,41.8 -6.3,-0.7 -10.8,-6.3 -10.1,-12.6 0.8,-6.2 6.5,-10.7 12.7,-10 77.3,8.8 141.2,-37.1 141.9,-37.5 2.2,-1.6 4.7,-2.3 7.3,-2.2"
         style="fill:#af5945;fill-opacity:1;fill-rule:nonzero;stroke:none"
         id="path340" />
      <path
         d="m 21374.9,6783.4 c 0,0 226.7,-89.6 501.9,60.9 0,0 -254.5,131.7 -501.9,-60.9"
         style="fill:#305777;fill-opacity:1;fill-rule:nonzero;stroke:none"
         id="path342" />
      <path
         d="m 21583.2,6751.8 c 0,0 -68.4,-172.6 -21.1,-318.5 47.2,-145.8 98.9,-192.5 159.9,-215.2 61,-22.7 127.6,246.9 102.4,345.8 -25.1,98.8 -94.2,202 -241.2,187.9"
         style="fill:#f69d85;fill-opacity:1;fill-rule:nonzero;stroke:none"
         id="path344" />
      <path
         d="m 21544.4,6693.8 c -45.8,-102.3 -71.5,-213.9 -73.8,-326 0.5,-14.4 0.1,-37.4 1.8,-51.5 -0.9,-28.6 9.7,-65.7 45.4,-62.1 32.7,2.3 38.6,35.8 38.1,62.3 9.6,109.5 50.3,216.5 108.9,309 68.7,86.4 -79.7,171.2 -120.4,68.3"
         style="fill:#f69d85;fill-opacity:1;fill-rule:nonzero;stroke:none"
         id="path346" />
      <path
         d="m 21561.3,6431.3 c 24.4,-114 27.4,-233.7 6,-348.5 -8.6,-42.8 56.8,-60.1 70.6,-19 17.2,45.4 30.8,93.1 40.5,140.8 16,84.2 24.9,170.4 19,256.2 -11.1,103.2 -168.6,69.2 -136.1,-29.5"
         style="fill:#f69d85;fill-opacity:1;fill-rule:nonzero;stroke:none"
         id="path348" />
      <path
         d="m 21612.3,6385.7 c 25.4,-73.7 37.9,-152.3 40.2,-230.3 11.8,-45.3 -35.7,-137.1 26.1,-151.1 63.5,-7.2 67.5,171.2 75.4,217.6 4.3,70.8 3.3,142.9 -10.8,212.8 -24.5,104.3 -180.9,45.9 -130.9,-49"
         style="fill:#f69d85;fill-opacity:1;fill-rule:nonzero;stroke:none"
         id="path350" />
      <path
         d="m 21669,6387.1 c 53.4,-100.5 78,-218.1 65,-331.6 -5.1,-43.3 61.3,-55.2 71.7,-13.3 14.3,48.2 22.7,98.6 24.8,149 2.5,93.1 -9.1,188.6 -44.4,275.5 -47.2,106.9 -199.2,3.8 -117.1,-79.6"
         style="fill:#f69d85;fill-opacity:1;fill-rule:nonzero;stroke:none"
         id="path352" />
      <path
         d="m 21707.8,6535.8 c 67.1,-97.1 111.7,-212.4 121.7,-330.3 15.2,-46.1 -33.3,-150.5 26.4,-162.1 81.8,-4.9 64.1,245.5 55.7,301.6 -15.4,96 -45,190.6 -93.2,275.5 -54.2,87.8 -181.3,-9.4 -110.6,-84.7"
         style="fill:#f69d85;fill-opacity:1;fill-rule:nonzero;stroke:none"
         id="path354" />
      <path
         d="m 21662.9,6216.5 c -0.9,27.7 -3.7,57 -9.9,83.6 -0.9,3.6 -4.5,5.9 -8.2,5 -3.6,-0.8 -5.9,-4.4 -5.1,-8.1 18.5,-79.2 5.5,-187.5 5.3,-188.6 -0.5,-3.7 2.2,-7.1 5.9,-7.6 3.8,-0.4 7.1,2.2 7.6,6 0.4,3 6.3,52.7 4.4,109.7"
         style="fill:#af5945;fill-opacity:1;fill-rule:nonzero;stroke:none"
         id="path356" />
      <path
         d="m 21744.7,6192 c -0.9,26.5 -3.1,54.7 -7.5,78.7 -0.7,3.6 -4.3,6.1 -7.9,5.4 -3.7,-0.7 -6.1,-4.3 -5.5,-7.9 11.9,-64.2 6.6,-163.5 6.6,-164.5 -0.3,-3.8 2.6,-7 6.4,-7.2 3.7,-0.2 6.9,2.7 7.1,6.4 0.2,2.7 2.3,43.1 0.8,89.1"
         style="fill:#af5945;fill-opacity:1;fill-rule:nonzero;stroke:none"
         id="path358" />
      <path
         d="m 21835.1,6185.1 c 0,0 0,0.1 0,0.2 -0.2,3 -4.9,75.2 -20.7,127.3 -1.1,3.6 -4.9,5.6 -8.5,4.5 -3.6,-1.1 -5.6,-4.9 -4.5,-8.5 15.4,-50.5 20.1,-123.4 20.1,-124.2 0.2,-3.7 3.5,-6.6 7.2,-6.3 3.7,0.2 6.5,3.3 6.4,7"
         style="fill:#af5945;fill-opacity:1;fill-rule:nonzero;stroke:none"
         id="path360" />
      <path
         d="m 21822.9,6649.8 -123.1,1340.3 c -3.5,39.1 -18.8,77.6 -46.2,109.8 l -11.5,13.4 -1057.4,1241.8 c -1.8,2.1 -4.4,5 -6.3,7.1 -100.8,110.2 -271.9,117.9 -382.1,17.1 -110.3,-100.8 -118,-271.9 -17.2,-382.1 L 21239,7837.8 21506.7,6601.2 c 16.8,-78.1 89.7,-133.1 171.3,-125.6 88.1,8.1 153,86.1 144.9,174.2"
         style="fill:#f69d85;fill-opacity:1;fill-rule:nonzero;stroke:none"
         id="path362" />
      <path
         d="m 19958.8,9544.7 c 0,0 493.6,42.2 833.7,-254.1 350,-304.8 924.1,-914.8 1014.1,-1223.9 89.9,-309 70.2,-1222.4 70.2,-1222.4 0,0 -260.1,64.6 -501.9,-60.9 l -241.3,989.1 c 0,0 -829.5,788.5 -965.4,1086.7 -135.9,298.2 -209.4,685.5 -209.4,685.5"
         style="fill:#3e8edd;fill-opacity:1;fill-rule:nonzero;stroke:none"
         id="path364" />
      <path
         d="m 20683.5,8216.2 c 1.7,0.1 3.5,0.8 4.8,2.1 2.9,2.8 3,7.5 0.2,10.4 -3.5,3.6 -348.2,362.7 -497.1,601.2 -2.2,3.4 -6.8,4.5 -10.2,2.3 -3.5,-2.1 -4.5,-6.7 -2.4,-10.2 149.8,-239.8 495.6,-599.9 499,-603.5 1.6,-1.6 3.7,-2.4 5.7,-2.3"
         style="fill:#305777;fill-opacity:1;fill-rule:nonzero;stroke:none"
         id="path366" />
      <path
         d="m 18784.3,8074 c 3.6,0.1 6.7,3 7,6.7 0.3,3.8 33.1,380.8 140.2,796.6 1,4 -1.4,8 -5.3,9 -4,1 -8,-1.3 -9,-5.3 -107.4,-417.1 -140.3,-795.3 -140.6,-799 -0.4,-4.1 2.6,-7.7 6.7,-8 0.3,-0.1 0.7,-0.1 1,0"
         style="fill:#305777;fill-opacity:1;fill-rule:nonzero;stroke:none"
         id="path368" />
      <path
         d="m 18245.9,8673.2 c 2.5,0.1 4.8,1.5 6.1,3.8 34.1,59.8 101.2,131.9 101.9,132.6 2.8,3 2.6,7.7 -0.4,10.5 -3,2.8 -7.6,2.6 -10.4,-0.4 -2.8,-3 -69,-74.1 -103.9,-135.4 -2.1,-3.6 -0.8,-8.1 2.7,-10.1 1.3,-0.7 2.7,-1 4,-1"
         style="fill:#305777;fill-opacity:1;fill-rule:nonzero;stroke:none"
         id="path370" />
      <path
         d="m 21353.2,6866.4 c 1.2,0 2.4,0.4 3.5,1.1 264.1,163.9 516.4,73.9 518.9,73 3.9,-1.4 8.1,0.6 9.5,4.4 1.4,3.8 -0.5,8 -4.4,9.5 -2.6,0.9 -261.4,93.5 -531.8,-74.4 -3.5,-2.1 -4.5,-6.7 -2.4,-10.1 1.5,-2.4 4.1,-3.7 6.7,-3.5"
         style="fill:#305777;fill-opacity:1;fill-rule:nonzero;stroke:none"
         id="path372" />
      <path
         d="m 17314.7,8994.7 c 0.8,0.1 1.5,0.2 2.2,0.5 372,130.1 465.2,371.4 466.1,373.8 1.4,3.9 -0.6,8.1 -4.5,9.5 -3.9,1.4 -8.2,-0.6 -9.7,-4.4 -0.8,-2.4 -92.1,-237.4 -456.9,-365 -3.9,-1.4 -6,-5.6 -4.6,-9.5 1.1,-3.1 4.2,-5 7.4,-4.9"
         style="fill:#305777;fill-opacity:1;fill-rule:nonzero;stroke:none"
         id="path374" />
      <path
         d="m 20153.5,5403.9 c 0.7,0.1 1.4,0.2 2,0.4 3.9,1.3 6,5.5 4.6,9.4 l -231.2,677.1 c -1.3,3.9 -5.5,6 -9.4,4.6 -3.9,-1.3 -5.9,-5.5 -4.6,-9.4 l 231.2,-677.1 c 1.1,-3.2 4.2,-5.1 7.4,-5"
         style="fill:#64656e;fill-opacity:1;fill-rule:nonzero;stroke:none"
         id="path376" />
      <path
         d="m 21442,2811 c 271.6,12.8 499.2,88.7 502.6,89.9 3.9,1.3 6,5.5 4.7,9.4 -1.3,3.8 -5.5,5.9 -9.4,4.6 -5.1,-1.7 -513.1,-171.2 -914.7,-43.2 -3.9,1.3 -8.1,-0.9 -9.3,-4.8 -1.3,-3.9 0.9,-8 4.8,-9.3 136.2,-43.4 284.4,-53 421.3,-46.6"
         style="fill:#64656e;fill-opacity:1;fill-rule:nonzero;stroke:none"
         id="path378" />
      <path
         d="m 19689.5,2811.8 c 266.6,12.5 481.1,78.7 484.3,79.7 3.9,1.2 6,5.4 4.8,9.3 -1.2,3.9 -5.3,6.1 -9.3,4.8 -4.7,-1.5 -483.7,-149.2 -898.6,-42.3 -4,1 -8,-1.4 -9,-5.3 -1.1,-4 1.3,-8 5.3,-9 140.4,-36.2 288.1,-43.5 422.5,-37.2"
         style="fill:#64656e;fill-opacity:1;fill-rule:nonzero;stroke:none"
         id="path380" />
      <path
         d="m 21719,2844.3 c 0.5,0 1,0.1 1.5,0.2 4,1.1 6.3,5.1 5.3,9 l -952.9,3715.1 c -1,3.9 -5,6.3 -9,5.3 -3.9,-1 -6.3,-5 -5.3,-9 l 952.9,-3715 c 0.9,-3.5 4.1,-5.7 7.5,-5.6"
         style="fill:#64656e;fill-opacity:1;fill-rule:nonzero;stroke:none"
         id="path382" />
      <path
         d="m 19808.9,6631.3 c 169.6,8 328.4,26.1 465.8,47 431.8,65.7 750.6,172 753.8,173.1 3.9,1.3 5.9,5.5 4.6,9.4 -1.3,3.8 -5.4,5.9 -9.3,4.6 -3.2,-1.1 -321,-107.1 -751.6,-172.5 -397,-60.3 -973.9,-97.5 -1467.2,68 -3.8,1.3 -8,-0.8 -9.3,-4.7 -1.3,-3.9 0.7,-8 4.6,-9.3 325.2,-109.1 686.2,-130.7 1008.6,-115.6"
         style="fill:#305777;fill-opacity:1;fill-rule:nonzero;stroke:none"
         id="path384" />
      <path
         d="m 19812.4,6837 c 169.5,7.9 326.1,25.2 460.5,44.8 422.5,61.9 722.5,160.6 725.5,161.6 3.8,1.3 5.9,5.5 4.7,9.3 -1.3,3.9 -5.5,6 -9.4,4.7 -3,-1 -302,-99.3 -723.2,-161 -388.5,-56.8 -963.4,-93.1 -1496,56.6 -3.9,1.1 -8,-1.2 -9.1,-5.1 -1.1,-3.9 1.2,-8 5.1,-9.1 350.7,-98.7 719.5,-117 1041.9,-101.8"
         style="fill:#305777;fill-opacity:1;fill-rule:nonzero;stroke:none"
         id="path386" />
      <path
         d="m 21324.7,6983.1 c 1.3,0 2.6,0.4 3.8,1.2 241.8,162.7 544.9,72.7 548,71.8 3.9,-1.2 8,1 9.2,4.9 1.2,3.9 -1,8.1 -4.9,9.3 -3.1,0.9 -313,92.8 -560.6,-73.7 -3.4,-2.3 -4.3,-6.9 -2,-10.3 1.5,-2.2 4,-3.3 6.5,-3.2"
         style="fill:#305777;fill-opacity:1;fill-rule:nonzero;stroke:none"
         id="path388" />
      <path
         d="m 17372.5,8885 c 0.4,0 0.7,0 1.1,0.1 356.2,70 499,395.9 500.4,399.1 1.6,3.8 -0.1,8.1 -3.9,9.7 -3.7,1.7 -8.1,-0.1 -9.7,-3.8 -1.3,-3.3 -141.3,-322 -489.7,-390.5 -4,-0.8 -6.6,-4.7 -5.8,-8.7 0.7,-3.6 4,-6.1 7.6,-5.9"
         style="fill:#305777;fill-opacity:1;fill-rule:nonzero;stroke:none"
         id="path390" />
      <path
         d="m 19958.8,9623.3 149.5,-78 -375.1,-264.8 -100,118.5 -132,-85.3 -50.8,237.4 93.1,45.4 c 0,0 32.7,-97.1 110.1,-105.9 77.4,-8.9 219,57.7 305.2,132.7"
         style="fill:#f1f3f2;fill-opacity:1;fill-rule:nonzero;stroke:none"
         id="path392" />
      <path
         d="m 17594.9,9448.1 c 0,0 -160.4,236.2 -218.1,285.5 -57.6,49.4 -96.6,59.3 -124,51.8 l 163.4,-342.8 178.7,5.5"
         style="fill:#f69d85;fill-opacity:1;fill-rule:nonzero;stroke:none"
         id="path394" />
      <path
         d="m 17317.8,9530.7 c 10,-3.8 21.4,-4.1 32.2,0 23.2,8.9 34.8,34.8 25.9,58 -0.6,1.7 -16.6,43.3 -39.5,89 -45.4,90.7 -76.7,115.3 -96.2,125.9 -43.6,23.6 -123.1,23 -138.6,22.6 -24.8,-0.5 -44.4,-21.1 -43.9,-45.9 0.6,-24.8 21.2,-44.4 46,-43.9 33.3,0.7 79,-3.8 93.7,-11.8 0.8,-0.5 21,-12 58.4,-86.5 21,-41.8 36.1,-81.1 36.2,-81.5 4.8,-12.4 14.4,-21.4 25.8,-25.9"
         style="fill:#f69d85;fill-opacity:1;fill-rule:nonzero;stroke:none"
         id="path396" />
      <path
         d="m 17196.8,9736.2 14.8,-177.3 -121.8,83.7 106.9,-193.1 123.4,6.2 13.9,150.1 -126.5,136.3 -10.7,-5.9"
         style="fill:#f69d85;fill-opacity:1;fill-rule:nonzero;stroke:none"
         id="path398" />
      <path
         d="m 17712.6,9419 -1094.2,250.2 49.8,217.6 1094.2,-250.1 -49.8,-217.7"
         style="fill:#ff593a;fill-opacity:1;fill-rule:nonzero;stroke:none"
         id="path400" />
      <path
         d="m 16668.2,9886.8 -49.8,-217.6 -156.5,107.1 -95.1,65 113.9,17.2 187.5,28.3"
         style="fill:#ffb12a;fill-opacity:1;fill-rule:nonzero;stroke:none"
         id="path402" />
      <path
         d="m 17759.4,9408.3 -154.9,35.4 49.8,217.7 154.9,-35.4 c 60.1,-13.8 97.7,-73.7 83.9,-133.8 v 0 c -13.7,-60.1 -73.6,-97.7 -133.7,-83.9"
         style="fill:#ffb12a;fill-opacity:1;fill-rule:nonzero;stroke:none"
         id="path404" />
      <path
         d="m 16480.7,9858.5 -18.8,-82.2 -95.1,65 z"
         style="fill:#ff593a;fill-opacity:1;fill-rule:nonzero;stroke:none"
         id="path406" />
      <path
         d="m 17273.2,9291.8 c 14.7,-5.7 31.9,-3.5 44.9,7.3 19.1,15.8 45.1,66.9 29.3,86 l -249.1,249.5 c -15.8,19.1 -44.1,21.8 -63.2,5.9 -19.1,-15.8 -18.9,-42.1 -5.9,-63.2 104.3,-170.7 201.6,-252.2 201.6,-252.2 5.1,-6.1 35.5,-30.7 42.4,-33.3"
         style="fill:#f69d85;fill-opacity:1;fill-rule:nonzero;stroke:none"
         id="path408" />
      <path
         d="m 13324.8,4177.3 c -120.1,1008.4 -942.7,1761.7 -1920,1829.1 l -3.9,33.1 -387.3,-42.8 C 9872.95,5860.8 9058.42,4826 9194.26,3685.4 9328.72,2556.5 10343.8,1747.1 11470.5,1862.4 v -0.2 l 422.3,46.7 -4.7,39.6 c 934.1,295 1556.8,1220.5 1436.7,2228.8"
         style="fill:#dd7e00;fill-opacity:1;fill-rule:nonzero;stroke:none"
         id="path410" />
      <path
         d="M 13712.2,4220.1 C 13848,3079.5 13033.5,2044.7 11892.8,1908.9 10752.2,1773 9717.43,2587.6 9581.59,3728.2 c -135.85,1140.6 678.71,2175.4 1819.31,2311.3 1140.6,135.8 2175.4,-678.7 2311.3,-1819.4"
         style="fill:#ffb12a;fill-opacity:1;fill-rule:nonzero;stroke:none"
         id="path412" />
      <path
         d="m 13246.6,4164.7 c 105.3,-883.5 -525.7,-1685.1 -1409.2,-1790.3 -883.5,-105.2 -1685.1,525.7 -1790.3,1409.2 -105.21,883.6 525.7,1685.1 1409.3,1790.3 883.5,105.3 1685,-525.7 1790.2,-1409.2"
         style="fill:#f1f3f2;fill-opacity:1;fill-rule:nonzero;stroke:none"
         id="path414" />
      <path
         d="m 11646.8,3883.1 c -45.5,0 -84.8,34 -90.3,80.3 l -141.3,1186.4 c -6,49.9 29.7,95.2 79.6,101.1 50,6 95.2,-29.7 101.2,-79.6 l 141.3,-1186.4 c 5.9,-49.9 -29.7,-95.2 -79.7,-101.1 -3.6,-0.5 -7.2,-0.7 -10.8,-0.7"
         style="fill:#3e8edd;fill-opacity:1;fill-rule:nonzero;stroke:none"
         id="path416" />
      <path
         d="m 11646.8,3881.6 c -46.3,0 -86.2,34.6 -91.8,81.6 -6.1,50.8 30.2,96.8 80.9,102.9 l 1186.4,141.3 c 50.8,5.9 96.8,-30.2 102.8,-81 6.1,-50.7 -30.2,-96.8 -80.9,-102.8 l -1186.4,-141.3 c -3.7,-0.5 -7.4,-0.7 -11,-0.7"
         style="fill:#ff593a;fill-opacity:1;fill-rule:nonzero;stroke:none"
         id="path418" />
    </g>
  </g>
</svg>
