<svg width="25" height="25" viewBox="0 0 25 25" fill="none" xmlns="http://www.w3.org/2000/svg">
<path d="M12 22C17.5228 22 22 17.5228 22 12C22 6.47715 17.5228 2 12 2C6.47715 2 2 6.47715 2 12C2 17.5228 6.47715 22 12 22Z" fill="#ECFDF3"/>
<path d="M8.5 14.6667C8.5 15.9553 9.54467 17 10.8333 17H13C14.3807 17 15.5 15.8807 15.5 14.5C15.5 13.1193 14.3807 12 13 12H11C9.61929 12 8.5 10.8807 8.5 9.5C8.5 8.11929 9.61929 7 11 7H13.1667C14.4553 7 15.5 8.04467 15.5 9.33333M12 5.5V7M12 17V18.5M22 12C22 17.5228 17.5228 22 12 22C6.47715 22 2 17.5228 2 12C2 6.47715 6.47715 2 12 2C17.5228 2 22 6.47715 22 12Z" stroke="#027A48" stroke-width="2" stroke-linecap="round" stroke-linejoin="round"/>
<path d="M19.5 23C21.7091 23 23.5 21.2091 23.5 19C23.5 16.7909 21.7091 15 19.5 15C17.2909 15 15.5 16.7909 15.5 19C15.5 21.2091 17.2909 23 19.5 23Z" fill="#ECFDF3"/>
<path d="M17.7 19L18.9 20.2L21.3 17.8M23.5 19C23.5 21.2091 21.7091 23 19.5 23C17.2909 23 15.5 21.2091 15.5 19C15.5 16.7909 17.2909 15 19.5 15C21.7091 15 23.5 16.7909 23.5 19Z" stroke="#027A48" stroke-linecap="round" stroke-linejoin="round"/>
</svg>
