<svg width="25" height="25" viewBox="0 0 25 25" fill="none" xmlns="http://www.w3.org/2000/svg">
<circle cx="12.5" cy="12.5" r="12" fill="#D9D9D9" stroke="#515356"/>
<path d="M10.125 5.375H14.875M5.375 7.75H19.625M18.0417 7.75L17.4865 16.0778C17.4032 17.3272 17.3615 17.9519 17.0917 18.4256C16.8541 18.8427 16.4957 19.1779 16.0638 19.3873C15.5732 19.625 14.9471 19.625 13.6949 19.625H11.3051C10.0529 19.625 9.42677 19.625 8.93618 19.3873C8.50427 19.1779 8.1459 18.8427 7.90832 18.4256C7.63846 17.9519 7.59681 17.3272 7.51352 16.0778L6.95833 7.75M10.9167 11.3125V15.2708M14.0833 11.3125V15.2708" stroke="#515356" stroke-width="2" stroke-linecap="round" stroke-linejoin="round"/>
</svg>
