<svg width="20" height="20" viewBox="0 0 20 20" fill="none" xmlns="http://www.w3.org/2000/svg">
<g clip-path="url(#clip0_2350_6151)">
<path d="M6.66675 6.6665H6.67508M3.80237 2.44755L2.4478 3.80212C2.15954 4.09037 2.01542 4.2345 1.91235 4.4027C1.82097 4.55182 1.75363 4.71439 1.7128 4.88445C1.66675 5.07626 1.66675 5.28009 1.66675 5.68774L1.66675 8.06193C1.66675 8.46958 1.66675 8.67341 1.7128 8.86522C1.75363 9.03528 1.82097 9.19786 1.91235 9.34698C2.01542 9.51517 2.15954 9.6593 2.4478 9.94755L8.83832 16.3381C9.82836 17.3281 10.3234 17.8231 10.8942 18.0086C11.3963 18.1718 11.9372 18.1718 12.4393 18.0086C13.0101 17.8231 13.5051 17.3281 14.4952 16.3381L16.3383 14.4949C17.3284 13.5049 17.8234 13.0099 18.0089 12.439C18.172 11.9369 18.172 11.3961 18.0089 10.894C17.8234 10.3231 17.3284 9.82812 16.3383 8.83807L9.94779 2.44755C9.65954 2.1593 9.51542 2.01517 9.34722 1.9121C9.1981 1.82072 9.03553 1.75338 8.86547 1.71255C8.67365 1.6665 8.46983 1.6665 8.06218 1.6665L5.68798 1.6665C5.28033 1.6665 5.07651 1.6665 4.8847 1.71255C4.71463 1.75338 4.55206 1.82072 4.40294 1.9121C4.23475 2.01517 4.09062 2.1593 3.80237 2.44755ZM7.08342 6.6665C7.08342 6.89662 6.89687 7.08317 6.66675 7.08317C6.43663 7.08317 6.25008 6.89662 6.25008 6.6665C6.25008 6.43639 6.43663 6.24984 6.66675 6.24984C6.89687 6.24984 7.08342 6.43639 7.08342 6.6665Z" stroke="#305FE6" stroke-width="2" stroke-linecap="round" stroke-linejoin="round"/>
</g>
<defs>
<clipPath id="clip0_2350_6151">
<rect width="20" height="20" fill="white"/>
</clipPath>
</defs>
</svg>
