<svg width="17" height="17" viewBox="0 0 17 17" fill="none" xmlns="http://www.w3.org/2000/svg">
<path fill-rule="evenodd" clip-rule="evenodd" d="M8.28105 0.781049L14.6716 7.17157L14.6716 7.17158C15.6616 8.16162 16.1566 8.65664 16.3421 9.22746C16.5052 9.72956 16.5052 10.2704 16.3421 10.7725C16.1566 11.3434 15.6616 11.8384 14.6716 12.8284L12.8284 14.6716C11.8384 15.6616 11.3434 16.1566 10.7725 16.3421C10.2704 16.5052 9.72956 16.5052 9.22745 16.3421C8.65663 16.1566 8.16161 15.6616 7.17157 14.6716L0.781048 8.28105L0.781038 8.28104C0.492792 7.99279 0.348668 7.84867 0.2456 7.68047C0.154218 7.53135 0.0868779 7.36878 0.0460501 7.19872C0 7.00691 0 6.80308 0 6.39543V4.02124C0 3.61358 0 3.40976 0.0460504 3.21795C0.0868783 3.04789 0.154219 2.88531 0.2456 2.73619C0.348669 2.568 0.492795 2.42387 0.781046 2.13562L0.781049 2.13562L2.13562 0.781048C2.42387 0.492795 2.568 0.348669 2.73619 0.2456C2.88531 0.154218 3.04789 0.0868778 3.21795 0.04605C3.40976 0 3.61359 0 4.02124 0H6.39543C6.80308 0 7.00691 0 7.19872 0.0460509C7.36878 0.0868788 7.53135 0.154219 7.68047 0.2456C7.84867 0.348669 7.99279 0.492792 8.28103 0.781037L8.28105 0.781049ZM5 6.5C5.82843 6.5 6.5 5.82843 6.5 5C6.5 4.17157 5.82843 3.5 5 3.5C4.17157 3.5 3.5 4.17157 3.5 5C3.5 5.82843 4.17157 6.5 5 6.5Z" fill="#305FE6"/>
</svg>
