<svg width="20" height="20" viewBox="0 0 20 20" fill="none" xmlns="http://www.w3.org/2000/svg">
<path d="M6 7H6.00833M3.13562 2.78105L1.78105 4.13562C1.4928 4.42387 1.34867 4.568 1.2456 4.73619C1.15422 4.88531 1.08688 5.04789 1.04605 5.21795C1 5.40976 1 5.61358 1 6.02124L1 8.39543C1 8.80308 1 9.00691 1.04605 9.19872C1.08688 9.36878 1.15422 9.53135 1.2456 9.68047C1.34867 9.84867 1.4928 9.99279 1.78105 10.281L8.17157 16.6716C9.16161 17.6616 9.65663 18.1566 10.2275 18.3421C10.7296 18.5052 11.2704 18.5052 11.7725 18.3421C12.3434 18.1566 12.8384 17.6616 13.8284 16.6716L15.6716 14.8284C16.6616 13.8384 17.1566 13.3434 17.3421 12.7725C17.5052 12.2704 17.5052 11.7296 17.3421 11.2275C17.1566 10.6566 16.6616 10.1616 15.6716 9.17157L9.28105 2.78105C8.99279 2.4928 8.84867 2.34867 8.68047 2.2456C8.53135 2.15422 8.36878 2.08688 8.19872 2.04605C8.00691 2 7.80308 2 7.39543 2L5.02124 2C4.61359 2 4.40976 2 4.21795 2.04605C4.04789 2.08688 3.88531 2.15422 3.73619 2.2456C3.568 2.34867 3.42387 2.4928 3.13562 2.78105ZM6.41667 7C6.41667 7.23012 6.23012 7.41667 6 7.41667C5.76988 7.41667 5.58333 7.23012 5.58333 7C5.58333 6.76988 5.76988 6.58333 6 6.58333C6.23012 6.58333 6.41667 6.76988 6.41667 7Z" stroke="#305FE6" stroke-width="2" stroke-linecap="round" stroke-linejoin="round"/>
<path d="M16 1V5" stroke="#305FE6" stroke-linecap="round"/>
<path d="M14 3H18" stroke="#305FE6" stroke-linecap="round"/>
</svg>
