<svg width="15" height="15" viewBox="0 0 15 15" fill="none" xmlns="http://www.w3.org/2000/svg">
<path fill-rule="evenodd" clip-rule="evenodd" d="M7.5 15C11.6421 15 15 11.6421 15 7.5C15 3.35786 11.6421 0 7.5 0C3.35786 0 0 3.35786 0 7.5C0 11.6421 3.35786 15 7.5 15ZM7 2V3.6H6.22727C4.99718 3.6 4 4.5402 4 5.7C4 6.8598 4.99718 7.8 6.22727 7.8H8.77273C9.65136 7.8 10.3636 8.47157 10.3636 9.3C10.3636 10.1284 9.65136 10.8 8.77273 10.8H6.22727C5.34864 10.8 4.63636 10.1284 4.63636 9.3H4C4 10.4598 4.99718 11.4 6.22727 11.4H7V13H8V11.4H8.77273C10.0028 11.4 11 10.4598 11 9.3C11 8.1402 10.0028 7.2 8.77273 7.2H6.22727C5.34864 7.2 4.63636 6.52843 4.63636 5.7C4.63636 4.87157 5.34864 4.2 6.22727 4.2H8.77273C9.65136 4.2 10.3636 4.87157 10.3636 5.7H11C11 4.5402 10.0028 3.6 8.77273 3.6H8V2H7Z" fill="#305FE6"/>
</svg>
