<svg width="284" height="142" viewBox="0 0 284 142" fill="none" xmlns="http://www.w3.org/2000/svg">
<mask id="mask0_260_2050" style="mask-type:alpha" maskUnits="userSpaceOnUse" x="165" y="15" width="83" height="76">
<path d="M238.307 15.9331H175.225C170.13 15.9331 166 20.2841 166 25.6518V65.6588C166 71.0265 170.13 75.3784 175.225 75.3784H185.089C187.535 75.3784 189.882 76.4021 191.611 78.2243L200.242 87.3141C203.845 91.1104 209.685 91.1104 213.288 87.3141L221.92 78.2208C223.649 76.3986 225.995 75.3749 228.442 75.3749H238.307C243.402 75.3749 247.532 71.023 247.532 65.6553V25.6483C247.532 20.2841 243.402 15.9331 238.307 15.9331Z" fill="#F2F2F2"/>
</mask>
<g mask="url(#mask0_260_2050)">
<path d="M254.859 -4.17065L158.335 3.47347V92.7562H254.859V-4.17065Z" fill="#16D3DC"/>
<path d="M206.728 65.8771L267 61.2675V8.83667L206.728 13.4458V65.8771Z" fill="#18BECB"/>
<path d="M206.776 100.47C206.37 100.48 205.964 100.5 205.559 100.5C189.938 100.5 174.317 100.5 158.696 100.5V61.1671C160.339 60.5643 161.921 59.8079 163.422 58.9082C168.271 55.9531 173.417 55.4124 178.815 57.1122C178.99 57.1681 179.179 57.1926 179.361 57.2319C181.114 57.9805 182.69 59.0663 184.391 59.9049C188.08 61.7235 191.816 61.7724 195.534 59.9363C196.08 59.6402 196.648 59.379 197.17 59.0427C200.024 57.1736 203.361 56.1749 206.773 56.168C206.774 63.6025 206.775 93.0311 206.776 100.47Z" fill="#FDDA41"/>
<path d="M206.706 100.47C207.111 100.481 207.517 100.5 207.922 100.5C223.544 100.5 239.165 100.5 254.786 100.5V61.1674C253.143 60.5646 251.56 59.8082 250.059 58.9085C245.209 55.9534 240.064 55.4144 234.666 57.1082C234.491 57.1641 234.303 57.1885 234.121 57.2278C232.368 57.9765 230.791 59.0622 229.089 59.9008C225.401 61.7195 221.665 61.7684 217.948 59.9323C217.401 59.6361 216.833 59.3749 216.312 59.0386C213.456 57.1691 210.119 56.1703 206.706 56.1639C206.706 63.6028 206.706 93.0314 206.706 100.47Z" fill="#FBBE29"/>
<path d="M206.746 19.5167L205.754 19.2494L202.738 18.431C200.532 17.8484 198.223 17.7708 195.983 18.2039C193.742 18.6371 191.629 19.5698 189.799 20.9328C187.969 22.2957 186.47 24.0537 185.414 26.076C184.357 28.0984 183.771 30.3329 183.697 32.6133C183.624 34.8937 184.066 37.1614 184.99 39.2475C185.914 41.3336 187.296 43.1844 189.035 44.6623C190.773 46.1402 192.822 47.207 195.03 47.7834C197.237 48.3598 199.547 48.431 201.785 47.9915L202.105 47.9287C202.124 47.9251 202.142 47.9211 202.16 47.9171C202.195 47.9092 202.23 47.9013 202.272 47.8972L202.456 47.8754L202.642 47.8527C202.665 47.8505 202.687 47.8473 202.709 47.8441C202.749 47.8384 202.789 47.8326 202.835 47.8326L203.246 47.8081C203.368 47.7973 203.499 47.7967 203.63 47.7961C203.648 47.7961 203.665 47.796 203.683 47.7959C203.748 47.7955 203.813 47.7944 203.879 47.7934C203.962 47.792 204.046 47.7906 204.132 47.7906L204.603 47.8046L204.841 47.8107L205.087 47.8265C206.505 47.9175 207.916 48.089 209.314 48.3401C210.796 48.5978 212.327 48.9271 213.873 49.3158C215.419 49.7045 216.992 50.1448 218.564 50.6261C221.714 51.5904 224.89 52.7103 228.047 53.9568C231.204 55.2033 234.35 56.5642 237.461 58.0335C240.571 59.5027 243.65 61.0812 246.671 62.7653C246.955 62.9235 247.238 63.0827 247.521 63.2429V47.8691C246.973 47.3122 246.421 46.7585 245.866 46.2078C243.207 43.5733 240.452 41.0209 237.59 38.5358C234.727 36.0506 231.758 33.6502 228.634 31.3336C227.07 30.1762 225.467 29.0424 223.804 27.9365C222.141 26.8307 220.423 25.7493 218.608 24.7133C216.794 23.6773 214.889 22.678 212.807 21.7433L212.418 21.5686L212.016 21.3983L211.208 21.0576C210.984 20.9672 210.755 20.8786 210.526 20.7898C210.474 20.7696 210.422 20.7494 210.369 20.7292C210.332 20.7146 210.295 20.7 210.257 20.6855C210.014 20.5908 209.771 20.4963 209.512 20.4077L208.628 20.0967C208.526 20.0599 208.416 20.0253 208.307 19.9907C208.26 19.976 208.214 19.9613 208.168 19.9465L207.703 19.7998L207.234 19.6547C207.134 19.6218 207.027 19.593 206.919 19.5641C206.861 19.5485 206.803 19.533 206.746 19.5167Z" fill="url(#paint0_linear_260_2050)"/>
</g>
<path fill-rule="evenodd" clip-rule="evenodd" d="M214.892 22.9412C209.751 13.3491 198.524 10.2202 188.772 15.6657C188.772 15.6657 188.772 15.6657 188.772 15.6658C179.559 21.1637 176.523 31.8676 181.508 41.0019C185.648 48.5962 196.467 54.0225 206.315 48.6757C206.315 48.6757 206.315 48.6757 206.315 48.6757C216.349 43.7228 220.061 32.5856 214.892 22.9412Z" fill="#9AEF4F"/>
<path d="M188.772 15.6655C186.286 28.8905 191.597 40.0366 203.419 46.4377C204.497 47.0212 205.766 47.3924 206.315 48.6756C196.467 54.0224 185.648 48.5961 181.508 41.0018C176.523 31.8675 179.559 21.1634 188.772 15.6655Z" fill="#87D93F"/>
<path d="M12.9999 125.578L16.2164 120.802C19.0811 122.825 22.0967 123.872 24.5593 123.872C26.7204 123.872 27.7256 123.117 27.7256 121.948V121.85C27.7256 120.266 25.1624 119.755 22.2474 118.877C18.5283 117.83 14.3317 116.148 14.3317 111.178V111.08C14.3317 105.866 18.6791 102.942 24.0065 102.942C27.3738 102.942 31.0175 104.038 33.8823 105.914L31.0175 110.934C28.4041 109.447 25.7907 108.546 23.8557 108.546C22.0213 108.546 21.0915 109.301 21.0915 110.325V110.422C21.0915 111.86 23.6044 112.518 26.4691 113.492C30.1631 114.686 34.4602 116.416 34.4602 121.095V121.192C34.4602 126.894 30.0626 129.477 24.3332 129.477C20.6643 129.452 16.518 128.258 12.9999 125.578Z" fill="#305FE6"/>
<path d="M35.3146 121.606V121.509C35.3146 115.905 39.7122 113.322 45.9694 113.322C48.6331 113.322 50.5681 113.76 52.4276 114.37V113.955C52.4276 110.934 50.4927 109.253 46.7484 109.253C43.8837 109.253 41.8482 109.789 39.4358 110.641L37.5511 105.086C40.4661 103.843 43.3308 103.015 47.829 103.015C51.925 103.015 54.8903 104.062 56.775 105.89C58.7602 107.815 59.6397 110.641 59.6397 114.077V128.965H52.3774V126.187C50.5429 128.161 48.03 129.452 44.3863 129.452C39.4107 129.452 35.3146 126.675 35.3146 121.606ZM52.5533 119.925V118.634C51.2717 118.049 49.588 117.683 47.7536 117.683C44.537 117.683 42.577 118.926 42.577 121.217V121.314C42.577 123.288 44.2606 124.433 46.673 124.433C50.1911 124.433 52.5533 122.557 52.5533 119.925Z" fill="#305FE6"/>
<path d="M63.1578 103.307H70.6714V106.938C72.4053 104.793 74.6167 102.82 78.4364 102.82C84.1156 102.82 87.4326 106.45 87.4326 112.347V128.965H79.919V114.662C79.919 111.226 78.2353 109.447 75.3706 109.447C72.5059 109.447 70.6714 111.226 70.6714 114.662V128.989H63.1578V103.307Z" fill="#305FE6"/>
<path d="M89.7948 116.197V116.1C89.7948 107.523 95.5745 102.844 101.832 102.844C105.827 102.844 108.29 104.623 110.074 106.67V94.0235H117.588V128.965H110.074V125.286C108.24 127.674 105.727 129.452 101.832 129.452C95.6499 129.452 89.7948 124.774 89.7948 116.197ZM110.175 116.197V116.1C110.175 111.835 107.26 109.009 103.767 109.009C100.249 109.009 97.3084 111.787 97.3084 116.1V116.197C97.3084 120.461 100.274 123.288 103.767 123.288C107.26 123.288 110.175 120.461 110.175 116.197Z" fill="#305FE6"/>
<path d="M122.614 109.545H119.498V103.551H122.614V101.918C122.614 99.0917 123.342 97.0449 124.724 95.7048C126.106 94.3646 128.142 93.6824 130.806 93.6824C133.168 93.6824 134.751 93.9748 136.133 94.389V100.432C135.052 100.042 134.022 99.7984 132.715 99.7984C130.982 99.7984 130.002 100.651 130.002 102.576V103.575H136.083V109.521H130.102V128.965H122.588V109.545H122.614Z" fill="#305FE6"/>
<path d="M137.239 103.307H144.752V108.473C146.285 104.94 148.748 102.625 153.196 102.82V110.422H152.794C147.818 110.422 144.752 113.346 144.752 119.462V128.941H137.239V103.307Z" fill="#305FE6"/>
<path d="M155.256 106.645H162.77V128.989H155.256V106.645Z" fill="#305FE6"/>
<path d="M165.585 116.294V116.197C165.585 108.863 170.962 102.844 178.677 102.844C187.522 102.844 191.568 109.496 191.568 116.782C191.568 117.367 191.518 118.024 191.468 118.707H173.048C173.777 122.021 176.164 123.726 179.506 123.726C182.019 123.726 183.853 122.971 185.914 121.095L190.211 124.774C187.748 127.747 184.18 129.574 179.406 129.574C171.465 129.55 165.585 124.14 165.585 116.294ZM184.256 114.15C183.803 110.885 181.843 108.692 178.677 108.692C175.561 108.692 173.55 110.836 172.947 114.15H184.256Z" fill="#305FE6"/>
<path d="M194.182 103.307H201.695V106.938C203.429 104.793 205.64 102.82 209.46 102.82C215.139 102.82 218.456 106.45 218.456 112.347V128.965H210.943V114.662C210.943 111.226 209.259 109.447 206.394 109.447C203.53 109.447 201.695 111.226 201.695 114.662V128.989H194.182V103.307Z" fill="#305FE6"/>
<path d="M220.793 116.197V116.1C220.793 107.523 226.573 102.844 232.83 102.844C236.826 102.844 239.288 104.623 241.073 106.67V94.0235H248.586V128.965H241.073V125.286C239.238 127.674 236.725 129.452 232.83 129.452C226.648 129.452 220.793 124.774 220.793 116.197ZM241.173 116.197V116.1C241.173 111.835 238.258 109.009 234.765 109.009C231.247 109.009 228.307 111.787 228.307 116.1V116.197C228.307 120.461 231.272 123.288 234.765 123.288C238.258 123.288 241.173 120.461 241.173 116.197Z" fill="#305FE6"/>
<path d="M250.27 125.578L253.486 120.802C256.351 122.825 259.367 123.872 261.829 123.872C263.99 123.872 264.996 123.117 264.996 121.948V121.85C264.996 120.266 262.433 119.755 259.518 118.877C255.824 117.83 251.627 116.148 251.627 111.178V111.08C251.627 105.866 255.974 102.942 261.302 102.942C264.669 102.942 268.313 104.038 271.177 105.914L268.313 110.934C265.699 109.447 263.086 108.546 261.151 108.546C259.316 108.546 258.387 109.301 258.387 110.325V110.422C258.387 111.86 260.9 112.518 263.764 113.492C267.458 114.686 271.755 116.416 271.755 121.095V121.192C271.755 126.894 267.358 129.477 261.628 129.477C257.909 129.452 253.763 128.258 250.27 125.578Z" fill="#305FE6"/>
<path fill-rule="evenodd" clip-rule="evenodd" d="M163.793 95.9032C162.302 93.102 159.047 92.1882 156.219 93.7785C156.219 93.7785 156.219 93.7786 156.219 93.7787C153.548 95.3843 152.668 98.5102 154.113 101.178C155.313 103.396 158.45 104.98 161.306 103.419C161.306 103.419 161.306 103.419 161.306 103.419C164.215 101.972 165.291 98.7198 163.793 95.9032Z" fill="#9AEF4F"/>
<path d="M156.219 93.7786C155.498 97.6408 157.038 100.896 160.466 102.765C160.779 102.936 161.147 103.044 161.306 103.419C158.45 104.98 155.313 103.396 154.113 101.178C152.668 98.5102 153.548 95.3842 156.219 93.7786Z" fill="#87D93F"/>
<defs>
<linearGradient id="paint0_linear_260_2050" x1="183.683" y1="50.2295" x2="270.593" y2="50.2295" gradientUnits="userSpaceOnUse">
<stop offset="0.2" stop-color="white"/>
<stop offset="1" stop-color="white" stop-opacity="0"/>
</linearGradient>
</defs>
</svg>
