<svg width="88" height="88" viewBox="0 0 88 88" fill="none" xmlns="http://www.w3.org/2000/svg">
<g clip-path="url(#clip0_171_313)">
<path d="M74.3687 5.72192H14.4813C9.63935 5.72192 5.72119 10.2034 5.72119 15.7403V57.0079C5.72119 62.5449 9.63935 67.0263 14.4813 67.0263H23.8467C26.1721 67.0263 28.4019 68.0818 30.0425 69.9678L38.2451 79.346C41.6695 83.2565 47.2123 83.2565 50.6367 79.346L58.8394 69.9678C60.4799 68.0818 62.7097 67.0263 65.0352 67.0263H74.3687C79.2106 67.0263 83.1288 62.5449 83.1288 57.0079V15.7403C83.1288 10.2034 79.2106 5.72192 74.3687 5.72192Z" fill="#FDDA41"/>
<path fill-rule="evenodd" clip-rule="evenodd" d="M27.2349 72.4098C26.2448 71.2715 25.0124 70.7474 23.847 70.7474H14.4816C7.13077 70.7474 2 64.1148 2 57.0075V15.7399C2 8.63264 7.13077 2 14.4816 2H74.369C81.7199 2 86.8506 8.63264 86.8506 15.7399V57.0075C86.8506 64.1148 81.7199 70.7474 74.369 70.7474H65.0355C63.8701 70.7474 62.6377 71.2715 61.6476 72.4098L61.6409 72.4175L53.4382 81.7957L53.4368 81.7974C48.5298 87.4009 40.3527 87.4009 35.4457 81.7974L27.2349 72.4098ZM14.4816 5.72152H74.369C79.211 5.72152 83.1291 10.203 83.1291 15.7399V57.0075C83.1291 62.5444 79.211 67.0259 74.369 67.0259H65.0355C62.7101 67.0259 60.4802 68.0814 58.8397 69.9674L50.637 79.3456C47.2126 83.2561 41.6699 83.2561 38.2454 79.3456L30.0428 69.9674C28.4023 68.0814 26.1724 67.0259 23.847 67.0259H14.4816C9.63968 67.0259 5.72152 62.5444 5.72152 57.0075V15.7399C5.72152 10.203 9.63968 5.72152 14.4816 5.72152Z" fill="#305FE6"/>
<path d="M31.3994 23.5322H35.1209V27.2537H31.3994V23.5322Z" fill="#305FE6"/>
<path d="M0 84H88V87.72H0V84Z" fill="#305FE6"/>
<path d="M53.7295 23.5322H57.451V27.2537H53.7295V23.5322Z" fill="#305FE6"/>
<path d="M44.7698 53.935C37.604 53.935 31.8817 49.2986 30.312 42.7348C30.2245 42.3689 30.5085 42.0261 30.8847 42.0261H58.655C59.0311 42.0261 59.3151 42.3689 59.2276 42.7348C57.6579 49.2986 51.9356 53.935 44.7698 53.935Z" fill="#305FE6"/>
</g>
<defs>
<clipPath id="clip0_171_313">
<rect width="88" height="88" fill="white"/>
</clipPath>
</defs>
</svg>
