<svg width="284" height="62" viewBox="0 0 284 62" fill="none" xmlns="http://www.w3.org/2000/svg">
<path d="M12.9999 45.5781L16.2164 40.8023C19.0811 42.8247 22.0967 43.8724 24.5593 43.8724C26.7204 43.8724 27.7256 43.1171 27.7256 41.9475V41.85C27.7256 40.2662 25.1624 39.7545 22.2474 38.8773C18.5283 37.8296 14.3317 36.1483 14.3317 31.1775V31.08C14.3317 25.8656 18.6791 22.9416 24.0065 22.9416C27.3738 22.9416 31.0175 24.0381 33.8823 25.9144L31.0175 30.9338C28.4041 29.4475 25.7907 28.5459 23.8557 28.5459C22.0213 28.5459 21.0915 29.3013 21.0915 30.3247V30.4222C21.0915 31.8598 23.6044 32.5177 26.4691 33.4923C30.1631 34.6863 34.4602 36.4163 34.4602 41.0947V41.1921C34.4602 46.8939 30.0626 49.4767 24.3332 49.4767C20.6643 49.4524 16.518 48.2584 12.9999 45.5781Z" fill="#305FE6"/>
<path d="M35.3146 41.6064V41.5089C35.3146 35.9046 39.7122 33.3218 45.9694 33.3218C48.6331 33.3218 50.5681 33.7604 52.4276 34.3695V33.9553C52.4276 30.9338 50.4927 29.2526 46.7484 29.2526C43.8837 29.2526 41.8482 29.7886 39.4358 30.6415L37.5511 25.0859C40.4661 23.8432 43.3308 23.0147 47.829 23.0147C51.925 23.0147 54.8903 24.0625 56.775 25.89C58.7602 27.8149 59.6397 30.6415 59.6397 34.0771V48.9651H52.3774V46.1873C50.5429 48.161 48.03 49.4524 44.3863 49.4524C39.4107 49.4524 35.3146 46.6746 35.3146 41.6064ZM52.5533 39.9251V38.6337C51.2717 38.0489 49.588 37.6834 47.7536 37.6834C44.537 37.6834 42.577 38.9261 42.577 41.2165V41.314C42.577 43.2877 44.2606 44.4329 46.673 44.4329C50.1911 44.4329 52.5533 42.5567 52.5533 39.9251Z" fill="#305FE6"/>
<path d="M63.1578 23.3071H70.6714V26.9377C72.4053 24.7935 74.6167 22.8198 78.4364 22.8198C84.1156 22.8198 87.4326 26.4504 87.4326 32.3471V48.965H79.919V34.6619C79.919 31.2262 78.2353 29.4475 75.3706 29.4475C72.5059 29.4475 70.6714 31.2262 70.6714 34.6619V48.9894H63.1578V23.3071Z" fill="#305FE6"/>
<path d="M89.7948 36.197V36.0995C89.7948 27.5225 95.5745 22.8442 101.832 22.8442C105.827 22.8442 108.29 24.6229 110.074 26.6697V14.0235H117.588V48.9651H110.074V45.2857C108.24 47.6736 105.727 49.4524 101.832 49.4524C95.6499 49.4524 89.7948 44.774 89.7948 36.197ZM110.175 36.197V36.0995C110.175 31.8354 107.26 29.0089 103.767 29.0089C100.249 29.0089 97.3084 31.7867 97.3084 36.0995V36.197C97.3084 40.4611 100.274 43.2877 103.767 43.2877C107.26 43.2877 110.175 40.4611 110.175 36.197Z" fill="#305FE6"/>
<path d="M122.614 29.545H119.498V23.5508H122.614V21.9182C122.614 19.0917 123.342 17.0449 124.724 15.7048C126.106 14.3646 128.142 13.6824 130.806 13.6824C133.168 13.6824 134.751 13.9748 136.133 14.389V20.4319C135.052 20.042 134.022 19.7984 132.715 19.7984C130.982 19.7984 130.002 20.6512 130.002 22.5761V23.5752H136.083V29.5206H130.102V48.9651H122.588V29.545H122.614Z" fill="#305FE6"/>
<path d="M137.239 23.3071H144.752V28.4728C146.285 24.9397 148.748 22.6249 153.196 22.8198V30.4222H152.794C147.818 30.4222 144.752 33.3461 144.752 39.4621V48.9407H137.239V23.3071Z" fill="#305FE6"/>
<path d="M155.256 26.6453H162.77V48.9894H155.256V26.6453Z" fill="#305FE6"/>
<path d="M165.585 36.2945V36.197C165.585 28.8627 170.962 22.8442 178.677 22.8442C187.522 22.8442 191.568 29.4962 191.568 36.7818C191.568 37.3666 191.518 38.0245 191.468 38.7068H173.048C173.777 42.0206 176.164 43.7263 179.506 43.7263C182.019 43.7263 183.853 42.9709 185.914 41.0947L190.211 44.774C187.748 47.7467 184.18 49.5742 179.406 49.5742C171.465 49.5498 165.585 44.1405 165.585 36.2945ZM184.256 34.1502C183.803 30.8851 181.843 28.6921 178.677 28.6921C175.561 28.6921 173.55 30.8364 172.947 34.1502H184.256Z" fill="#305FE6"/>
<path d="M194.182 23.3071H201.695V26.9377C203.429 24.7935 205.64 22.8198 209.46 22.8198C215.139 22.8198 218.456 26.4504 218.456 32.3471V48.965H210.943V34.6619C210.943 31.2262 209.259 29.4475 206.394 29.4475C203.53 29.4475 201.695 31.2262 201.695 34.6619V48.9894H194.182V23.3071Z" fill="#305FE6"/>
<path d="M220.793 36.197V36.0995C220.793 27.5225 226.573 22.8442 232.83 22.8442C236.826 22.8442 239.288 24.6229 241.073 26.6697V14.0235H248.586V48.9651H241.073V45.2857C239.238 47.6736 236.725 49.4524 232.83 49.4524C226.648 49.4524 220.793 44.774 220.793 36.197ZM241.173 36.197V36.0995C241.173 31.8354 238.258 29.0089 234.765 29.0089C231.247 29.0089 228.307 31.7867 228.307 36.0995V36.197C228.307 40.4611 231.272 43.2877 234.765 43.2877C238.258 43.2877 241.173 40.4611 241.173 36.197Z" fill="#305FE6"/>
<path d="M250.27 45.5781L253.486 40.8023C256.351 42.8247 259.367 43.8724 261.829 43.8724C263.99 43.8724 264.996 43.1171 264.996 41.9475V41.85C264.996 40.2662 262.433 39.7545 259.518 38.8773C255.824 37.8296 251.627 36.1483 251.627 31.1775V31.08C251.627 25.8656 255.974 22.9416 261.302 22.9416C264.669 22.9416 268.313 24.0381 271.177 25.9144L268.313 30.9338C265.699 29.4475 263.086 28.5459 261.151 28.5459C259.316 28.5459 258.387 29.3013 258.387 30.3247V30.4222C258.387 31.8598 260.9 32.5177 263.764 33.4923C267.458 34.6863 271.755 36.4163 271.755 41.0947V41.1921C271.755 46.8939 267.358 49.4767 261.628 49.4767C257.909 49.4524 253.763 48.2584 250.27 45.5781Z" fill="#305FE6"/>
<path fill-rule="evenodd" clip-rule="evenodd" d="M163.793 15.9032C162.302 13.102 159.047 12.1882 156.219 13.7785C156.219 13.7785 156.219 13.7786 156.219 13.7787C153.548 15.3843 152.668 18.5102 154.113 21.1777C155.313 23.3956 158.45 24.9803 161.306 23.4188C161.306 23.4188 161.306 23.4187 161.306 23.4187C164.215 21.9722 165.291 18.7198 163.793 15.9032Z" fill="#9AEF4F"/>
<path d="M156.219 13.7786C155.498 17.6408 157.038 20.8959 160.466 22.7653C160.779 22.9357 161.147 23.0441 161.306 23.4189C158.45 24.9804 155.313 23.3957 154.113 21.1778C152.668 18.5102 153.548 15.3842 156.219 13.7786Z" fill="#87D93F"/>
</svg>
