<svg width="30" height="30" viewBox="0 0 30 30" fill="none" xmlns="http://www.w3.org/2000/svg">
<g clip-path="url(#clip0_2274_2525)">
<path d="M28.5093 6.76371C28.3273 6.36996 28.0215 6.05818 27.6518 5.85281C27.282 5.64738 26.85 5.54332 26.3941 5.54332C25.5951 5.54332 24.7192 5.86336 23.9441 6.5482C23.2985 7.11785 22.7284 7.94221 22.3162 9.03867V0.958359C22.3162 0.429727 21.886 0 21.3577 0H7.90812C7.37902 0 6.94977 0.429727 6.94977 0.958359V8.81033L4.92025 8.04586C4.61123 7.92978 4.29254 7.87453 3.97895 7.87453C3.43736 7.87453 2.91377 8.03848 2.47443 8.33783C2.03463 8.63625 1.67861 9.07096 1.4774 9.60521C1.36086 9.91377 1.30566 10.2333 1.30566 10.5461C1.30566 11.0872 1.47055 11.6108 1.76891 12.0506C2.06732 12.4895 2.5025 12.8459 3.03676 13.0471L4.83687 13.7251C4.72637 13.7785 4.61955 13.8402 4.5173 13.9097C4.10187 14.193 3.7625 14.6051 3.57277 15.1113C3.4618 15.4028 3.40977 15.7054 3.40977 16.0024C3.40977 16.5159 3.56451 17.0109 3.84863 17.4286C4.13234 17.8445 4.54402 18.1812 5.05062 18.3737L5.18416 18.4233C5.13488 18.4523 5.08607 18.4832 5.03908 18.515C4.6209 18.7973 4.28334 19.209 4.09361 19.717C3.98264 20.0085 3.93061 20.3106 3.93061 20.6081C3.93061 21.1221 4.08582 21.6162 4.37041 22.0321C4.65131 22.4502 5.06346 22.7873 5.56918 22.9771L5.70225 23.0277C5.65062 23.0567 5.60135 23.088 5.55254 23.1216C5.13623 23.403 4.79732 23.8152 4.60707 24.3209C4.49609 24.6142 4.44453 24.9168 4.44453 25.2143C4.44453 25.7255 4.59975 26.2229 4.8834 26.6382C5.16705 27.0546 5.57926 27.3935 6.08539 27.5833L7.8142 28.2345C8.1057 28.344 8.40875 28.3975 8.70576 28.3975C9.12072 28.3975 9.52279 28.2934 9.88197 28.1055C10.4295 28.4794 11.0613 28.8331 11.7908 29.1306C12.985 29.6179 14.4301 29.9563 16.1529 29.9964C16.2621 29.9992 16.3694 30.0002 16.4762 30.0002C18.1539 30.0011 19.5553 29.6805 20.7191 29.0984C21.5917 28.6619 22.3272 28.0798 22.9425 27.3922C23.8672 26.3611 24.5239 25.1002 25.0199 23.7209C25.514 22.3453 25.8493 20.8487 26.1206 19.327C26.1274 19.2948 26.1624 19.1382 26.2191 18.8827C26.4424 17.8773 27.0025 15.3568 27.5237 13.0266C27.7844 11.862 28.0354 10.7447 28.2302 9.8891C28.3269 9.46172 28.4098 9.09932 28.4729 8.8299C28.5042 8.69537 28.5305 8.58398 28.5512 8.4992C28.5706 8.41629 28.5862 8.35646 28.5904 8.34217C28.6599 8.09854 28.694 7.86047 28.694 7.63066C28.6944 7.32006 28.6304 7.02533 28.5093 6.76371ZM3.37385 12.1501C3.02896 12.0202 2.75445 11.7936 2.56191 11.5118C2.3699 11.229 2.26396 10.8919 2.26396 10.5461C2.26396 10.3457 2.29895 10.1431 2.37447 9.94231C2.50479 9.59789 2.73043 9.3225 3.01326 9.12996C3.2951 8.93836 3.63307 8.83201 3.97895 8.83201C4.1784 8.83201 4.38189 8.86746 4.58176 8.94252L6.94977 9.83367V13.4967L3.37385 12.1501ZM4.64211 16.8898C4.46574 16.6291 4.36812 16.3205 4.36812 16.0023C4.36812 15.8186 4.40082 15.6326 4.46937 15.4483C4.5882 15.1324 4.79732 14.8791 5.05613 14.7023C5.31494 14.5264 5.62531 14.4287 5.94172 14.4287C6.12547 14.4287 6.3115 14.4619 6.49525 14.5301H6.49713L6.94982 14.7013L8.22635 15.1822C8.46213 15.2701 8.66111 15.4083 8.8223 15.581C8.87574 15.638 8.9259 15.7015 8.97195 15.7688C9.14785 16.0272 9.24412 16.338 9.24412 16.6539C9.24412 16.8381 9.21143 17.0242 9.14234 17.2102C9.0677 17.4096 8.95812 17.5814 8.8223 17.727C8.74168 17.814 8.65379 17.8881 8.5557 17.9554C8.29689 18.1318 7.98875 18.228 7.67053 18.228C7.48631 18.228 7.30027 18.1953 7.11652 18.1258L6.94982 18.0622L5.38771 17.4764C5.07131 17.3558 4.81801 17.1486 4.64211 16.8898ZM5.16107 21.4941C4.98564 21.2348 4.88943 20.9244 4.88943 20.608C4.88943 20.4238 4.92166 20.2378 4.99121 20.0545C5.10957 19.7363 5.31629 19.4853 5.5775 19.3066C5.83584 19.1306 6.14668 19.0339 6.46309 19.0339C6.62428 19.0339 6.78728 19.0579 6.94988 19.1131C6.97291 19.1186 6.99412 19.1287 7.01715 19.1361L8.74596 19.7873C8.77268 19.797 8.79752 19.8067 8.82242 19.8186C9.10426 19.9412 9.33043 20.1345 9.49109 20.3722C9.66793 20.6329 9.76508 20.9418 9.76508 21.26C9.76508 21.4443 9.73285 21.6294 9.66424 21.8136C9.66424 21.8154 9.66189 21.8173 9.66189 21.8191C9.54307 22.1341 9.334 22.3852 9.07748 22.5596C8.81867 22.736 8.50783 22.8332 8.19143 22.8332C8.00768 22.8332 7.82211 22.8009 7.63789 22.7323L6.94988 22.473L5.90914 22.0798C5.5908 21.9611 5.33937 21.7538 5.16107 21.4941ZM10.1984 26.3545C10.1924 26.3757 10.185 26.3987 10.1776 26.4199C10.0584 26.7358 9.85115 26.9886 9.59141 27.1649C9.33213 27.3414 9.02404 27.4399 8.70582 27.4399C8.5216 27.4399 8.33557 27.4072 8.15182 27.3376L6.42254 26.686C6.10432 26.5672 5.85336 26.3581 5.67699 26.0993C5.50062 25.8409 5.40295 25.531 5.40295 25.2142C5.40295 25.03 5.43518 24.8421 5.50479 24.6602C5.62355 24.3424 5.83221 24.0887 6.09102 23.9128C6.34197 23.7415 6.6432 23.6462 6.94988 23.6406H6.9766C7.16035 23.6406 7.34633 23.6714 7.53061 23.7415L7.60561 23.7691L9.25889 24.3922C9.57711 24.5124 9.82853 24.7201 10.0068 24.9789C10.1832 25.2391 10.2794 25.5476 10.2794 25.8663C10.2794 26.027 10.2545 26.1915 10.1984 26.3545ZM9.08521 18.8907L8.94752 18.8387C8.99727 18.8101 9.04561 18.7793 9.09447 18.7475C9.51213 18.4657 9.84928 18.0531 10.0395 17.5474C10.1504 17.254 10.2025 16.9506 10.2025 16.654C10.2025 16.1409 10.0473 15.6463 9.76309 15.23C9.53146 14.8874 9.21137 14.5973 8.82225 14.4002V2.87508H20.4813V21.7235H10.6768C10.7054 21.5687 10.7233 21.414 10.7233 21.2601C10.7233 20.7462 10.5685 20.2516 10.2849 19.8335C10.0012 19.418 9.58906 19.08 9.08521 18.8907ZM15.3042 23.6907C15.3042 24.0611 15.0035 24.3622 14.6332 24.3622C14.2624 24.3622 13.9622 24.0611 13.9622 23.6907C13.9622 23.321 14.2624 23.0203 14.6332 23.0203C15.0034 23.0203 15.3042 23.321 15.3042 23.6907ZM27.6688 8.07949C27.6536 8.13105 27.6361 8.2033 27.6094 8.31387C27.5122 8.72051 27.3123 9.59602 27.0669 10.6856C26.331 13.9516 25.1838 19.1261 25.1838 19.1261L25.1815 19.1362L25.1797 19.1463C24.943 20.4782 24.6579 21.7727 24.2688 22.9571C23.9773 23.8464 23.6272 24.6726 23.198 25.408C22.5533 26.5124 21.7382 27.4099 20.6605 28.0409C19.5815 28.6704 18.229 29.0411 16.4762 29.042C16.3777 29.042 16.2772 29.0401 16.1751 29.0383C14.565 29 13.2402 28.6873 12.1533 28.2439C11.5947 28.015 11.0996 27.7516 10.6607 27.4725C10.8325 27.263 10.9748 27.024 11.0743 26.7568C11.1245 26.6251 11.1627 26.4888 11.1876 26.3544C11.2074 26.2604 11.2198 26.166 11.2272 26.0725L21.3578 26.1628C21.8861 26.1628 22.3162 25.7336 22.3162 25.2049V12.4176C22.4902 11.8055 22.7145 11.0162 23.0051 9.99568C23.3786 8.686 23.9616 7.81143 24.5787 7.26574C25.1963 6.72047 25.8521 6.50127 26.3941 6.50127C26.8077 6.50127 27.1498 6.62836 27.3768 6.82271C27.4902 6.92033 27.5776 7.03318 27.6389 7.16584C27.6996 7.29797 27.7351 7.44996 27.7356 7.63049C27.7356 7.76449 27.7158 7.91367 27.6688 8.07949Z" fill="black"/>
</g>
<defs>
<clipPath id="clip0_2274_2525">
<rect width="30" height="30" fill="white"/>
</clipPath>
</defs>
</svg>
