<svg width="88" height="88" viewBox="0 0 88 88" fill="none" xmlns="http://www.w3.org/2000/svg">
<g clip-path="url(#clip0_171_314)">
<path d="M74.3691 5.72192H14.4818C9.63984 5.72192 5.72168 10.2034 5.72168 15.7403V57.0079C5.72168 62.5448 9.63984 67.0263 14.4818 67.0263H23.8472C26.1726 67.0263 28.4024 68.0818 30.043 69.9678L38.2456 79.346C41.67 83.2565 47.2128 83.2565 50.6372 79.346L58.8399 69.9678C60.4804 68.0818 62.7102 67.0263 65.0356 67.0263H74.3691C79.2111 67.0263 83.1293 62.5448 83.1293 57.0079V15.7403C83.1293 10.2034 79.2111 5.72192 74.3691 5.72192Z" fill="#FDDA41"/>
<path fill-rule="evenodd" clip-rule="evenodd" d="M27.2349 72.4098C26.2448 71.2715 25.0124 70.7474 23.847 70.7474H14.4816C7.13077 70.7474 2 64.1148 2 57.0075V15.7399C2 8.63264 7.13077 2 14.4816 2H74.369C81.7199 2 86.8506 8.63264 86.8506 15.7399V57.0075C86.8506 64.1148 81.7199 70.7474 74.369 70.7474H65.0355C63.8701 70.7474 62.6377 71.2715 61.6476 72.4098L61.6409 72.4175L53.4382 81.7957L53.4368 81.7974C48.5298 87.4009 40.3527 87.4009 35.4457 81.7974L27.2349 72.4098ZM14.4816 5.72152H74.369C79.211 5.72152 83.1291 10.203 83.1291 15.7399V57.0075C83.1291 62.5444 79.211 67.0259 74.369 67.0259H65.0355C62.7101 67.0259 60.4802 68.0814 58.8397 69.9674L50.637 79.3456C47.2126 83.2561 41.6699 83.2561 38.2454 79.3456L30.0428 69.9674C28.4023 68.0814 26.1724 67.0259 23.847 67.0259H14.4816C9.63968 67.0259 5.72152 62.5444 5.72152 57.0075V15.7399C5.72152 10.203 9.63968 5.72152 14.4816 5.72152Z" fill="#305FE6"/>
<path d="M29.5396 23.5327H33.2611V27.2542H29.5396V23.5327Z" fill="#305FE6"/>
<path d="M59.311 23.5327H63.0326V27.2542H59.311V23.5327Z" fill="#305FE6"/>
<path fill-rule="evenodd" clip-rule="evenodd" d="M62.7099 45.8326C50.7592 43.7237 40.6586 48.4375 32.4326 53.9218L30.3682 50.8254C38.889 45.1445 50.001 39.8109 63.3567 42.1678L62.7099 45.8326Z" fill="#305FE6"/>
<path d="M2 84H90V87.72H2V84Z" fill="#305FE6"/>
</g>
<defs>
<clipPath id="clip0_171_314">
<rect width="88" height="88" fill="white"/>
</clipPath>
</defs>
</svg>
