<svg width="40" height="40" viewBox="0 0 40 40" fill="none" xmlns="http://www.w3.org/2000/svg">
<circle cx="20" cy="20" r="20" fill="#E8FE6B"/>
<path fill-rule="evenodd" clip-rule="evenodd" d="M9.5 5L11.9934 5.22667C13.9803 5.4073 15.9158 5.95792 17.7003 6.85013L20 8L17.1228 9.43858C16.3754 9.81228 15.6584 10.244 14.9785 10.7297L12.5 12.5L9 15.5V11V9.63708C9 8.87998 9.05374 8.12384 9.16081 7.37434L9.5 5ZM13.5 29.5L11.603 25.3266C11.2018 24.444 10.8817 23.5268 10.6466 22.5863L10 20L9 15.5L6 19.5L5.18855 20.7172C4.3997 21.9004 3.77213 23.1836 3.32242 24.5327L3 25.5L0.5 23L1 24.5L1.07402 24.7961C1.35716 25.9286 1.76339 27.0268 2.28547 28.0709L2.5 28.5L3 25.5L6.58295 27.2915C7.52534 27.7627 8.51198 28.1396 9.52849 28.4169L13.5 29.5ZM27 29.5L23 30H19L13.5 29.5L15.5 32.5L17 34.5L17.1286 34.6714C18.0382 35.8843 19.1157 36.9618 20.3286 37.8714L20.5 38L17 39.5H19.5H21.5H22.5L20.5 38L20.6714 37.8714C21.8843 36.9618 22.9618 35.8843 23.8714 34.6714L24 34.5L24.6344 33.6542C25.2103 32.8863 25.7159 32.0681 26.1452 31.2096L27 29.5ZM27 29.5L29 26L30 23L31 20L31.5 16.5L33.5 18.5L35.5 21L37 23L37.9638 25.4094L38 25.5L39 24V24.441C39 24.8086 38.9144 25.1712 38.75 25.5L38.7236 25.5528C38.5766 25.8469 38.5 26.1712 38.5 26.5C38.5 26.8288 38.4234 27.1531 38.2764 27.4472L37.5 29L37.9488 25.5256L35 27L32 28L27 29.5ZM31 5.5L31.1893 6.44645C31.3959 7.47962 31.5 8.53068 31.5 9.58431V10.5V16L29.4364 13.9364C28.8132 13.3132 28.1396 12.7426 27.4225 12.2303L26.0215 11.2297C25.3416 10.744 24.6246 10.3123 23.8772 9.93858L20 8L22 7.25L24 6.5L25.3453 6.11562C26.7748 5.7072 28.2542 5.5 29.7409 5.5H31ZM31 5.5L29 2.5L31 3.5L32.1056 4.32918C32.6938 4.77033 33.1712 5.34237 33.5 6L31 5.5ZM11 2.5L9.5 5L6 6L6.37972 5.62028C7.12475 4.87525 7.94155 4.20563 8.81823 3.62118L9 3.5L11 2.5Z" fill="black"/>
<path d="M11.9934 5.22667L11.9708 5.47565L11.9934 5.22667ZM17.7003 6.85013L17.5885 7.07374L17.7003 6.85013ZM14.9785 10.7297L15.1238 10.9331L14.9785 10.7297ZM12.5 12.5L12.3547 12.2966L12.3457 12.303L12.3373 12.3102L12.5 12.5ZM9.16081 7.37434L9.4083 7.4097V7.4097L9.16081 7.37434ZM11.603 25.3266L11.8306 25.2231L11.603 25.3266ZM10.6466 22.5863L10.8891 22.5257L10.6466 22.5863ZM10 20L9.75587 20.0543L9.75746 20.0606L10 20ZM6 19.5L5.79969 19.3498L5.79199 19.3613L6 19.5ZM5.18855 20.7172L4.98054 20.5785L5.18855 20.7172ZM3.32242 24.5327L3.08525 24.4537H3.08525L3.32242 24.5327ZM0.5 23L0.676777 22.8232L0.262829 23.0791L0.5 23ZM1 24.5L1.24254 24.4394L1.24021 24.4301L1.23717 24.4209L1 24.5ZM1.07402 24.7961L0.831486 24.8567H0.831486L1.07402 24.7961ZM2.28547 28.0709L2.06186 28.1827H2.06186L2.28547 28.0709ZM2.5 28.5L2.27639 28.6118L2.62021 29.2994L2.7466 28.5411L2.5 28.5ZM6.58295 27.2915L6.69475 27.0679L6.58295 27.2915ZM9.52849 28.4169L9.59427 28.1757H9.59426L9.52849 28.4169ZM23 30V30.25H23.0156L23.031 30.2481L23 30ZM19 30L18.9774 30.249L18.9887 30.25H19V30ZM15.5 32.5L15.2917 32.6389L15.3 32.65L15.5 32.5ZM17 34.5L17.2 34.35L17 34.5ZM17.1286 34.6714L16.9286 34.8214V34.8214L17.1286 34.6714ZM20.3286 37.8714L20.1786 38.0714L20.3286 37.8714ZM17 39.5L16.9015 39.2702L17 39.75V39.5ZM22.5 39.5V39.75H23.25L22.65 39.3L22.5 39.5ZM20.6714 37.8714L20.8214 38.0714L20.6714 37.8714ZM23.8714 34.6714L24.0714 34.8214V34.8214L23.8714 34.6714ZM24 34.5L23.8 34.35L24 34.5ZM24.6344 33.6542L24.4344 33.5042L24.6344 33.6542ZM26.1452 31.2096L25.9216 31.0978L26.1452 31.2096ZM29 26L29.2171 26.124L29.2293 26.1025L29.2372 26.0791L29 26ZM31 20L31.2372 20.0791L31.2443 20.0577L31.2475 20.0354L31 20ZM31.5 16.5L31.6768 16.3232L31.3232 15.9697L31.2525 16.4646L31.5 16.5ZM33.5 18.5L33.6952 18.3438L33.6866 18.333L33.6768 18.3232L33.5 18.5ZM35.5 21L35.7001 20.8499L35.6952 20.8438L35.5 21ZM37 23L37.2321 22.9072L37.2198 22.8765L37.2 22.85L37 23ZM37.9638 25.4094L38.1959 25.3166V25.3166L37.9638 25.4094ZM38 25.5L37.7679 25.5928L37.9444 26.0341L38.208 25.6387L38 25.5ZM39 24H39.25V23.1743L38.792 23.8613L39 24ZM38.75 25.5L38.9736 25.6118L38.75 25.5ZM37.5 29L37.2521 28.968L37.7236 29.1118L37.5 29ZM37.9488 25.5256L38.1967 25.5576L38.2568 25.0921L37.837 25.302L37.9488 25.5256ZM35 27L35.0791 27.2372L35.0959 27.2316L35.1118 27.2236L35 27ZM32 28L32.0719 28.2396L32.0791 28.2372L32 28ZM31.1893 6.44645L30.9441 6.49548L31.1893 6.44645ZM31.5 16L31.3232 16.1768L31.75 16.6036V16H31.5ZM27.4225 12.2303L27.2771 12.4338L27.4225 12.2303ZM26.0215 11.2297L26.1669 11.0262L26.0215 11.2297ZM23.8772 9.93858L23.989 9.71497L23.8772 9.93858ZM24 6.5L23.9313 6.25962L23.9216 6.26238L23.9122 6.26592L24 6.5ZM25.3453 6.11562L25.2767 5.87524L25.3453 6.11562ZM29 2.5L29.1118 2.27639L28.2698 1.85539L28.792 2.63868L29 2.5ZM31 3.5L31.15 3.3L31.132 3.28647L31.1118 3.27639L31 3.5ZM32.1056 4.32918L32.2556 4.12918V4.12918L32.1056 4.32918ZM33.5 6L33.451 6.24515L33.9522 6.34539L33.7236 5.8882L33.5 6ZM11 2.5L11.2144 2.62862L11.6561 1.89245L10.8882 2.27639L11 2.5ZM6 6L5.82322 5.82322L5.14102 6.50543L6.06868 6.24038L6 6ZM6.37972 5.62028L6.20294 5.4435L6.37972 5.62028ZM8.81823 3.62118L8.67955 3.41317V3.41317L8.81823 3.62118ZM9 3.5L8.8882 3.27639L8.87428 3.28335L8.86133 3.29199L9 3.5ZM12.016 4.9777L9.52263 4.75103L9.47737 5.24897L11.9708 5.47565L12.016 4.9777ZM17.8121 6.62652C15.9998 5.72037 14.034 5.16115 12.016 4.9777L11.9708 5.47565C13.9266 5.65345 15.8319 6.19546 17.5885 7.07374L17.8121 6.62652ZM20.1118 7.77639L17.8121 6.62652L17.5885 7.07374L19.8882 8.22361L20.1118 7.77639ZM17.2346 9.66218L20.1118 8.22361L19.8882 7.77639L17.011 9.21497L17.2346 9.66218ZM15.1238 10.9331C15.7931 10.455 16.4989 10.0301 17.2346 9.66218L17.011 9.21497C16.2519 9.59452 15.5238 10.0329 14.8331 10.5262L15.1238 10.9331ZM12.6453 12.7034L15.1238 10.9331L14.8331 10.5262L12.3547 12.2966L12.6453 12.7034ZM9.1627 15.6898L12.6627 12.6898L12.3373 12.3102L8.8373 15.3102L9.1627 15.6898ZM8.75 11V15.5H9.25V11H8.75ZM8.75 9.63708V11H9.25V9.63708H8.75ZM8.91332 7.33899C8.80458 8.10019 8.75 8.86815 8.75 9.63708H9.25C9.25 8.89181 9.3029 8.14748 9.4083 7.4097L8.91332 7.33899ZM9.25251 4.96464L8.91332 7.33899L9.4083 7.4097L9.74749 5.03536L9.25251 4.96464ZM13.7276 29.3965L11.8306 25.2231L11.3754 25.43L13.2724 29.6035L13.7276 29.3965ZM11.8306 25.2231C11.4357 24.3544 11.1206 23.4515 10.8891 22.5257L10.404 22.6469C10.6428 23.6022 10.968 24.5337 11.3754 25.43L11.8306 25.2231ZM10.8891 22.5257L10.2425 19.9394L9.75746 20.0606L10.404 22.6469L10.8891 22.5257ZM10.244 19.9458L9.24405 15.4458L8.75595 15.5542L9.75595 20.0542L10.244 19.9458ZM8.8 15.35L5.8 19.35L6.2 19.65L9.2 15.65L8.8 15.35ZM5.79199 19.3613L4.98054 20.5785L5.39656 20.8559L6.20801 19.6387L5.79199 19.3613ZM4.98054 20.5785C4.17937 21.7803 3.54199 23.0835 3.08525 24.4537L3.55959 24.6118C4.00228 23.2837 4.62004 22.0206 5.39656 20.8559L4.98054 20.5785ZM3.08525 24.4537L2.76283 25.4209L3.23717 25.5791L3.55959 24.6118L3.08525 24.4537ZM0.323223 23.1768L2.82322 25.6768L3.17678 25.3232L0.676777 22.8232L0.323223 23.1768ZM1.23717 24.4209L0.737171 22.9209L0.262829 23.0791L0.762829 24.5791L1.23717 24.4209ZM1.31656 24.7355L1.24254 24.4394L0.757464 24.5606L0.831486 24.8567L1.31656 24.7355ZM2.50907 27.9591C1.99515 26.9313 1.59527 25.8503 1.31656 24.7355L0.831486 24.8567C1.11905 26.007 1.53163 27.1223 2.06186 28.1827L2.50907 27.9591ZM2.72361 28.3882L2.50907 27.9591L2.06186 28.1827L2.27639 28.6118L2.72361 28.3882ZM2.7534 25.4589L2.2534 28.4589L2.7466 28.5411L3.2466 25.5411L2.7534 25.4589ZM2.8882 25.7236L6.47114 27.5151L6.69475 27.0679L3.1118 25.2764L2.8882 25.7236ZM6.47114 27.5151C7.42827 27.9936 8.43032 28.3765 9.46271 28.6581L9.59426 28.1757C8.59364 27.9028 7.62242 27.5317 6.69475 27.0679L6.47114 27.5151ZM9.46271 28.6581L13.4342 29.7412L13.5658 29.2588L9.59427 28.1757L9.46271 28.6581ZM26.969 29.2519L22.969 29.7519L23.031 30.2481L27.031 29.7481L26.969 29.2519ZM23 29.75H19V30.25H23V29.75ZM19.0226 29.751L13.5226 29.251L13.4774 29.749L18.9774 30.249L19.0226 29.751ZM13.292 29.6387L15.292 32.6387L15.708 32.3613L13.708 29.3613L13.292 29.6387ZM15.3 32.65L16.8 34.65L17.2 34.35L15.7 32.35L15.3 32.65ZM16.8 34.65L16.9286 34.8214L17.3286 34.5214L17.2 34.35L16.8 34.65ZM16.9286 34.8214C17.8525 36.0533 18.9467 37.1475 20.1786 38.0714L20.4786 37.6714C19.2846 36.776 18.224 35.7154 17.3286 34.5214L16.9286 34.8214ZM20.1786 38.0714L20.35 38.2L20.65 37.8L20.4786 37.6714L20.1786 38.0714ZM20.4015 37.7702L16.9015 39.2702L17.0985 39.7298L20.5985 38.2298L20.4015 37.7702ZM17 39.75H19.5V39.25H17V39.75ZM19.5 39.75H21.5V39.25H19.5V39.75ZM21.5 39.75H22.5V39.25H21.5V39.75ZM22.65 39.3L20.65 37.8L20.35 38.2L22.35 39.7L22.65 39.3ZM20.65 38.2L20.8214 38.0714L20.5214 37.6714L20.35 37.8L20.65 38.2ZM20.8214 38.0714C22.0533 37.1475 23.1475 36.0533 24.0714 34.8214L23.6714 34.5214C22.776 35.7154 21.7154 36.776 20.5214 37.6714L20.8214 38.0714ZM24.0714 34.8214L24.2 34.65L23.8 34.35L23.6714 34.5214L24.0714 34.8214ZM24.2 34.65L24.8344 33.8042L24.4344 33.5042L23.8 34.35L24.2 34.65ZM24.8344 33.8042C25.4193 33.0243 25.9328 32.1933 26.3688 31.3214L25.9216 31.0978C25.499 31.9429 25.0013 32.7483 24.4344 33.5042L24.8344 33.8042ZM26.3688 31.3214L27.2236 29.6118L26.7764 29.3882L25.9216 31.0978L26.3688 31.3214ZM28.7829 25.876L26.7829 29.376L27.2171 29.624L29.2171 26.124L28.7829 25.876ZM29.7628 22.9209L28.7628 25.9209L29.2372 26.0791L30.2372 23.0791L29.7628 22.9209ZM30.7628 19.9209L29.7628 22.9209L30.2372 23.0791L31.2372 20.0791L30.7628 19.9209ZM31.2525 16.4646L30.7525 19.9646L31.2475 20.0354L31.7475 16.5354L31.2525 16.4646ZM33.6768 18.3232L31.6768 16.3232L31.3232 16.6768L33.3232 18.6768L33.6768 18.3232ZM35.6952 20.8438L33.6952 18.3438L33.3048 18.6562L35.3048 21.1562L35.6952 20.8438ZM37.2 22.85L35.7 20.85L35.3 21.15L36.8 23.15L37.2 22.85ZM38.1959 25.3166L37.2321 22.9072L36.7679 23.0928L37.7317 25.5023L38.1959 25.3166ZM38.2321 25.4072L38.1959 25.3166L37.7317 25.5023L37.7679 25.5928L38.2321 25.4072ZM38.792 23.8613L37.792 25.3613L38.208 25.6387L39.208 24.1387L38.792 23.8613ZM39.25 24.441V24H38.75V24.441H39.25ZM38.9736 25.6118C39.1554 25.2483 39.25 24.8474 39.25 24.441H38.75C38.75 24.7698 38.6734 25.0941 38.5264 25.3882L38.9736 25.6118ZM38.9472 25.6646L38.9736 25.6118L38.5264 25.3882L38.5 25.441L38.9472 25.6646ZM38.75 26.5C38.75 26.21 38.8175 25.924 38.9472 25.6646L38.5 25.441C38.3356 25.7698 38.25 26.1324 38.25 26.5H38.75ZM38.5 27.559C38.6644 27.2302 38.75 26.8676 38.75 26.5H38.25C38.25 26.79 38.1825 27.076 38.0528 27.3354L38.5 27.559ZM37.7236 29.1118L38.5 27.559L38.0528 27.3354L37.2764 28.8882L37.7236 29.1118ZM37.7008 25.4936L37.2521 28.968L37.7479 29.032L38.1967 25.5576L37.7008 25.4936ZM35.1118 27.2236L38.0606 25.7492L37.837 25.302L34.8882 26.7764L35.1118 27.2236ZM32.0791 28.2372L35.0791 27.2372L34.9209 26.7628L31.9209 27.7628L32.0791 28.2372ZM27.0718 29.7395L32.0718 28.2395L31.9282 27.7605L26.9282 29.2605L27.0718 29.7395ZM31.4344 6.39742L31.2451 5.45097L30.7549 5.54903L30.9441 6.49548L31.4344 6.39742ZM31.75 9.58431C31.75 8.51422 31.6443 7.44674 31.4344 6.39742L30.9441 6.49548C31.1476 7.51251 31.25 8.54714 31.25 9.58431H31.75ZM31.75 10.5V9.58431H31.25V10.5H31.75ZM31.75 16V10.5H31.25V16H31.75ZM29.2596 14.1131L31.3232 16.1768L31.6768 15.8232L29.6131 13.7596L29.2596 14.1131ZM27.2771 12.4338C27.9831 12.938 28.6461 13.4997 29.2596 14.1131L29.6131 13.7596C28.9802 13.1267 28.2961 12.5471 27.5678 12.0269L27.2771 12.4338ZM25.8762 11.4331L27.2771 12.4338L27.5678 12.0269L26.1669 11.0262L25.8762 11.4331ZM23.7654 10.1622C24.5011 10.5301 25.2069 10.955 25.8762 11.4331L26.1669 11.0262C25.4762 10.5329 24.7481 10.0945 23.989 9.71497L23.7654 10.1622ZM19.8882 8.22361L23.7654 10.1622L23.989 9.71497L20.1118 7.77639L19.8882 8.22361ZM21.9122 7.01592L19.9122 7.76592L20.0878 8.23408L22.0878 7.48408L21.9122 7.01592ZM23.9122 6.26592L21.9122 7.01592L22.0878 7.48408L24.0878 6.73408L23.9122 6.26592ZM25.2767 5.87524L23.9313 6.25962L24.0687 6.74038L25.414 6.356L25.2767 5.87524ZM29.7409 5.25C28.231 5.25 26.7285 5.46044 25.2767 5.87524L25.414 6.356C26.8211 5.95396 28.2774 5.75 29.7409 5.75V5.25ZM31 5.25H29.7409V5.75H31V5.25ZM28.792 2.63868L30.792 5.63867L31.208 5.36133L29.208 2.36132L28.792 2.63868ZM31.1118 3.27639L29.1118 2.27639L28.8882 2.72361L30.8882 3.72361L31.1118 3.27639ZM32.2556 4.12918L31.15 3.3L30.85 3.7L31.9556 4.52918L32.2556 4.12918ZM33.7236 5.8882C33.3774 5.19585 32.8748 4.59362 32.2556 4.12918L31.9556 4.52918C32.5127 4.94704 32.9649 5.48889 33.2764 6.1118L33.7236 5.8882ZM30.951 5.74515L33.451 6.24515L33.549 5.75485L31.049 5.25485L30.951 5.74515ZM9.71437 5.12862L11.2144 2.62862L10.7856 2.37138L9.28563 4.87138L9.71437 5.12862ZM6.06868 6.24038L9.56868 5.24038L9.43132 4.75962L5.93132 5.75962L6.06868 6.24038ZM6.20294 5.4435L5.82322 5.82322L6.17678 6.17678L6.5565 5.79705L6.20294 5.4435ZM8.67955 3.41317C7.78918 4.00675 6.95962 4.68683 6.20294 5.4435L6.5565 5.79705C7.28989 5.06367 8.09393 4.40451 8.9569 3.82919L8.67955 3.41317ZM8.86133 3.29199L8.67955 3.41317L8.9569 3.82919L9.13867 3.70801L8.86133 3.29199ZM10.8882 2.27639L8.8882 3.27639L9.1118 3.72361L11.1118 2.72361L10.8882 2.27639Z" fill="black"/>
<circle cx="20" cy="20" r="19.75" stroke="black" stroke-width="0.5"/>
</svg>
