<svg width="40" height="40" viewBox="0 0 40 40" fill="none" xmlns="http://www.w3.org/2000/svg">
<circle cx="20" cy="20" r="20" fill="#FF6B40"/>
<path d="M26 1L25.9329 1.24083C27.0606 1.55496 28.1444 2.00904 29.1593 2.59247L29.3754 2.71673L29.5 2.5L29.4015 2.72979C31.0045 3.41676 32.3428 4.64734 33.6748 5.8722C33.7792 5.96821 33.8836 6.06419 33.9881 6.15987L34.469 6.60038C34.7843 6.91612 35.0677 7.2621 35.3152 7.63334L36.9031 10.0152C37.5038 10.9163 37.9544 11.9083 38.2377 12.9526C36.7813 12.5649 35.2117 13.0492 34.2289 14.2286L33.4695 15.1399L29.5269 19.0825C28.5594 20.05 27.4671 20.8843 26.2791 21.5632L24.6538 22.4919L23.1512 23.1359C21.8851 23.6785 20.549 24.0405 19.1821 24.2114L18.9937 24.235C17.9075 24.3707 16.8086 24.3707 15.7223 24.235L15.4499 24.2009C14.1467 24.038 12.8808 23.6547 11.7061 23.0674L11.1805 22.8046C10.1464 22.2875 9.22616 21.569 8.47376 20.6912C7.34009 19.3686 6.6309 17.7353 6.43853 16.004L6.25 14.3071V12.293C6.25 11.0516 6.47327 9.82031 6.90916 8.65794C7.42807 7.27418 8.23722 6.01756 9.28222 4.97256L10.6132 3.64159L12.0033 2.48319C12.9372 1.70495 14.0238 1.13289 15.1919 0.803252C15.3366 0.762431 15.49 0.744913 15.6479 0.746492C15.9083 0.749095 16.1636 0.706309 16.4055 0.633804C17.686 0.249998 18.5466 0.249999 18.9981 0.25H19H20.8447C22.1068 0.25 23.193 0.431398 24.4301 0.740214L25.9209 1.23717L26 1Z" stroke="#E3DDB1" stroke-width="0.5" fill="#E8FE6B"/>
<circle cx="20" cy="20" r="19.75" stroke="black" stroke-width="0.5"/>
</svg>
