<svg width="41" height="41" viewBox="0 0 41 41" fill="none" xmlns="http://www.w3.org/2000/svg">
<path d="M15.6955 17.7215L12.9258 15.6443C12.0774 15.008 11.132 14.5126 10.1259 14.1772L9.72613 15.3767C9.65563 15.5882 9.55007 15.7864 9.41388 15.9629C9.14522 16.3111 8.99951 16.7385 8.99951 17.1783V19V21V21.8665C8.99951 23.1492 9.15376 24.4272 9.45892 25.6731L9.61962 26.3291L10.1259 28.8608L11.1386 32.4051L11.5325 33.3899C11.9439 34.4183 12.4609 35.4013 13.0753 36.3229L13.1639 36.4557L13.5179 37.0457C14.2787 38.3138 15.3854 39.3386 16.7082 40H19.2398L19.495 40.0221C21.0049 40.1527 22.5258 40.0682 24.012 39.7709L24.303 39.7127L26.5 39L24.303 38.481C23.3041 38.1481 22.3964 37.5871 21.6519 36.8425L21.5838 36.7745C21.0373 36.228 20.5826 35.597 20.2369 34.9057L19.7461 33.9241L19.1948 32.5457C18.8879 31.7785 18.6519 30.9847 18.4899 30.1744C18.3151 29.3008 18.2271 28.4121 18.2271 27.5211V26.3291V24.9346C18.2271 24.1775 18.2809 23.4213 18.3879 22.6718L18.7335 20.2532L15.6955 17.7215Z" fill="#FFD40E"/>
<path d="M22.2783 18.7342L18.734 20.2532L14.1771 16.7088L12.6581 15.6962L11.1392 14.6835L10.1265 14.1772L9.62018 15.5C9.4077 16.304 9.27276 17.1266 9.2172 17.9564L9.11386 19.5V22V22.8404C9.11386 24.1486 9.27429 25.4519 9.59157 26.721L9.62018 26.8354L10.1265 28.8607L10.6328 30.8861L11.1392 32.405L11.9982 34.4095C12.4361 35.4314 13.0102 36.3894 13.7047 37.2575C14.3546 38.0699 15.1046 38.7968 15.9368 39.421L16.7087 40L14.6834 39.4936L14.2432 39.3469C13.5249 39.1075 12.8246 38.8174 12.1474 38.4788L11.1392 37.9747L11.0352 37.9227C9.76264 37.2864 8.60095 36.4491 7.59489 35.443C7.25816 35.1063 6.95552 34.7371 6.69137 34.3409L6.07591 33.4177L5.06327 31.3924L4.05062 28.8607L3.54429 26.8354L3.40637 26.2837C3.16169 25.305 3.03797 24.3 3.03797 23.2911V22.8501C3.03797 21.7965 3.14204 20.7454 3.34867 19.7123L3.54429 18.7342L4.05062 16.7088L5.06327 14.1772L5.56959 13.1645C4.57914 13.1645 3.61086 13.4577 2.78676 14.0071L2.53164 14.1772L0.506348 15.6962L1.01267 13.6709C1.33621 12.5616 1.80095 11.4984 2.39546 10.5075L2.99998 9.5L3.99997 8L4.08909 7.94825C5.06801 7.37984 6.1417 6.99325 7.25827 6.80715C8.15305 6.65802 9.06473 6.63943 9.96485 6.75194L12.6581 7.0886L15.1897 7.59493L16.8397 8.12633C17.612 8.37508 18.3643 8.68222 19.09 9.0451L20.9998 10L24.3036 11.6456L28.9997 14.5C28.0046 15.4952 26.8759 16.3472 25.6461 17.0316L25.3162 17.2152L22.2783 18.7342Z" fill="#305FE6"/>
<path d="M4.41908 7.44131L4 7.99999L5.66401 7.48802C7.59985 6.89241 9.64778 6.75568 11.6456 7.08866L14.6836 7.59499L16.798 8.19912C17.7492 8.47088 18.6731 8.83028 19.5579 9.27268L22.2784 10.633L25.8227 12.6583L29.367 14.6836L29.4932 14.5574C30.4182 13.6324 31.2263 12.5974 31.8993 11.4756L32.4049 10.633L28.8606 7.59499L26.329 5.56967L24.8237 4.56609C23.8053 3.88718 22.7124 3.32735 21.5664 2.89761L21.1086 2.72593C19.868 2.26069 18.5744 1.95136 17.2575 1.80504L16.605 1.73254C15.3287 1.59072 14.0399 1.60308 12.7666 1.76933L10.9999 2L8.60768 3.54436L7.44188 4.41872C6.8696 4.84793 6.32851 5.31721 5.82269 5.82304C5.31714 6.3286 4.84809 6.86938 4.41908 7.44131Z" fill="white"/>
<path d="M0.333534 16.2396L0.499995 15.5L1.51897 14.6835C2.5219 14.0149 3.64611 13.5492 4.82808 13.3128L5.56957 13.1646L4.5556 15.5305C4.21947 16.3148 3.94662 17.1248 3.73966 17.9526L3.54427 18.7342L3.40635 19.2858C3.16167 20.2646 3.03795 21.2696 3.03795 22.2785V23.2911C3.03795 24.3 3.16167 25.305 3.40635 26.2837L3.54427 26.8354L4.55692 29.8734L4.58897 29.9535C5.23831 31.5769 6.14934 33.0829 7.28583 34.4115L9.49991 37L6.75318 35.038C6.25192 34.6799 5.78109 34.2811 5.34551 33.8455C4.4549 32.9549 3.72113 31.9203 3.17515 30.7852L3.03795 30.5L2 28L1.76445 27.5768C0.932761 26.0826 0.382323 24.4484 0.140482 22.7555C0.0469455 22.1008 0 21.4402 0 20.7788V19.2405C0 18.2309 0.11186 17.2245 0.333534 16.2396Z" fill="#FFD40E"/>
<path d="M27.6998 38.4387L26.3283 38.9873H25.4616C25.0296 38.9873 24.6004 38.9177 24.1906 38.7811C23.5986 38.5837 23.0607 38.2513 22.6194 37.8101L21.7714 36.962L21.5593 36.7499C21.0291 36.2197 20.5878 35.6074 20.2524 34.9367C21.5822 35.2691 22.9733 35.2691 24.303 34.9367C25.9778 34.6018 27.5807 33.9753 29.0387 33.086L29.9994 32.5L32.4994 31L33.4947 30.2765C34.7857 29.3379 35.9291 28.2115 36.8868 26.9346L36.9611 26.8354C37.9672 25.494 38.7504 23.9992 39.2807 22.4084L39.9991 20.2532V21.0733C39.9991 22.0225 39.9146 22.9699 39.7466 23.9042L39.6354 24.523C39.5404 25.0513 39.4076 25.572 39.2378 26.0812C39.0704 26.5834 38.8676 27.0731 38.6309 27.5465L37.9738 28.8608L37.4675 29.8734L35.9994 32L35.7181 32.375C34.9089 33.454 33.9664 34.4263 32.9132 35.2689L31.9994 36L30.4994 37L29.934 37.3361C29.2191 37.7612 28.4721 38.1298 27.6998 38.4387Z" fill="white"/>
<path d="M19.9273 34.2845L20.2533 34.9366C21.5869 35.27 22.9778 35.3031 24.3257 35.0335L24.8103 34.9366L26.3452 34.4249C27.3448 34.0918 28.309 33.6606 29.2238 33.1379L31.3925 31.8986L33.2623 30.563C34.374 29.7689 35.3794 28.8357 36.2541 27.7862L36.6873 27.2663C37.2072 26.6424 37.6782 25.9792 38.0961 25.2828L38.3225 24.9054C38.7644 24.1689 39.1244 23.3863 39.3959 22.5715L39.7599 21.4798C39.9189 21.0027 40 20.503 40 20V18.7341V17.2151L39.9112 16.51C39.6746 14.6321 39.1067 12.8111 38.2339 11.1316L37.9747 10.6328V13.1645C37.9747 13.4974 37.8972 13.8258 37.7483 14.1237L37.5855 14.4491C37.5075 14.6051 37.4407 14.7665 37.3855 14.932L37.0962 15.7999C37.008 16.0646 36.8593 16.3052 36.662 16.5025C36.5254 16.6391 36.4117 16.7969 36.3253 16.9697L35.8048 18.0107C35.5641 18.492 35.2807 18.9506 34.9578 19.3811L34.5936 19.8667C34.1478 20.4611 33.6604 21.0231 33.1351 21.5484L31.8988 22.7847L29.3672 24.81L26.8356 26.8353L24.3039 28.3543L20.7597 30.3796L18.7344 31.3923V31.8823C18.7344 32.5411 18.9961 33.173 19.462 33.6389C19.6508 33.8277 19.8079 34.0457 19.9273 34.2845Z" fill="#FFD40E"/>
<path d="M18.5387 30.4142L18.7344 31.3923L25.3166 27.848L28.3545 25.8227L31.3925 23.291L33.3101 21.3734C34.0552 20.6283 34.7248 19.8115 35.3092 18.9348L36.4557 17.2151L36.9327 16.4202C37.6145 15.2837 37.9747 13.9834 37.9747 12.6581V11.1392L37.5952 10.3801C37.1739 9.53765 36.6777 8.73477 36.1126 7.98122C35.6668 7.38684 35.1794 6.82485 34.654 6.29949L34.4304 6.07587L32.9114 4.71997V5.56954V7.59485V8.35104C32.9114 8.85627 32.83 9.35819 32.6702 9.83749C32.4949 10.3636 32.2278 10.8545 31.8814 11.2875L30.3798 13.1645L28.8608 14.6835C27.8548 15.6895 26.6931 16.5268 25.4205 17.1631L23.2913 18.2278L18.7344 20.2531L18.3888 22.6717C18.2818 23.4212 18.228 24.1774 18.228 24.9344V26.8353V27.2764C18.228 28.33 18.3321 29.381 18.5387 30.4142Z" fill="white"/>
<path d="M32.6102 4.43562L32.9111 4.68911L32.9998 6.99999C32.9998 7.99755 32.9012 8.99268 32.7056 9.97086L32.4998 11L30.4998 8.99999L26.8352 6.07594L25.9641 5.4226C25.1962 4.84667 24.378 4.34102 23.5195 3.91175L22.6443 3.47414C22.0635 3.18373 21.4628 2.93491 20.8467 2.72956C19.4474 2.26311 17.982 2.02531 16.507 2.02531H15.6961L11 2.5L12.3578 1.75224C14.0911 0.797705 16.0376 0.297148 18.0164 0.297148H18.3493C18.7824 0.297148 19.2146 0.260901 19.6416 0.188787C20.3828 0.0635935 21.1383 0.04678 21.8844 0.138874L23.3692 0.322155C24.3277 0.440475 25.2735 0.645343 26.1951 0.934249L26.3494 0.982613C27.4465 1.32653 28.5033 1.78771 29.5016 2.35814L30.2391 2.77957C31.0778 3.25887 31.8715 3.81315 32.6102 4.43562Z" fill="#305FE6"/>
<circle cx="20.25" cy="20.25" r="20" stroke="black" stroke-width="0.5"/>
</svg>
