<svg width="30" height="30" viewBox="0 0 30 30" fill="none" xmlns="http://www.w3.org/2000/svg">
<path d="M26.25 24.6429C26.25 23.2221 25.7569 21.8593 24.8775 20.8543C23.9981 19.8493 22.8056 19.2857 21.5625 19.2857C17.7131 19.2857 12.2869 19.2857 8.4375 19.2857C7.19438 19.2857 6.00188 19.8493 5.1225 20.8543C4.24313 21.8593 3.75 23.2221 3.75 24.6429C3.75 28.1721 3.75 30 3.75 30H26.25C26.25 30 26.25 28.1721 26.25 24.6429ZM22.5 10.7143H26.25C27.2437 10.7143 28.1981 11.1664 28.9012 11.97C29.6044 12.7736 30 13.8643 30 15V21.4286H27.4931C26.4394 18.8957 24.18 17.1429 21.5625 17.1429H19.9594C21.5175 15.5721 22.5 13.2729 22.5 10.7143ZM2.50688 21.4286H0C0 21.4286 0 17.9829 0 15C0 13.8643 0.395625 12.7736 1.09875 11.97C1.80188 11.1664 2.75625 10.7143 3.75 10.7143H7.5C7.5 13.2729 8.4825 15.5721 10.0406 17.1429H8.4375C5.82 17.1429 3.56062 18.8936 2.50688 21.4286ZM15 4.28571C18.105 4.28571 20.625 7.16571 20.625 10.7143C20.625 14.2629 18.105 17.1429 15 17.1429C11.895 17.1429 9.375 14.2629 9.375 10.7143C9.375 7.16571 11.895 4.28571 15 4.28571ZM7.73812 8.56286C7.65937 8.56929 7.58063 8.57143 7.5 8.57143C5.43 8.57143 3.75 6.65143 3.75 4.28571C3.75 1.92 5.43 0 7.5 0C9.28875 0 10.7869 1.43571 11.16 3.35143C9.48938 4.49357 8.23875 6.35571 7.73812 8.56286ZM18.84 3.35143C19.2131 1.43571 20.7113 0 22.5 0C24.57 0 26.25 1.92 26.25 4.28571C26.25 6.65143 24.57 8.57143 22.5 8.57143C22.4194 8.57143 22.3406 8.56929 22.2619 8.56286C21.7613 6.35571 20.5106 4.49357 18.84 3.35143Z" fill="black"/>
</svg>
