<svg width="30" height="30" viewBox="0 0 30 30" fill="none" xmlns="http://www.w3.org/2000/svg">
<path d="M23.75 12.5V5M20 8.75H27.5M20 26.25V24.75C20 22.6498 20 21.5997 19.5913 20.7975C19.2317 20.0919 18.6581 19.5183 17.9525 19.1587C17.1503 18.75 16.1002 18.75 14 18.75H8.5C6.3998 18.75 5.3497 18.75 4.54754 19.1587C3.84193 19.5183 3.26825 20.0919 2.90873 20.7975C2.5 21.5997 2.5 22.6498 2.5 24.75V26.25M15.625 9.375C15.625 11.7912 13.6662 13.75 11.25 13.75C8.83375 13.75 6.875 11.7912 6.875 9.375C6.875 6.95875 8.83375 5 11.25 5C13.6662 5 15.625 6.95875 15.625 9.375Z" stroke="white" stroke-width="2" stroke-linecap="round" stroke-linejoin="round"/>
</svg>
